<?xml version="1.0" encoding="utf-8"?>
<!-- Generator: Adobe Illustrator 21.0.1, SVG Export Plug-In . SVG Version: 6.00 Build 0)  -->
<svg version="1.1" id="Layer_1" xmlns="http://www.w3.org/2000/svg" xmlns:xlink="http://www.w3.org/1999/xlink" x="0px" y="0px"
	 viewBox="0 0 140 32" style="enable-background:new 0 0 140 32;" xml:space="preserve">
<style type="text/css">
	.Drop_x0020_Shadow{fill:none;}
	.Round_x0020_Corners_x0020_2_x0020_pt{fill:#FFFFFF;stroke:#231F20;stroke-miterlimit:10;}
	.Live_x0020_Reflect_x0020_X{fill:none;}
	.Bevel_x0020_Soft{fill:url(#SVGID_1_);}
	.Dusk{fill:#FFFFFF;}
	.Foliage_GS{fill:#FFDD00;}
	.Pompadour_GS{fill-rule:evenodd;clip-rule:evenodd;fill:#44ADE2;}
	.st0{fill:#009BFF;}
	.st1{fill:#404040;}
</style>
<linearGradient id="SVGID_1_" gradientUnits="userSpaceOnUse" x1="0.01" y1="39" x2="0.7171" y2="39.7071">
	<stop  offset="0" style="stop-color:#DEDFE3"/>
	<stop  offset="0.1783" style="stop-color:#DADBDF"/>
	<stop  offset="0.3611" style="stop-color:#CECFD3"/>
	<stop  offset="0.546" style="stop-color:#B9BCBF"/>
	<stop  offset="0.7324" style="stop-color:#9CA0A2"/>
	<stop  offset="0.9181" style="stop-color:#787D7E"/>
	<stop  offset="1" style="stop-color:#656B6C"/>
</linearGradient>
<g>
	<path class="st1" d="M6.86,23.23c-1.36,0-2.55-0.29-3.58-0.88c-1.03-0.59-1.83-1.4-2.41-2.44C0.29,18.87,0,17.66,0,16.29
		c0-1.37,0.29-2.58,0.87-3.61c0.58-1.03,1.39-1.84,2.41-2.42C4.31,9.68,5.5,9.39,6.86,9.39c1.15,0,2.19,0.23,3.11,0.7
		c0.92,0.46,1.71,1.13,2.36,2.01L9.45,13.8c-0.34-0.43-0.72-0.77-1.15-1.02c-0.43-0.25-0.92-0.37-1.48-0.37
		c-0.93,0-1.68,0.35-2.26,1.05c-0.58,0.7-0.86,1.64-0.86,2.83c0,1.19,0.29,2.14,0.86,2.85c0.58,0.71,1.33,1.07,2.26,1.07
		c0.58,0,1.09-0.14,1.53-0.42c0.44-0.28,0.82-0.61,1.12-0.99l2.86,1.71c-0.64,0.89-1.43,1.57-2.36,2.03C9.04,23,8,23.23,6.86,23.23z
		"/>
	<path class="st1" d="M13.92,22.98V8.66h3.41v14.32H13.92z"/>
	<path class="st1" d="M25.42,22.98l-0.18-1.31c-0.65,1.05-1.65,1.57-2.98,1.57c-0.59,0-1.12-0.13-1.6-0.38
		c-0.48-0.25-0.86-0.6-1.14-1.05c-0.28-0.44-0.42-0.96-0.42-1.55c0-1.11,0.43-1.97,1.3-2.59c0.87-0.61,2.02-0.92,3.44-0.92
		c0.44,0,0.91,0.04,1.41,0.12c-0.05-0.5-0.26-0.87-0.64-1.13c-0.37-0.25-0.83-0.38-1.36-0.38c-0.47,0-0.94,0.09-1.42,0.26
		c-0.48,0.18-0.93,0.39-1.36,0.64l-1.16-2.2c0.65-0.42,1.36-0.74,2.12-0.97c0.76-0.23,1.52-0.34,2.27-0.34
		c0.92,0,1.74,0.16,2.47,0.47c0.73,0.31,1.31,0.79,1.73,1.43c0.42,0.64,0.63,1.45,0.63,2.43v5.9H25.42z M22.41,19.74
		c0,0.3,0.11,0.55,0.33,0.74c0.22,0.19,0.51,0.28,0.86,0.28c0.47,0,0.87-0.16,1.19-0.48c0.32-0.32,0.48-0.72,0.48-1.21v-0.33
		c-0.35-0.07-0.73-0.1-1.12-0.1c-0.5,0-0.91,0.09-1.25,0.25C22.58,19.07,22.41,19.35,22.41,19.74z"/>
	<path class="st1" d="M34.12,19.11v3.86h-3.41v-9.98h3.12l0.22,1.67c0.21-0.54,0.55-0.97,1.03-1.3c0.48-0.33,1.03-0.5,1.66-0.5
		c0.35,0,0.62,0.05,0.8,0.14v3.12c-0.14-0.05-0.3-0.09-0.48-0.12c-0.18-0.03-0.38-0.04-0.6-0.04c-0.68,0-1.24,0.25-1.68,0.76
		C34.34,17.21,34.12,18.01,34.12,19.11z"/>
	<path class="st1" d="M39.18,22.98v-9.98c0.55,0.12,1.1,0.18,1.67,0.18c0.58,0,1.16-0.06,1.75-0.18v9.98H39.18z"/>
	<path class="st1" d="M49.83,23.23c-1.07,0-2.02-0.23-2.83-0.68c-0.82-0.45-1.46-1.07-1.92-1.85c-0.46-0.78-0.7-1.69-0.7-2.73
		c0-1.03,0.23-1.94,0.7-2.73c0.46-0.78,1.1-1.4,1.92-1.84c0.82-0.44,1.76-0.67,2.83-0.67c1.07,0,2.02,0.22,2.83,0.67
		c0.82,0.44,1.46,1.06,1.92,1.84c0.46,0.78,0.7,1.69,0.7,2.73c0,1.03-0.23,1.94-0.7,2.73c-0.46,0.78-1.1,1.4-1.92,1.85
		C51.85,23.01,50.9,23.23,49.83,23.23z M49.83,20.52c0.6,0,1.08-0.23,1.44-0.7c0.36-0.46,0.54-1.08,0.54-1.85
		c0-0.77-0.18-1.39-0.54-1.84c-0.36-0.46-0.84-0.69-1.44-0.69c-0.6,0-1.08,0.23-1.44,0.69c-0.36,0.46-0.54,1.07-0.54,1.84
		c0,0.77,0.18,1.39,0.54,1.85C48.75,20.29,49.23,20.52,49.83,20.52z"/>
	<path class="st1" d="M60.48,17.47v5.51h-3.41v-9.98h3.12l0.18,1.31c0.33-0.47,0.75-0.85,1.27-1.14c0.52-0.29,1.1-0.43,1.73-0.43
		c1.09,0,1.95,0.35,2.61,1.06c0.65,0.71,0.98,1.72,0.98,3.04v6.14h-3.41v-5.75c0-0.59-0.13-1.02-0.39-1.3
		c-0.26-0.28-0.63-0.42-1.1-0.42c-0.47,0-0.85,0.15-1.14,0.45C60.62,16.26,60.48,16.76,60.48,17.47z"/>
	<path class="st0" d="M77.79,20.03h5.55v2.94h-9.2V9.64h3.65V20.03z"/>
	<path class="st0" d="M94.39,21.96c-0.5,0.35-1.13,0.65-1.89,0.9c-0.76,0.25-1.58,0.37-2.44,0.37c-1.19,0-2.21-0.22-3.05-0.66
		c-0.84-0.44-1.49-1.05-1.94-1.83c-0.45-0.78-0.68-1.69-0.68-2.71c0-1.03,0.22-1.95,0.67-2.75c0.44-0.8,1.06-1.42,1.84-1.87
		c0.78-0.45,1.7-0.68,2.75-0.68c1.02,0,1.92,0.22,2.7,0.66c0.78,0.44,1.39,1.05,1.82,1.82c0.44,0.78,0.66,1.69,0.66,2.74
		c0,0.14-0.01,0.29-0.03,0.45c-0.02,0.16-0.04,0.32-0.07,0.49h-6.96c0.31,1.15,1.17,1.73,2.57,1.73c0.63,0,1.18-0.1,1.67-0.29
		c0.48-0.2,0.89-0.39,1.22-0.59L94.39,21.96z M89.72,15.21c-1.11,0-1.78,0.59-2,1.77h3.8c-0.09-0.64-0.31-1.1-0.66-1.36
		C90.52,15.34,90.14,15.21,89.72,15.21z"/>
	<path class="st0" d="M103.6,22.98l-0.18-1.31c-0.31,0.48-0.72,0.87-1.22,1.15c-0.5,0.28-1.07,0.42-1.73,0.42
		c-0.9,0-1.69-0.22-2.37-0.67c-0.68-0.44-1.21-1.06-1.59-1.85c-0.38-0.79-0.57-1.7-0.57-2.74c0-1.03,0.19-1.94,0.57-2.73
		c0.38-0.78,0.9-1.4,1.56-1.84c0.66-0.44,1.42-0.67,2.28-0.67c0.6,0,1.16,0.13,1.67,0.38s0.93,0.6,1.27,1.03V8.66h3.41v14.32H103.6z
		 M101.41,20.52c0.59,0,1.06-0.23,1.42-0.7c0.36-0.46,0.54-1.08,0.54-1.85c0-0.77-0.18-1.39-0.54-1.85c-0.36-0.46-0.83-0.7-1.42-0.7
		c-0.6,0-1.08,0.23-1.44,0.7c-0.36,0.46-0.54,1.08-0.54,1.85c0,0.77,0.18,1.39,0.54,1.85C100.32,20.29,100.8,20.52,101.41,20.52z"/>
	<path class="st0" d="M119.21,21.92c0,1.02-0.24,1.89-0.71,2.62c-0.47,0.73-1.12,1.28-1.95,1.67c-0.83,0.39-1.79,0.58-2.89,0.58
		c-0.89,0-1.73-0.12-2.53-0.35c-0.8-0.24-1.51-0.55-2.14-0.94l1.27-2.2c0.44,0.26,0.91,0.47,1.4,0.64s1,0.25,1.52,0.25
		c0.88,0,1.53-0.2,1.96-0.59c0.43-0.39,0.65-0.95,0.65-1.67v-0.35c-0.34,0.34-0.75,0.61-1.23,0.81c-0.48,0.2-0.98,0.3-1.5,0.3
		c-0.9,0-1.7-0.21-2.38-0.64c-0.69-0.42-1.22-1.01-1.61-1.77c-0.39-0.75-0.58-1.61-0.58-2.58c0-0.98,0.19-1.84,0.57-2.59
		c0.38-0.75,0.91-1.33,1.59-1.75c0.68-0.42,1.46-0.63,2.35-0.63c0.6,0,1.16,0.14,1.68,0.43c0.52,0.29,0.92,0.67,1.23,1.14l0.18-1.31
		h3.12V21.92z M113.92,19.98c0.58,0,1.04-0.21,1.39-0.62c0.35-0.41,0.53-0.96,0.53-1.66s-0.18-1.25-0.53-1.66
		c-0.35-0.41-0.82-0.62-1.39-0.62c-0.59,0-1.06,0.21-1.41,0.62c-0.35,0.41-0.53,0.96-0.53,1.66c0,0.68,0.18,1.23,0.53,1.65
		C112.86,19.77,113.33,19.98,113.92,19.98z"/>
	<path class="st0" d="M131,21.96c-0.5,0.35-1.13,0.65-1.89,0.9c-0.76,0.25-1.58,0.37-2.44,0.37c-1.19,0-2.21-0.22-3.05-0.66
		c-0.84-0.44-1.49-1.05-1.94-1.83c-0.45-0.78-0.68-1.69-0.68-2.71c0-1.03,0.22-1.95,0.67-2.75c0.44-0.8,1.06-1.42,1.84-1.87
		c0.78-0.45,1.7-0.68,2.75-0.68c1.02,0,1.92,0.22,2.7,0.66c0.78,0.44,1.39,1.05,1.82,1.82c0.44,0.78,0.66,1.69,0.66,2.74
		c0,0.14-0.01,0.29-0.03,0.45c-0.02,0.16-0.04,0.32-0.07,0.49h-6.96c0.31,1.15,1.17,1.73,2.57,1.73c0.63,0,1.18-0.1,1.67-0.29
		c0.48-0.2,0.89-0.39,1.22-0.59L131,21.96z M126.33,15.21c-1.11,0-1.78,0.59-2,1.77h3.8c-0.09-0.64-0.31-1.1-0.66-1.36
		C127.13,15.34,126.75,15.21,126.33,15.21z"/>
	<path class="st0" d="M136.59,19.11v3.86h-3.41v-9.98h3.12l0.22,1.67c0.21-0.54,0.55-0.97,1.03-1.3c0.48-0.33,1.03-0.5,1.66-0.5
		c0.35,0,0.62,0.05,0.8,0.14v3.12c-0.14-0.05-0.3-0.09-0.48-0.12c-0.18-0.03-0.38-0.04-0.6-0.04c-0.68,0-1.24,0.25-1.68,0.76
		C136.81,17.21,136.59,18.01,136.59,19.11z"/>
	<path class="st0" d="M40.85,12.21c-0.56,0-1.04-0.2-1.44-0.6c-0.4-0.4-0.6-0.88-0.6-1.44c0-0.56,0.2-1.04,0.6-1.44
		c0.4-0.4,0.88-0.6,1.44-0.6c0.56,0,1.04,0.2,1.44,0.6c0.4,0.4,0.6,0.88,0.6,1.44c0,0.56-0.2,1.04-0.6,1.44
		C41.89,12.01,41.41,12.21,40.85,12.21z"/>
</g>
</svg>
