<?xml version="1.0" standalone="no"?>
<!DOCTYPE svg PUBLIC "-//W3C//DTD SVG 20010904//EN"
 "http://www.w3.org/TR/2001/REC-SVG-20010904/DTD/svg10.dtd">
<svg version="1.0" xmlns="http://www.w3.org/2000/svg"
 width="1280.000000pt" height="942.000000pt" viewBox="0 0 1280.000000 942.000000"
 preserveAspectRatio="xMidYMid meet">
<metadata>
Created by potrace 1.15, written by Peter Selinger 2001-2017
</metadata>
<g transform="translate(0.000000,942.000000) scale(0.100000,-0.100000)"
fill="#000000" stroke="none">
<path d="M2656 9409 c-548 -58 -1057 -354 -1451 -844 -85 -106 -213 -302 -310
-473 -96 -171 -143 -240 -203 -294 -93 -84 -165 -94 -405 -54 -193 32 -238 33
-262 6 -28 -30 -30 -97 -6 -191 27 -106 144 -436 183 -512 16 -32 97 -160 181
-285 84 -125 175 -265 204 -312 315 -522 991 -1215 1548 -1587 251 -167 523
-303 579 -289 41 10 92 62 177 179 87 121 88 126 9 128 -25 1 -58 4 -75 8 -28
6 -30 10 -35 60 -7 72 -21 81 -96 57 -66 -21 -69 -19 -79 59 -9 62 -30 115
-47 116 -7 1 -42 2 -78 3 l-65 1 -11 72 c-15 99 -22 106 -105 98 -75 -8 -74
-9 -84 77 -12 103 -33 126 -98 107 -71 -20 -82 -9 -92 104 -9 90 -21 101 -102
94 -34 -4 -65 -2 -68 3 -3 5 -7 45 -8 89 -4 105 -12 114 -113 119 l-77 4 8 52
c16 101 8 173 -15 137 -8 -14 -82 -29 -112 -23 -16 3 -18 16 -18 103 l0 99
-78 152 c-135 265 -163 388 -165 733 -2 228 5 277 55 435 126 393 466 774 875
979 515 257 1014 215 1318 -111 33 -35 96 -115 141 -178 74 -104 210 -250 234
-250 5 0 13 -18 16 -41 19 -114 61 -111 487 36 118 40 252 81 297 89 104 20
301 21 412 1 361 -63 683 -306 852 -644 226 -452 268 -953 115 -1388 -86 -245
-250 -494 -426 -648 -309 -271 -717 -420 -1341 -490 -78 -9 -168 -25 -199 -36
-191 -66 -339 -264 -383 -515 -18 -100 -8 -298 19 -389 12 -38 37 -165 56
-282 20 -117 45 -243 56 -280 65 -212 199 -332 414 -370 112 -20 256 -8 449
37 72 16 131 30 133 30 4 0 21 -73 28 -121 6 -41 5 -47 -14 -52 -34 -8 -25
-35 31 -89 l53 -52 -75 -18 c-123 -30 -195 -71 -285 -162 -60 -60 -90 -100
-117 -156 -30 -63 -181 -557 -335 -1100 -47 -166 -39 -317 23 -448 23 -49 27
-72 29 -167 4 -171 54 -286 176 -407 95 -94 188 -137 405 -188 93 -21 315 -73
494 -115 454 -106 496 -115 571 -115 136 0 294 60 393 151 49 45 54 47 131 54
44 4 112 17 150 29 76 24 999 533 1112 613 142 100 243 287 243 451 0 46 2 48
51 77 173 101 273 308 240 493 -14 80 -48 157 -94 216 l-32 41 35 -28 c100
-82 304 -229 365 -265 151 -89 290 -132 430 -132 161 0 281 50 407 168 82 77
117 122 258 327 57 83 133 186 170 230 84 101 131 166 164 231 l27 51 132 -66
c73 -37 164 -77 202 -88 130 -40 440 -123 515 -139 96 -20 190 -15 227 12 42
32 41 81 -7 285 -51 214 -61 334 -34 408 41 114 150 211 454 401 441 277 762
579 1011 953 201 303 322 618 380 992 17 106 17 456 1 570 -66 461 -260 894
-578 1292 -54 67 -74 100 -74 121 0 36 -28 73 -78 103 -20 13 -76 60 -125 105
-64 62 -108 93 -170 123 -73 36 -200 71 -256 71 -12 0 -80 29 -153 64 -569
273 -1076 392 -1521 357 -456 -37 -822 -187 -1217 -500 -343 -272 -800 -849
-966 -1222 -127 -283 -234 -645 -260 -876 -3 -35 -10 -63 -14 -63 -5 0 -23 18
-40 40 -17 22 -35 40 -40 40 -18 0 -273 -214 -300 -252 -43 -59 -39 -90 23
-211 93 -180 256 -416 440 -636 87 -104 97 -120 121 -200 39 -128 56 -231 56
-339 0 -174 -28 -248 -195 -533 -112 -188 -187 -339 -226 -449 -32 -91 -33
-218 -2 -276 56 -106 156 -192 425 -370 106 -70 195 -129 197 -131 3 -2 -1 -9
-8 -16 -8 -8 -40 -11 -101 -8 -50 1 -114 -2 -142 -9 -132 -31 -254 -120 -318
-233 l-32 -57 -63 0 c-142 0 -138 2 -783 -347 -259 -140 -443 -246 -474 -273
l-51 -44 -176 44 c-97 23 -179 44 -182 46 -4 2 43 162 103 356 119 381 132
449 108 561 -28 136 -140 296 -275 392 -71 51 -199 117 -262 136 -24 7 -43 17
-43 23 0 23 28 112 43 143 10 18 17 41 17 53 0 20 -4 22 -45 24 -16 1 -22 14
-36 81 -9 44 -16 81 -15 83 2 1 97 18 212 37 115 19 234 42 264 49 192 49 269
115 299 254 16 75 14 327 -4 522 -9 91 -13 192 -9 225 19 193 96 321 362 597
167 175 257 298 339 468 194 401 275 929 212 1378 -154 1099 -625 1728 -1456
1942 -201 52 -360 71 -658 77 l-270 5 -50 38 c-187 140 -391 269 -541 344
-380 189 -761 265 -1138 225z m7624 -1844 c180 -40 366 -119 508 -218 105 -72
246 -203 289 -267 74 -111 187 -203 410 -333 282 -165 456 -404 530 -729 26
-115 23 -392 -6 -528 -89 -422 -295 -790 -617 -1100 -260 -252 -526 -403 -833
-476 -149 -35 -433 -52 -629 -36 -236 19 -376 60 -687 202 -79 36 -345 192
-417 245 -26 19 -84 77 -129 128 -290 335 -427 658 -459 1082 -42 557 181
1120 614 1550 291 289 558 436 891 490 120 19 429 14 535 -10z m-5159 -4905
c130 -48 248 -175 290 -313 16 -52 20 -86 17 -155 -3 -76 -16 -126 -102 -404
-69 -220 -103 -318 -113 -318 -8 0 -80 16 -161 36 -130 32 -157 36 -237 31
-122 -7 -215 -46 -325 -137 -40 -33 -63 -59 -146 -165 -14 -18 -15 -13 -10 70
4 70 17 132 60 275 30 102 93 318 141 480 54 185 100 320 122 362 48 91 128
177 202 217 98 52 165 57 262 21z m2517 -642 c-3 -62 -12 -128 -18 -146 -7
-18 -9 -43 -6 -57 6 -24 51 -55 78 -55 8 0 53 23 102 51 48 27 112 59 142 70
30 11 58 27 62 36 16 27 35 -70 30 -150 -5 -76 -29 -135 -76 -192 -25 -30 -80
-75 -93 -75 -3 0 -23 28 -45 62 -78 128 -234 268 -374 338 -36 18 -67 34 -69
36 -7 6 38 69 71 100 56 52 134 92 183 93 19 1 20 -3 13 -111z m79 106 c-3 -3
-12 -4 -19 -1 -8 3 -5 6 6 6 11 1 17 -2 13 -5z m274 -167 c12 -22 12 -22 -10
-3 -11 11 -21 23 -21 28 0 14 19 -1 31 -25z m-771 -313 c43 -153 207 -290 395
-331 l73 -16 -15 -51 c-22 -78 -71 -151 -148 -224 -62 -59 -124 -97 -510 -312
-402 -224 -535 -289 -590 -290 -19 0 -20 7 -20 163 0 126 -4 178 -19 232 -36
135 -99 250 -183 332 l-43 41 52 30 c224 127 810 436 856 452 31 11 76 19 98
20 41 0 42 -1 54 -46z m255 -17 c59 -31 185 -144 185 -167 0 -14 -61 -4 -118
21 -61 26 -115 71 -151 126 -55 83 -41 86 84 20z m-2437 -401 c52 -14 96 -27
98 -29 13 -13 -56 -119 -115 -178 -109 -109 -235 -156 -394 -147 -73 4 -93 9
-133 34 -66 41 -73 55 -49 101 30 55 103 132 161 169 122 78 260 94 432 50z
m515 -127 c67 -16 138 -34 158 -40 l36 -9 -9 -52 c-19 -114 19 -327 82 -463
48 -101 115 -180 208 -244 l35 -24 -34 -17 c-61 -31 -140 -43 -250 -37 -84 4
-193 26 -574 116 -515 121 -576 142 -680 234 -48 43 -123 152 -112 163 3 3 18
-1 34 -9 90 -47 365 -57 505 -19 218 59 372 189 438 370 12 34 27 62 32 62 5
0 64 -14 131 -31z m524 -211 c47 -49 101 -144 123 -217 21 -65 28 -235 12
-245 -17 -10 -128 52 -163 91 -61 68 -83 139 -83 273 0 70 4 126 12 143 l12
28 28 -19 c15 -11 41 -35 59 -54z"/>
</g>
</svg>
