<?xml version="1.0" standalone="no"?>
<!DOCTYPE svg PUBLIC "-//W3C//DTD SVG 20010904//EN"
 "http://www.w3.org/TR/2001/REC-SVG-20010904/DTD/svg10.dtd">
<svg version="1.0" xmlns="http://www.w3.org/2000/svg"
 width="1280.000000pt" height="685.000000pt" viewBox="0 0 1280.000000 685.000000"
 preserveAspectRatio="xMidYMid meet">
<metadata>
Created by potrace 1.15, written by Peter Selinger 2001-2017
</metadata>
<g transform="translate(0.000000,685.000000) scale(0.100000,-0.100000)"
fill="#000000" stroke="none">
<path d="M8495 6836 c-64 -20 -136 -61 -282 -157 -162 -107 -223 -139 -322
-169 -117 -36 -169 -28 -399 63 -106 43 -195 77 -198 77 -2 0 -4 -78 -4 -173
l0 -173 -1300 -893 c-1201 -825 -1299 -895 -1285 -911 8 -9 15 -21 15 -27 0
-6 -799 -561 -1776 -1233 l-1776 -1222 -68 18 -69 18 -99 -68 -100 -68 -34 25
c-102 78 -214 73 -330 -13 -78 -59 -132 -129 -237 -312 -52 -90 -103 -173
-114 -185 l-20 -22 37 -51 c20 -27 36 -54 36 -59 0 -4 -38 -34 -85 -66 -47
-32 -85 -61 -85 -65 0 -3 27 -60 60 -127 65 -133 167 -276 281 -397 l74 -78
90 56 c49 31 91 56 94 56 4 -1 36 -44 73 -98 222 -320 388 -556 400 -567 10
-10 60 20 257 156 135 93 247 169 250 169 3 -1 57 -66 120 -145 l114 -144 46
33 c25 18 601 423 1279 900 l1233 868 92 28 c229 72 353 101 447 107 94 5 95
5 147 -29 66 -42 298 -243 353 -305 65 -74 116 -157 140 -225 11 -35 31 -82
43 -104 l22 -42 180 73 c368 148 679 296 1030 491 309 171 437 260 737 511
157 132 241 194 316 232 l42 21 42 -21 c23 -12 76 -54 117 -93 82 -77 217
-191 461 -386 247 -198 534 -434 678 -558 395 -339 681 -633 1107 -1137 202
-238 254 -292 291 -301 22 -6 31 -3 42 14 14 22 14 22 55 -14 105 -89 224 -76
404 43 28 18 138 108 244 199 115 98 235 191 298 230 368 229 739 593 944 924
226 368 256 724 83 995 -84 130 -407 379 -1371 1055 -722 506 -1070 781 -1230
969 -104 123 -111 141 -161 416 -6 29 -5 29 10 10 12 -14 10 -6 -5 30 -15 36
-22 80 -26 155 -9 194 36 309 177 450 47 47 112 109 146 137 34 28 68 67 78
86 38 81 7 153 -84 200 -53 27 -59 28 -155 22 -265 -15 -340 -17 -417 -5 -395
58 -739 314 -834 624 -45 143 -186 224 -319 182z m-1275 -3502 c288 -191 424
-382 407 -570 -26 -275 -303 -539 -915 -870 -412 -223 -461 -240 -677 -231
-272 12 -576 136 -693 285 -70 87 -68 148 5 270 118 194 379 418 645 557 170
88 288 115 328 75 29 -29 67 -110 92 -197 30 -103 32 -305 5 -436 -29 -137
-10 -166 70 -108 29 21 50 50 77 107 107 223 189 468 205 609 11 89 4 159 -23
233 -14 39 -14 47 0 83 19 46 93 115 171 160 66 38 182 88 203 89 9 0 54 -25
100 -56z"/>
</g>
</svg>
