<?xml version="1.0" standalone="no"?>
<!DOCTYPE svg PUBLIC "-//W3C//DTD SVG 20010904//EN"
 "http://www.w3.org/TR/2001/REC-SVG-20010904/DTD/svg10.dtd">
<svg version="1.0" xmlns="http://www.w3.org/2000/svg"
 width="1280.000000pt" height="770.000000pt" viewBox="0 0 1280.000000 770.000000"
 preserveAspectRatio="xMidYMid meet">
<metadata>
Created by potrace 1.15, written by Peter Selinger 2001-2017
</metadata>
<g transform="translate(0.000000,770.000000) scale(0.100000,-0.100000)"
fill="#000000" stroke="none">
<path d="M2194 7603 l-30 -98 -347 -3 -347 -2 0 -103 0 -103 -94 -67 -95 -67
-80 0 c-94 0 -109 5 -122 38 l-10 25 -29 -34 c-25 -30 -27 -37 -16 -54 25 -38
62 -57 125 -62 63 -6 86 -22 63 -45 -8 -8 -31 -8 -82 2 -38 7 -73 10 -77 6 -4
-4 -6 -34 -5 -66 3 -48 0 -62 -17 -79 -30 -30 -52 -26 -134 20 -103 59 -165
81 -223 82 -60 0 -100 -21 -133 -69 l-23 -34 -26 20 c-68 54 -89 123 -55 180
16 27 15 29 -11 61 -16 18 -32 44 -38 58 l-9 26 -19 -25 c-53 -68 -52 -185 2
-350 l34 -105 80 3 c100 4 235 -12 310 -38 133 -46 285 -167 386 -308 l46 -63
-15 -67 c-32 -141 -85 -310 -118 -379 -45 -91 -131 -201 -194 -247 -127 -93
-256 -120 -448 -92 -65 9 -127 18 -138 19 -31 3 -47 -61 -43 -173 5 -113 33
-182 103 -254 86 -89 172 -116 460 -141 300 -27 423 -55 522 -121 34 -22 60
-49 74 -76 35 -68 24 -134 -54 -318 -95 -226 -169 -420 -437 -1145 -89 -239
-266 -723 -410 -1120 -255 -700 -350 -959 -431 -1162 -44 -111 -82 -224 -86
-250 -10 -89 34 -149 142 -191 28 -11 242 -70 475 -131 1381 -359 1969 -506
1980 -495 4 5 52 126 105 269 141 377 147 394 140 405 -3 5 -44 22 -90 36 -47
14 -85 31 -85 38 0 6 7 34 16 61 8 28 83 280 165 560 423 1435 631 2134 647
2170 27 63 87 121 150 147 57 22 63 22 722 28 738 7 709 5 855 77 178 88 318
251 394 460 30 80 44 155 61 323 21 205 138 331 370 396 61 17 136 19 1202 22
l1138 3 4 22 c3 12 8 49 11 82 12 105 68 237 129 303 62 67 -110 62 2069 62
1876 0 1986 1 2006 18 21 17 21 24 24 372 l2 355 40 6 c54 7 82 24 105 62 19
30 20 54 20 472 0 418 -1 442 -20 472 -23 38 -46 52 -103 61 l-42 8 -3 137 -3
137 -283 0 -284 0 -4 -147 c-5 -164 -12 -188 -72 -241 -85 -74 -207 -46 -260
60 -24 48 -26 62 -26 190 l0 138 -287 -2 -288 -3 -2 -80 c-8 -256 -6 -239 -35
-281 -71 -102 -205 -117 -288 -34 -55 55 -70 114 -70 272 l0 129 -222 -2 -223
-2 -33 67 -33 66 -253 0 -252 0 -34 -35 -34 -35 -218 0 -218 0 -28 -30 -27
-30 -1765 -3 -1765 -2 -50 -127 -50 -128 -712 0 -713 0 0 33 c0 59 -21 108
-63 151 -69 69 -73 69 -527 73 l-405 3 -30 65 -30 64 -411 1 -411 0 -29 -97z
m7961 -3 c8 -16 15 -30 15 -32 0 -2 -99 -3 -220 -3 l-219 0 31 33 32 32 173 0
172 0 16 -30z m-7335 -63 c-50 -33 -72 -78 -78 -158 l-5 -69 -217 0 -218 0 19
73 c10 39 23 96 29 125 l11 52 246 0 246 0 -33 -23z m113 -60 c16 -11 11 -18
-47 -76 -68 -67 -78 -68 -78 -3 0 64 78 114 125 79z m52 -71 c9 -44 -15 -89
-54 -106 -33 -13 -81 -7 -81 11 0 12 109 129 121 129 4 0 11 -15 14 -34z m984
9 c11 -11 23 -39 27 -62 l7 -43 -477 0 -476 0 0 65 0 66 450 -3 c434 -3 450
-4 469 -23z m2206 0 l25 -24 0 -236 c0 -277 -5 -298 -66 -308 -22 -4 -128 -7
-236 -7 l-198 0 0 293 c0 162 3 297 7 300 3 4 105 7 225 7 l219 0 24 -25z
m4130 -130 l0 -140 -1997 -3 -1998 -2 0 108 c0 86 -4 115 -19 145 l-19 37
2017 -2 2016 -3 0 -140z m345 93 c0 -68 27 -176 55 -224 l26 -44 -116 0 -115
0 0 155 0 155 75 0 75 0 0 -42z m962 -36 c4 -77 30 -150 74 -209 l16 -23 -221
0 c-121 0 -221 3 -221 8 0 4 6 17 14 28 29 40 56 143 56 209 l0 65 139 0 138
0 5 -78z m948 -77 l0 -155 -186 0 -186 0 16 23 c44 59 70 132 74 209 l5 78
138 0 139 0 0 -155z m-10915 3 c-300 -983 -441 -1430 -467 -1482 -33 -66 -104
-161 -150 -201 -50 -43 -201 -119 -272 -136 -54 -13 -112 -63 -122 -105 -14
-54 40 -97 135 -108 48 -5 67 -22 48 -44 -9 -11 -30 -13 -92 -9 -186 13 -295
91 -295 212 0 80 6 85 108 78 240 -14 477 116 576 318 20 41 85 229 144 419
385 1222 343 1100 373 1100 l27 0 -13 -42z m439 12 l-2 -30 959 0 959 0 0 -65
0 -65 -1176 0 c-1115 0 -1175 1 -1170 18 3 9 15 49 27 87 12 39 23 73 26 78 2
4 89 7 192 7 l187 0 -2 -30z m3316 -95 l0 -65 -650 0 -650 0 0 58 c0 32 3 62
7 65 3 4 296 7 650 7 l643 0 0 -65z m7298 -17 c9 -9 12 -79 11 -257 l0 -246
-40 135 c-36 124 -39 145 -39 258 l0 122 28 0 c15 0 33 -5 40 -12z m-10768
-168 l0 -80 -46 0 c-71 0 -121 -19 -174 -67 -80 -72 -114 -183 -87 -287 34
-129 129 -206 253 -206 l54 0 0 -100 0 -100 -167 0 c-192 0 -220 -9 -244 -74
l-13 -36 -89 0 c-69 0 -88 3 -85 14 2 7 71 239 153 514 l150 502 148 0 147 0
0 -80z m212 -112 c0 -101 0 -334 -1 -518 l-2 -335 -45 -3 -44 -3 0 194 0 195
34 51 c71 105 71 235 1 336 -35 51 -35 52 -35 158 l0 107 45 0 45 0 2 -182z
m168 -339 l0 -520 -47 3 -48 3 -3 518 -2 517 50 0 50 0 0 -521z m170 1 l0
-520 -50 0 -50 0 0 520 0 520 50 0 50 0 0 -520z m170 0 l0 -520 -50 0 -50 0 0
520 0 520 50 0 50 0 0 -520z m168 3 l-3 -518 -47 -3 -48 -3 0 520 0 521 50 0
50 0 -2 -517z m167 -3 l0 -515 -47 0 c-27 0 -48 3 -48 8 0 4 0 237 0 518 l0
510 48 -3 47 -3 0 -515z m165 -1 l0 -520 -47 3 -48 3 -3 518 -2 517 50 0 50 0
0 -521z m852 456 c17 -135 76 -226 164 -253 32 -9 275 -12 1023 -12 1079 0
1025 -3 1073 61 36 49 40 63 47 169 l6 95 1993 3 1992 2 0 -415 0 -415 -808 0
-809 0 -102 -105 -102 -105 -2630 0 -2629 0 0 513 c0 283 3 517 7 520 4 4 178
6 387 5 l381 -3 7 -60z m1398 -20 c0 -78 -2 -88 -25 -110 l-24 -25 -571 0
c-640 0 -612 -3 -648 72 -17 35 -28 102 -23 141 1 4 291 7 646 7 l645 0 0 -85z
m5448 33 c54 -27 74 -32 140 -32 68 -1 86 3 144 32 l65 32 290 0 c276 0 293
-1 339 -22 64 -28 172 -29 229 -2 34 16 73 19 273 24 l232 5 0 -407 0 -408
-1035 0 -1035 0 0 403 c0 222 2 406 4 408 2 2 69 3 148 1 138 -2 145 -4 206
-34z m-8910 -163 c100 -42 149 -161 107 -261 l-14 -34 -130 137 -130 138 37
17 c46 22 82 22 130 3z m-90 -216 c67 -73 122 -135 122 -140 0 -15 -73 -31
-116 -26 -116 13 -194 148 -153 266 6 17 14 31 18 31 4 0 62 -59 129 -131z
m6742 -851 l-1 -243 -39 -18 c-73 -34 -172 -191 -210 -335 l-18 -67 -1 158
c-1 223 25 339 124 542 45 93 119 205 136 205 5 0 9 -97 9 -242z m-4690 112
l0 -40 -1209 0 -1210 0 -141 -85 c-78 -47 -143 -85 -145 -85 -2 0 12 29 30 64
19 36 41 92 51 125 l17 61 1303 0 1304 0 0 -40z m4480 -70 c-48 -96 -96 -235
-105 -305 -3 -27 -8 -65 -11 -84 l-5 -34 -552 7 c-304 3 -790 7 -1082 8 -530
2 -530 2 -574 -20 -56 -28 -60 -27 -34 1 11 12 31 42 44 67 33 63 35 212 3
281 -22 46 -79 111 -124 141 -23 16 57 17 1228 17 l1252 1 -40 -80z m-4150 40
c0 -25 -5 -30 -36 -39 -192 -53 -194 -355 -4 -412 34 -11 40 -16 40 -41 0 -22
-4 -28 -22 -28 -69 1 -170 88 -203 173 -26 68 -17 179 19 241 31 53 89 105
137 122 56 21 69 18 69 -16z m6078 -72 l3 -98 -821 0 -820 0 0 93 c0 52 3 97
7 100 3 4 371 6 817 5 l811 -3 3 -97z m602 71 c339 -23 511 -40 760 -75 171
-23 479 -80 489 -90 2 -2 -370 -4 -827 -4 l-832 0 0 93 c0 52 3 96 6 99 3 3
31 4 62 2 31 -3 185 -14 342 -25z m-5890 -266 c0 -227 -1 -246 -16 -225 -15
22 -17 22 -295 22 -272 0 -279 0 -279 20 0 20 7 20 271 20 252 0 270 1 267 18
-3 16 -27 17 -306 20 l-303 2 3 23 3 22 293 3 c250 2 292 4 292 17 0 13 -44
15 -320 15 l-320 0 0 25 0 25 318 2 c274 3 317 5 317 18 0 13 -46 15 -347 18
-340 2 -348 3 -348 22 0 20 7 20 350 20 193 0 350 2 350 4 0 2 3 11 6 20 6 14
-27 16 -320 16 -319 0 -326 0 -326 20 0 20 7 20 334 20 295 0 335 2 340 16 3
9 6 18 6 20 0 2 -142 4 -315 4 -308 0 -315 0 -315 20 0 20 7 20 330 20 l330 0
0 -247z m835 228 c79 -37 128 -116 127 -206 -1 -88 -42 -159 -115 -198 -41
-22 -50 -22 -424 -25 l-383 -3 0 225 0 226 378 0 c346 0 380 -2 417 -19z
m-3907 -93 l-3 -63 -217 -3 -218 -2 0 65 0 65 220 0 221 0 -3 -62z m1882 25
c-219 -122 -469 -198 -740 -223 -333 -31 -720 51 -1015 215 l-80 44 950 1 950
0 -65 -37z m-2452 -79 c-17 -44 -19 -63 -12 -92 22 -88 165 -122 365 -87 47 8
104 21 128 29 l43 16 -7 -33 c-11 -49 -49 -141 -86 -205 -19 -31 -85 -109
-148 -172 l-113 -114 -21 29 c-11 17 -49 58 -84 93 -112 109 -301 184 -506
199 -97 7 -123 18 -113 51 8 24 67 62 291 189 234 133 269 152 277 152 4 1 -2
-24 -14 -55z m1610 -343 c-10 -28 -154 -291 -159 -291 -16 0 -39 72 -39 121 0
70 34 129 92 158 43 21 112 29 106 12z m118 -97 c31 -75 4 -181 -58 -226 -30
-20 -128 -39 -128 -23 0 19 155 293 163 288 5 -3 15 -20 23 -39z m1872 29 c10
-20 5 -44 -12 -55 -6 -4 -234 -8 -506 -8 -513 0 -520 1 -520 40 0 39 7 40 527
40 468 0 503 -1 511 -17z m820 5 c16 -16 15 -33 -4 -52 -13 -14 -56 -16 -313
-16 -306 0 -321 2 -321 40 0 38 15 40 325 40 221 0 304 -3 313 -12z m-1412
-275 c-8 -28 -24 -141 -31 -223 -15 -172 44 -473 114 -586 12 -18 12 -18 7 1
-31 126 -37 355 -11 475 21 103 40 160 88 263 l41 89 195 -4 c174 -4 202 -7
253 -27 131 -51 241 -170 289 -311 32 -92 32 -248 0 -340 -58 -169 -196 -297
-355 -330 -36 -7 -193 -10 -478 -8 -415 3 -424 3 -480 26 -227 92 -358 349
-304 596 41 182 157 316 324 373 57 19 88 23 210 23 132 0 143 -1 138 -17z
m1399 -10 c-80 -74 -146 -182 -179 -292 -8 -29 -20 -101 -26 -160 -13 -132
-40 -231 -86 -324 -97 -192 -261 -326 -462 -378 -71 -18 -117 -19 -793 -19
l-719 0 18 48 18 47 744 5 c738 5 746 5 803 27 90 34 146 71 214 139 76 78
137 195 159 309 41 216 -44 456 -207 585 l-51 40 298 0 298 0 -29 -27z m-4366
-3663 c410 -43 790 -218 1096 -505 35 -33 52 -54 40 -50 -409 108 -1726 461
-1765 472 -66 19 -60 22 92 53 189 39 360 48 537 30z m-792 -174 c3 -3 -31
-111 -76 -240 -44 -129 -81 -240 -81 -246 0 -6 -8 -9 -17 -6 -10 3 -47 12 -83
21 -36 9 -66 18 -68 20 -3 3 127 414 149 472 l8 21 81 -18 c45 -10 84 -21 87
-24z m1165 -312 c505 -134 920 -244 923 -244 3 0 5 -5 5 -10 0 -10 -128 -361
-155 -426 l-13 -32 -944 238 c-518 131 -942 242 -941 246 0 5 36 116 78 247
l77 239 27 -7 c14 -3 439 -116 943 -251z"/>
<path d="M608 7373 c-40 -10 -10 -173 32 -173 34 0 54 38 58 111 l4 69 -38 -1
c-22 -1 -47 -3 -56 -6z"/>
<path d="M751 7343 c-26 -94 -1 -160 50 -133 23 13 55 73 64 122 6 31 4 36
-17 41 -12 4 -37 7 -55 7 -29 0 -33 -4 -42 -37z"/>
<path d="M915 7301 c-54 -80 -40 -148 25 -121 38 16 101 87 93 106 -6 15 -64
54 -82 54 -6 0 -22 -17 -36 -39z"/>
<path d="M450 7302 c-39 -34 -36 -53 16 -106 92 -95 154 -24 76 89 -35 50 -52
53 -92 17z"/>
</g>
</svg>
