<?xml version="1.0" standalone="no"?>
<!DOCTYPE svg PUBLIC "-//W3C//DTD SVG 20010904//EN"
 "http://www.w3.org/TR/2001/REC-SVG-20010904/DTD/svg10.dtd">
<svg version="1.0" xmlns="http://www.w3.org/2000/svg"
 width="1280.000000pt" height="756.000000pt" viewBox="0 0 1280.000000 756.000000"
 preserveAspectRatio="xMidYMid meet">
<metadata>
Created by potrace 1.15, written by Peter Selinger 2001-2017
</metadata>
<g transform="translate(0.000000,756.000000) scale(0.100000,-0.100000)"
fill="#000000" stroke="none">
<path d="M275 7535 c-134 -45 -218 -133 -260 -272 -10 -32 -14 -116 -15 -292
-1 -280 2 -307 35 -313 25 -5 50 10 50 31 0 8 10 15 22 16 26 2 31 -10 8 -19
-8 -3 -15 -10 -15 -17 0 -6 7 -9 15 -5 8 3 15 1 15 -5 0 -15 -29 -22 -43 -10
-10 8 -14 7 -15 -2 0 -6 -4 -22 -7 -34 -6 -18 -2 -25 16 -32 15 -6 18 -10 9
-11 -35 -4 -65 3 -77 18 -10 14 -12 -109 -10 -658 l2 -675 34 -47 c41 -57 75
-64 92 -21 5 15 6 29 1 32 -17 11 -32 49 -26 65 7 19 8 19 37 4 49 -28 58 -40
51 -74 -3 -18 -1 -34 5 -38 6 -4 11 -19 11 -32 0 -15 5 -24 11 -22 17 6 79
-58 79 -81 0 -10 7 -24 14 -31 20 -16 5 -54 -37 -97 -33 -35 -67 -44 -67 -18
0 8 -6 25 -12 38 -22 39 -50 50 -41 17 7 -28 -11 -25 -24 3 -9 19 -7 26 11 42
13 12 32 19 46 17 21 -3 22 -2 11 12 -17 20 -51 21 -51 1 0 -8 -5 -15 -10 -15
-6 0 -4 14 5 31 9 17 14 37 11 45 -3 7 2 18 12 23 15 9 15 11 -3 31 -14 16
-26 19 -49 14 -17 -3 -36 -12 -42 -20 -17 -22 -25 -17 -18 11 6 26 -4 33 -23
14 -12 -12 -6 -39 10 -50 5 -4 2 -17 -7 -31 -14 -22 -15 -29 -2 -59 15 -37 12
-52 -16 -62 -14 -5 -17 -28 -18 -191 -1 -173 1 -185 19 -198 14 -10 17 -18 10
-28 -15 -24 -10 -34 8 -18 24 20 117 25 110 6 -5 -14 -9 -14 -45 -3 -22 6 -22
5 -10 -14 14 -23 38 -27 55 -10 8 8 13 8 17 0 4 -6 16 -11 27 -11 13 0 24 -10
30 -29 5 -15 20 -34 32 -40 25 -13 43 -48 52 -99 3 -18 14 -41 25 -52 23 -23
26 -50 8 -68 -9 -9 -9 -12 0 -12 15 0 16 -36 1 -45 -6 -4 -19 2 -30 14 -16 17
-17 24 -7 40 16 27 0 75 -28 79 -15 2 -23 -6 -33 -34 -13 -37 -13 -38 17 -65
17 -16 28 -31 23 -34 -5 -2 -11 2 -15 10 -7 19 -26 19 -26 0 0 -8 -7 -15 -15
-15 -24 0 -17 -35 10 -56 l25 -19 -22 -8 c-18 -7 -27 -2 -48 23 -31 37 -42 38
-38 3 2 -22 9 -29 31 -31 28 -3 35 -16 17 -27 -6 -4 -17 -1 -26 5 -11 10 -24
10 -60 0 -44 -13 -47 -12 -64 10 -17 22 -17 25 -2 37 11 8 12 12 5 13 -7 0
-13 7 -13 15 0 8 -5 15 -11 15 -5 0 -7 5 -3 11 5 8 9 8 14 -1 6 -9 9 -9 15 0
4 6 18 15 31 20 22 9 23 12 12 30 -11 18 -10 23 6 36 11 8 21 22 22 32 2 9 6
33 10 52 12 60 11 73 -5 92 -20 24 -43 23 -66 -2 -21 -24 -40 -26 -31 -5 3 9
0 15 -9 15 -7 0 -16 8 -18 18 -7 26 -8 -1521 -1 -1556 5 -25 12 -31 40 -37 34
-6 43 -18 24 -30 -18 -11 -11 -35 12 -45 15 -5 18 -9 8 -10 -29 -4 -65 2 -78
12 -10 9 -12 -120 -12 -653 l0 -664 36 -53 c25 -35 43 -52 58 -52 20 -1 20 -1
3 -11 -14 -8 -23 -7 -35 4 -13 12 -20 12 -28 3 -11 -12 -7 -37 9 -47 5 -4 2
-17 -7 -31 -14 -22 -15 -29 -2 -59 15 -37 12 -52 -15 -61 -15 -6 -17 -30 -18
-191 -2 -158 0 -186 14 -197 11 -9 14 -22 10 -39 -6 -24 -5 -24 12 -10 22 19
116 24 110 6 -5 -13 -10 -13 -45 -2 -22 6 -22 5 -10 -15 9 -15 20 -20 38 -16
46 8 81 -5 91 -34 6 -15 20 -33 32 -39 25 -13 43 -48 52 -101 3 -19 15 -43 26
-53 22 -20 25 -47 7 -65 -9 -9 -9 -12 0 -12 15 0 16 -36 1 -46 -6 -3 -21 3
-32 15 -17 16 -19 23 -9 33 13 13 16 47 4 64 -4 6 -16 14 -27 18 -17 5 -23 0
-34 -31 -13 -36 -13 -37 19 -66 17 -15 29 -31 25 -35 -4 -4 -10 -1 -12 6 -7
17 -21 15 -45 -7 -25 -24 -20 -41 16 -61 22 -11 29 -12 35 -1 5 7 11 12 15 12
15 -2 16 0 6 21 -10 21 -10 21 3 6 18 -23 37 -23 37 -1 0 12 3 14 10 7 15 -15
1 -46 -17 -40 -8 3 -25 -5 -39 -19 -25 -25 -40 -33 -29 -15 3 5 -7 5 -25 -1
-16 -6 -30 -14 -30 -18 0 -4 -11 -13 -25 -19 -20 -9 -23 -9 -18 3 7 20 -42 20
-77 0 l-25 -14 50 -48 c50 -49 129 -93 197 -111 52 -14 1124 -16 1133 -2 3 5
2 10 -3 10 -15 0 -11 48 4 61 19 16 18 21 -11 55 l-24 28 24 26 c17 18 23 32
18 48 -6 23 12 31 20 10 4 -10 6 -10 6 0 1 6 6 12 11 12 6 0 10 -28 10 -64 0
-61 2 -65 36 -95 39 -35 37 -51 -6 -51 -17 0 -38 -9 -50 -22 l-21 -23 252 -3
c195 -2 254 1 261 10 6 10 8 10 8 1 0 -10 34 -13 131 -12 123 0 133 2 150 22
12 14 17 31 14 47 -5 21 -3 23 7 10 7 -8 20 -15 28 -15 10 0 16 -12 18 -32 l3
-33 135 0 134 0 -20 20 c-32 32 -24 49 26 55 14 1 30 10 37 18 11 15 36 19 87
16 8 0 38 2 65 6 62 7 82 -3 65 -35 -6 -12 -10 -31 -7 -41 4 -16 2 -17 -14 -9
-14 8 -25 6 -43 -5 -20 -13 -29 -14 -46 -5 -18 10 -25 9 -38 -4 -15 -15 17
-16 381 -16 243 0 396 4 392 9 -3 6 8 8 25 6 26 -4 30 -1 30 20 0 13 -6 26
-12 29 -7 3 1 3 17 -1 42 -8 45 -11 45 -39 l0 -24 204 0 c113 0 207 4 210 8 3
5 -5 19 -18 33 -13 14 -25 31 -28 39 -4 11 -9 7 -16 -11 -8 -21 -19 -28 -49
-31 -46 -6 -48 -5 -34 20 12 22 78 57 102 54 9 -2 26 9 38 24 25 31 48 26 57
-13 8 -35 22 -53 41 -53 8 0 34 -16 57 -35 l43 -35 302 0 c199 0 300 3 296 10
-3 6 0 10 8 10 8 0 18 7 21 17 6 14 10 13 34 -10 24 -23 37 -27 85 -27 63 0
69 9 37 50 -23 30 -25 53 -5 70 12 10 16 8 25 -14 10 -28 40 -36 40 -11 0 8 5
15 12 15 6 0 2 11 -10 23 -21 22 -21 26 -7 53 8 16 12 36 10 45 -4 13 0 16 22
13 16 -2 22 -1 15 2 -18 8 -4 24 15 17 13 -5 15 -2 10 11 -4 10 -7 20 -7 23 0
3 -6 0 -14 -6 -11 -9 -15 -8 -20 5 -7 18 31 55 52 51 8 -1 20 -19 27 -40 18
-51 31 -65 68 -69 29 -3 32 -7 35 -38 2 -19 8 -40 13 -46 5 -6 7 -18 4 -26 -7
-18 16 -40 32 -30 6 4 13 16 16 27 4 17 6 15 18 -13 14 -34 35 -45 26 -13 -5
22 39 53 51 35 4 -6 14 -13 22 -16 11 -4 15 -20 14 -62 l-1 -56 194 0 c217 0
199 -7 201 79 1 36 12 54 19 34 6 -18 23 -16 23 1 0 8 3 16 8 19 4 2 2 2 -5 1
-6 -2 -11 6 -10 16 1 14 5 16 13 9 9 -7 14 -4 19 10 8 25 14 26 43 5 12 -8 26
-13 31 -10 13 8 32 -19 25 -37 -3 -8 -1 -18 5 -22 19 -11 12 -41 -15 -66 l-27
-24 7 28 c3 15 9 38 12 52 4 15 2 25 -5 25 -6 0 -11 -7 -11 -17 0 -14 -2 -14
-20 2 -15 14 -23 15 -33 6 -8 -6 -17 -8 -20 -4 -7 6 -12 -43 -7 -62 2 -5 3
-18 4 -27 0 -16 12 -18 108 -18 77 0 108 3 108 12 0 9 3 9 12 0 9 -9 127 -12
473 -11 253 0 452 4 442 8 -25 9 -25 15 -3 40 12 13 23 18 30 12 11 -9 17 -11
35 -11 4 0 6 -11 3 -25 l-4 -25 96 0 96 0 0 34 c0 36 23 66 35 46 4 -6 13 -9
21 -6 10 4 14 0 12 -11 -2 -10 3 -18 10 -19 23 -3 24 -4 13 -17 -6 -8 -8 -17
-4 -20 12 -13 288 -8 301 5 9 9 12 9 12 0 0 -15 1175 -18 1185 -2 3 5 2 10 -3
10 -11 0 -7 46 5 63 15 20 14 57 -2 51 -24 -10 -29 35 -6 60 13 14 18 29 14
44 -3 13 -1 22 6 22 6 0 11 -4 11 -10 0 -5 5 -10 11 -10 5 0 7 5 4 10 -3 6 -1
10 4 10 11 0 16 -49 12 -99 -2 -25 43 -81 66 -81 7 0 13 -4 13 -9 0 -11 -25
-21 -54 -21 -12 0 -33 -11 -46 -25 l-23 -25 262 0 c172 0 260 3 256 10 -3 6
-1 10 4 10 6 0 11 -4 11 -10 0 -6 50 -9 126 -9 124 0 126 0 149 27 16 18 20
31 14 39 -7 7 -6 14 1 18 5 3 10 2 10 -3 0 -5 9 -12 19 -15 12 -3 21 -15 23
-33 l3 -29 140 -2 c87 -1 132 1 119 7 -43 17 -36 60 11 65 15 2 32 10 38 18
15 18 71 29 84 16 6 -6 20 -5 40 2 17 6 46 9 65 7 27 -2 32 -7 29 -23 -2 -11
-3 -32 -4 -47 0 -23 -2 -25 -18 -15 -14 9 -22 7 -38 -8 -18 -15 -25 -16 -48
-6 -22 10 -29 9 -42 -3 -14 -15 23 -16 382 -16 223 0 396 4 393 9 -3 4 9 8 26
7 35 -1 48 27 20 44 -13 8 -10 9 13 4 36 -8 46 -16 49 -40 3 -18 16 -19 209
-22 114 -1 207 1 207 5 0 5 -11 20 -23 34 -13 13 -26 31 -29 39 -4 11 -9 7
-17 -12 -7 -20 -18 -28 -35 -28 -13 0 -31 -3 -40 -6 -9 -3 -16 -1 -16 5 0 16
53 61 72 61 9 0 19 4 23 10 3 5 11 7 18 4 7 -2 24 7 37 21 32 34 47 32 55 -7
9 -41 22 -58 46 -58 10 0 35 -16 56 -35 l38 -35 299 0 299 0 23 27 c25 30 27
37 15 67 -7 18 -8 18 -24 -4 -9 -13 -18 -22 -20 -19 -1 2 -8 11 -15 20 -16 22
-5 48 25 60 28 10 63 -7 63 -32 0 -9 8 -20 18 -24 15 -6 15 -8 -5 -25 -28 -22
-29 -32 -5 -53 24 -22 120 -24 128 -3 3 8 -4 28 -17 45 -23 32 -20 61 7 61 9
0 18 -9 21 -20 3 -11 14 -20 24 -20 12 0 16 5 13 15 -4 8 -1 15 6 15 7 0 3 10
-8 25 -19 24 -19 28 -5 56 18 36 13 45 -16 27 -16 -10 -23 -10 -33 0 -6 6 -9
14 -5 18 6 6 62 8 87 2 10 -2 14 3 12 16 -3 14 1 17 13 12 13 -5 16 -2 11 10
-3 8 -6 17 -6 20 0 2 -6 1 -14 -2 -25 -10 -26 13 -1 36 25 24 55 22 55 -4 0
-29 42 -88 60 -83 26 7 50 -11 50 -38 0 -62 29 -73 54 -21 9 19 16 37 16 41 0
3 6 13 14 20 29 29 35 141 35 615 1 334 -2 470 -10 457 -6 -9 -15 -14 -21 -11
-6 4 -15 0 -20 -7 -16 -23 3 33 20 58 8 13 18 20 23 17 5 -3 9 521 9 1255 0
1211 -1 1261 -18 1270 -13 7 -27 6 -46 -5 -36 -18 -40 -18 -32 2 5 13 4 14 -7
5 -12 -9 -13 -7 -9 14 3 19 8 23 17 15 16 -13 48 15 39 33 -3 7 2 3 10 -7 9
-11 16 -26 16 -33 0 -25 18 -13 23 16 4 17 6 299 7 627 0 493 -2 595 -13 580
-11 -15 -15 -16 -25 -4 -15 18 6 70 26 63 10 -3 12 197 12 1003 0 866 -3 1014
-16 1058 -35 119 -125 219 -241 265 l-58 24 -780 3 c-467 1 -774 -2 -766 -7 8
-5 11 -16 8 -25 -6 -14 -9 -14 -37 2 -16 9 -30 20 -30 25 0 4 -214 7 -476 7
-475 0 -477 0 -495 -22 -11 -11 -19 -21 -19 -22 0 -1 14 -2 30 -3 24 -2 30 2
30 17 0 25 11 25 41 2 32 -27 19 -54 -23 -51 -49 3 -78 0 -77 -8 4 -24 -3 -43
-15 -43 -8 0 -16 -5 -18 -11 -2 -7 -12 -6 -28 3 -52 27 -52 28 -14 64 20 19
41 34 45 34 5 0 9 6 9 14 0 8 6 17 13 19 6 3 -194 6 -445 6 -350 1 -458 -2
-458 -11 0 -9 -3 -9 -12 0 -9 9 -75 12 -235 12 -205 0 -246 -5 -213 -25 6 -3
10 -17 10 -31 0 -20 -5 -25 -22 -24 -39 4 -48 1 -48 -15 0 -19 41 -37 54 -24
21 19 36 9 16 -11 -11 -11 -20 -25 -20 -31 0 -11 -105 -7 -116 4 -12 12 9 70
26 74 26 7 41 45 25 66 -11 15 -36 17 -224 17 l-212 0 5 -40 c2 -22 0 -43 -6
-46 -5 -3 -7 -13 -4 -21 4 -9 -1 -17 -14 -20 -22 -6 -24 -11 -11 -32 10 -16
39 -3 60 28 14 18 16 19 27 3 16 -21 18 -78 3 -88 -6 -3 -21 6 -33 20 -21 28
-21 28 -46 8 -14 -10 -33 -21 -42 -25 -14 -5 -16 -11 -9 -30 17 -45 -54 -74
-81 -33 -12 18 -9 31 4 18 17 -17 48 -15 48 2 0 8 -5 18 -11 21 -6 4 -8 13 -5
21 9 22 -24 34 -44 15 -52 -49 -69 -53 -118 -29 -16 9 -19 14 -10 20 10 6 10
8 0 8 -9 0 -11 7 -7 20 7 21 -9 28 -20 10 -5 -8 -11 -7 -21 1 -18 15 -18 29 1
56 16 23 50 21 41 -2 -7 -20 18 -48 40 -43 10 2 18 10 16 16 -3 17 63 15 77
-2 14 -17 59 -15 87 3 l21 14 -21 36 c-11 20 -30 44 -41 53 -17 15 -18 19 -5
28 10 6 -278 10 -882 10 -494 0 -898 -3 -898 -7 1 -14 71 -53 94 -53 45 0 86
-13 86 -26 0 -8 -5 -14 -11 -14 -20 0 1 -19 29 -24 21 -5 27 -13 29 -36 1 -17
0 -30 -2 -30 -20 0 -53 27 -62 51 -11 29 -36 39 -48 19 -3 -5 -11 -10 -16 -10
-6 0 -8 4 -5 8 2 4 -3 18 -13 31 -24 31 -78 32 -117 2 -16 -13 -30 -18 -32
-12 -2 6 -10 11 -17 11 -29 0 -25 23 8 55 l36 35 -1287 -1 c-708 0 -1281 -3
-1274 -6 14 -6 16 -29 2 -38 -9 -6 -18 0 -55 33 -10 9 -122 12 -485 12 -418 0
-473 -2 -487 -16 -14 -13 -14 -17 -2 -25 23 -15 39 -10 39 11 0 25 11 25 41 2
36 -30 20 -51 -40 -50 -57 2 -58 1 -63 -27 -4 -28 -38 -44 -63 -30 -46 24 -46
25 -9 61 20 19 41 34 45 34 5 0 9 6 9 14 0 8 6 17 13 19 6 3 -194 6 -445 6
-350 1 -458 -2 -458 -11 0 -9 -3 -9 -12 0 -9 9 -75 12 -236 12 -210 0 -224 -1
-217 -17 4 -10 10 -29 13 -42 5 -22 3 -24 -26 -18 -31 6 -60 -12 -48 -31 9
-15 55 -21 59 -8 2 6 7 8 11 4 4 -3 0 -18 -10 -33 -16 -24 -21 -26 -68 -21
-28 3 -52 5 -53 6 -2 0 -3 9 -3 21 0 28 18 59 34 59 16 0 29 41 20 64 -5 14
-34 16 -220 16 l-213 0 2 -42 c1 -26 -3 -43 -11 -46 -10 -3 -10 -7 -1 -18 10
-12 8 -16 -10 -21 -14 -4 -20 -11 -17 -20 3 -8 6 -17 6 -19 0 -12 24 -1 45 22
21 23 27 25 40 14 22 -18 16 -84 -7 -88 -11 -2 -18 3 -18 11 0 29 -25 38 -51
19 -13 -10 -32 -22 -42 -25 -13 -5 -17 -13 -12 -28 9 -28 -21 -61 -49 -53 -21
7 -36 22 -36 37 0 4 9 2 20 -5 25 -16 52 4 32 24 -7 7 -12 20 -12 29 0 29 -23
28 -58 -2 -53 -47 -122 -33 -116 24 3 28 -5 34 -22 17 -8 -8 -15 -6 -24 5 -10
12 -10 21 0 45 7 16 16 30 21 30 9 0 23 -20 24 -35 1 -5 5 -17 9 -26 9 -20 46
-14 46 7 0 18 64 19 79 1 16 -20 66 -19 85 2 14 15 14 20 -1 54 -10 20 -26 40
-36 43 -13 4 -17 12 -14 25 5 18 0 20 -55 18 -33 -1 -88 -12 -123 -24z m4540
-33 c-12 -13 -24 22 -12 37 10 12 13 11 15 -8 2 -13 1 -26 -3 -29z m7430 0
c-3 -4 -9 -1 -13 5 -5 8 -13 9 -22 3 -32 -20 -31 -9 1 13 32 22 34 22 37 4 2
-10 1 -22 -3 -25z m-7345 28 c11 -7 12 -14 4 -27 -18 -29 -41 -38 -58 -24 -21
17 -22 52 -1 45 8 -4 15 -1 15 5 0 13 20 14 40 1z m7434 -3 c16 -12 15 -14 -9
-37 -20 -19 -30 -22 -43 -14 -23 15 -30 59 -8 51 9 -4 16 -2 16 3 0 14 23 12
44 -3z m-11490 -18 c20 -12 36 -25 36 -29 0 -15 -24 -24 -53 -21 -15 1 -34 -3
-42 -9 -19 -16 -48 2 -50 30 -1 15 5 24 17 28 10 2 18 8 18 13 0 16 38 10 74
-12z m501 0 c0 -8 -10 -15 -22 -17 -13 -2 -23 2 -23 8 0 6 5 8 10 5 6 -3 10 1
10 10 0 9 6 15 13 13 6 -3 12 -11 12 -19z m3029 -5 c4 -14 4 -34 1 -44 -3 -9
-1 -30 5 -44 9 -24 8 -27 -9 -21 -19 6 -49 -20 -37 -32 3 -4 -2 -16 -13 -27
-10 -12 -21 -30 -23 -40 -5 -31 -48 -28 -82 5 -17 16 -26 29 -22 29 5 0 3 6
-3 14 -15 18 17 87 39 84 8 -1 26 4 40 9 14 6 33 14 44 17 11 4 16 12 12 21
-7 18 14 55 30 55 7 0 15 -12 18 -26z m3909 2 c38 -31 28 -57 -19 -49 -20 3
-40 1 -48 -6 -20 -17 -49 0 -51 29 -1 15 5 24 17 28 10 2 18 8 18 13 0 18 56
8 83 -15z m496 10 c9 -11 8 -15 -5 -20 -24 -9 -44 -7 -44 5 0 5 5 7 10 4 6 -3
10 1 10 9 0 20 14 21 29 2z m3025 -11 c4 -14 4 -36 0 -49 -3 -13 -1 -27 5 -30
20 -13 13 -38 -8 -31 -14 4 -23 0 -30 -13 -6 -11 -8 -21 -6 -24 3 -3 -4 -13
-15 -23 -11 -10 -20 -28 -20 -40 0 -19 -5 -22 -28 -21 -30 1 -59 24 -79 63
-10 20 -9 29 9 58 11 20 25 35 32 33 6 -1 22 3 36 9 14 6 33 14 44 17 10 4 16
12 13 20 -6 15 18 56 32 56 5 0 12 -11 15 -25z m-10531 -16 c15 -17 27 -32 27
-34 0 -1 -12 -5 -27 -8 -33 -6 -64 23 -56 53 7 28 24 25 56 -11z m745 19 c7
-7 12 -21 12 -31 0 -14 -4 -17 -17 -12 -10 4 -26 10 -35 12 -22 6 -24 23 -3
23 8 0 15 5 15 10 0 14 13 13 28 -2z m2756 0 c-3 -4 -9 -8 -15 -8 -5 0 -9 4
-9 8 0 5 7 9 15 9 8 0 12 -4 9 -9z m1556 3 c0 -6 -4 -13 -10 -16 -5 -3 -10 1
-10 9 0 9 5 16 10 16 6 0 10 -4 10 -9z m2362 -6 c7 -9 22 -25 33 -36 l20 -21
-20 3 c-11 2 -26 0 -33 -4 -16 -10 -42 15 -42 41 0 34 21 42 42 17z m768 -26
c0 -22 -4 -23 -33 -8 -32 17 -32 18 -11 33 22 17 44 4 44 -25z m-6218 1 c11
-10 14 -24 11 -42 -4 -23 -11 -28 -33 -28 -24 0 -28 5 -33 37 -4 20 -4 39 -2
43 7 12 38 6 57 -10z m7434 -1 c11 -12 14 -27 10 -44 -5 -20 -13 -25 -37 -25
-28 0 -31 3 -27 25 3 14 1 28 -4 31 -12 8 8 31 27 31 8 0 22 -8 31 -18z
m-7094 -3 c-3 -5 2 -7 11 -3 12 5 17 1 17 -12 0 -10 7 -21 15 -25 8 -3 15 -15
15 -26 0 -12 5 -30 11 -42 12 -23 2 -40 -11 -18 -5 8 -12 11 -17 7 -4 -4 8
-22 27 -40 20 -18 35 -27 37 -20 3 7 11 9 19 6 23 -9 16 -20 -16 -27 -17 -3
-42 -18 -55 -32 -21 -22 -27 -25 -40 -14 -8 7 -15 19 -15 26 0 23 -18 16 -60
-22 -21 -20 -44 -33 -49 -30 -5 3 -29 7 -53 8 -60 2 -82 25 -54 57 7 9 18 29
23 45 7 24 19 32 64 47 29 10 64 18 77 18 12 1 22 7 23 14 2 27 -3 63 -12 73
-12 14 -6 19 24 19 14 0 23 -4 19 -9z m2388 6 c0 -5 -11 -14 -25 -20 -29 -13
-33 -5 -7 14 20 15 32 18 32 6z m5050 -4 c0 -5 6 -7 13 -5 6 1 11 -4 9 -12 -1
-7 5 -19 14 -26 10 -7 18 -21 19 -31 1 -11 5 -30 10 -44 7 -22 6 -23 -9 -11
-32 26 -30 0 2 -30 31 -29 41 -49 23 -49 -4 0 -20 -12 -35 -26 -21 -22 -28
-24 -41 -14 -8 7 -15 19 -15 26 0 22 -13 17 -58 -22 -23 -19 -46 -33 -51 -30
-5 4 -29 7 -53 8 -58 2 -74 19 -54 55 9 16 20 39 25 53 6 19 21 28 57 38 27 8
58 17 69 20 11 3 26 5 33 4 17 -4 15 49 -3 74 -8 12 -13 23 -10 25 7 7 55 4
55 -3z m-6262 -27 c3 -8 -1 -12 -9 -9 -7 2 -15 10 -17 17 -3 8 1 12 9 9 7 -2
15 -10 17 -17z m7429 -7 c-9 -9 -28 6 -21 18 4 6 10 6 17 -1 6 -6 8 -13 4 -17z
m-10690 -16 c14 -11 6 -39 -11 -36 -23 4 -77 -14 -73 -25 2 -7 10 -12 18 -12
8 0 15 -10 17 -22 2 -13 10 -23 17 -23 8 0 26 -22 41 -50 15 -27 33 -50 40
-50 8 0 20 -15 27 -32 11 -26 20 -33 45 -35 37 -3 44 20 12 37 -19 10 -19 11
-1 29 16 16 26 18 61 10 24 -6 48 -6 58 0 23 12 73 16 96 6 11 -5 21 -3 26 5
12 19 22 -5 14 -35 -14 -56 -32 -54 596 -55 392 0 587 3 606 10 20 8 30 8 32
1 3 -8 296 -11 968 -11 l965 0 10 30 c12 34 33 38 61 13 19 -17 25 -39 8 -28
-6 3 -10 1 -10 -5 0 -7 166 -10 555 -9 540 1 555 1 555 20 0 25 26 24 47 -1
17 -20 30 -20 995 -20 l978 0 0 25 c0 18 9 28 34 40 19 9 41 13 47 9 7 -4 24
-8 37 -9 27 -1 42 -20 35 -46 -5 -18 4 -19 243 -19 174 1 244 4 231 11 -9 5
-17 16 -17 23 0 8 -7 19 -15 26 -8 7 -15 19 -15 26 0 8 -11 32 -25 54 -16 25
-21 41 -14 46 8 4 8 9 0 17 -13 13 14 47 36 47 7 0 13 4 13 10 0 5 7 7 16 3
13 -5 15 -2 9 16 -4 15 -2 23 9 27 22 9 67 -22 60 -41 -4 -8 -9 -13 -13 -10
-4 2 -24 -2 -43 -9 -26 -8 -34 -16 -29 -25 5 -7 12 -12 17 -11 5 0 10 -8 12
-20 2 -11 -1 -20 -7 -20 -6 0 -11 -5 -11 -12 0 -9 3 -9 12 0 21 21 36 13 67
-38 17 -27 35 -50 41 -50 5 0 16 -15 23 -32 12 -28 20 -33 50 -35 29 -2 35 0
30 12 -3 9 -14 20 -24 26 -18 9 -18 10 1 29 17 17 26 19 62 11 23 -5 49 -6 57
-1 22 11 73 14 95 5 11 -5 21 -3 26 5 11 18 23 -5 15 -30 -3 -10 -1 -28 5 -39
10 -20 22 -20 589 -21 385 0 588 3 606 10 19 7 30 7 35 1 4 -7 255 -11 720
-13 l715 -3 68 -32 c44 -21 88 -52 123 -88 30 -31 59 -53 64 -50 6 4 17 22 25
41 13 33 17 35 52 32 37 -3 38 -4 38 -45 0 -38 -2 -42 -28 -46 -26 -3 -28 -1
-22 21 4 17 2 23 -7 20 -7 -3 -13 -14 -13 -26 0 -12 -8 -27 -17 -34 -16 -12
-17 -17 -3 -61 11 -35 15 -110 16 -282 1 -212 3 -236 20 -251 10 -9 23 -13 28
-9 11 6 14 -5 11 -42 -1 -13 4 -23 11 -23 8 0 8 -4 -1 -15 -10 -13 -10 -19 4
-33 9 -10 16 -23 16 -29 0 -13 -51 -14 -67 -1 -7 6 -14 7 -15 2 -1 -5 -2 -145
-2 -311 -1 -236 2 -303 12 -303 6 0 12 4 12 9 0 11 42 23 93 26 26 2 37 -1 34
-9 -7 -17 20 -49 33 -41 8 5 8 11 1 19 -6 7 -8 16 -5 19 4 3 -1 13 -9 22 -16
15 -13 45 4 45 5 0 9 6 9 14 0 18 37 27 48 12 29 -36 33 -114 8 -132 -11 -8
-21 -26 -22 -41 -1 -20 -6 -27 -18 -25 -14 3 -15 -3 -10 -40 4 -24 8 -45 10
-47 2 -2 -1 -10 -7 -17 -6 -8 -9 -21 -5 -29 6 -17 2 -18 -43 -9 -31 7 -32 7
-30 60 2 55 -17 94 -48 94 -15 0 -17 16 -3 25 6 4 8 11 4 16 -4 6 -11 5 -20
-2 -11 -9 -18 -9 -26 -1 -7 7 -15 12 -18 12 -3 0 -6 -295 -6 -656 l0 -656 35
5 c20 3 42 6 50 8 23 7 23 -19 0 -42 l-22 -22 -18 21 c-9 12 -24 22 -33 22
-14 0 -16 -18 -12 -147 4 -117 8 -150 20 -157 13 -9 13 -11 0 -21 -13 -9 -16
-67 -21 -346 -3 -223 -2 -339 5 -343 6 -3 22 -7 36 -8 27 -2 28 -4 30 -55 1
-30 -2 -33 -28 -33 -21 0 -27 4 -22 15 3 8 2 15 -3 15 -18 0 -22 -76 -20 -356
l2 -286 32 -14 c27 -11 32 -17 28 -39 -4 -16 -1 -25 7 -25 10 0 10 -3 0 -15
-9 -11 -8 -19 4 -37 24 -34 20 -38 -27 -33 l-44 4 1 -304 c1 -237 4 -305 14
-305 6 0 12 4 12 9 0 9 56 25 80 23 32 -4 62 9 56 23 -3 8 1 21 9 29 8 8 15
19 15 25 0 6 11 11 24 11 18 0 27 -9 39 -42 19 -51 17 -76 -8 -95 -11 -7 -20
-26 -21 -41 -1 -19 -6 -26 -18 -24 -14 3 -15 -3 -10 -40 4 -24 8 -45 10 -47 2
-2 -1 -10 -7 -17 -6 -8 -9 -21 -5 -29 6 -17 2 -18 -43 -9 -31 7 -32 8 -30 53
3 53 -12 87 -42 96 -16 5 -18 10 -9 20 16 20 3 40 -16 24 -11 -9 -17 -9 -29 1
-8 7 -15 11 -16 9 0 -2 -2 -209 -4 -459 -3 -541 -4 -546 -108 -667 -25 -29
-47 -58 -49 -64 -2 -6 -15 -13 -28 -14 -66 -8 -140 -66 -140 -110 0 -10 -10
-15 -30 -15 -34 0 -34 1 -20 -34 11 -30 7 -32 -20 -9 -15 14 -17 20 -7 32 10
12 9 13 -13 1 -14 -8 -31 -13 -38 -12 -7 2 -22 -4 -34 -13 -28 -19 -44 -20
-28 0 18 21 3 35 -38 35 -33 0 -34 -1 -16 -14 10 -8 16 -18 12 -22 -11 -11
-38 16 -38 37 0 12 -10 23 -25 29 -22 8 -24 13 -15 30 11 20 9 20 -967 20
l-978 -1 -23 -35 c-12 -20 -20 -40 -16 -45 3 -5 -2 -9 -10 -9 -9 0 -16 4 -16
10 0 5 -6 7 -14 4 -16 -6 -29 35 -20 60 5 14 -12 16 -155 16 -110 0 -168 -4
-181 -12 -15 -10 -22 -10 -32 0 -9 9 -64 12 -197 12 l-186 0 -1 -25 c-1 -14
-7 -32 -14 -40 -14 -17 -46 -20 -55 -5 -3 5 -10 10 -15 10 -13 0 1 -32 19 -47
14 -11 12 -12 -10 -13 -21 0 -30 9 -48 43 -12 24 -19 50 -15 60 5 14 0 17 -34
17 -52 0 -72 -8 -72 -28 0 -13 -4 -11 -16 6 -12 17 -25 22 -62 22 -27 0 -57
-7 -70 -16 -20 -14 -22 -14 -22 0 0 13 -15 16 -85 16 -47 0 -85 -4 -85 -8 0
-19 25 -30 58 -25 32 6 35 4 30 -15 -6 -22 6 -30 17 -12 8 14 35 1 29 -15 -7
-17 -42 -26 -47 -11 -7 18 -19 0 -21 -31 -4 -48 -18 -83 -32 -83 -8 0 -14 -5
-14 -11 0 -6 -7 -8 -16 -5 -13 5 -14 1 -9 -23 5 -23 2 -32 -14 -40 -47 -25
-88 7 -71 55 5 12 10 48 12 80 3 39 8 58 16 56 7 -1 13 7 13 18 3 38 4 42 23
56 17 12 -13 14 -236 14 -248 0 -294 -5 -249 -29 16 -9 19 -21 19 -66 -1 -63
-11 -76 -40 -48 -17 18 -18 23 -7 41 9 15 10 29 4 48 -14 39 -38 38 -61 -3
l-19 -36 35 -28 c18 -16 30 -32 26 -36 -5 -5 -11 -2 -13 5 -7 18 -23 15 -44
-9 -19 -22 -15 -49 7 -49 8 0 14 -4 14 -10 0 -5 7 -10 15 -10 8 0 15 5 15 10
0 6 6 9 13 8 6 -2 11 3 9 10 -3 15 10 16 26 0 9 -9 12 -7 12 12 0 17 3 21 10
14 17 -17 0 -44 -26 -44 -13 0 -29 -9 -36 -20 -7 -11 -16 -20 -21 -20 -4 0 -5
4 -2 10 9 15 -43 -7 -62 -25 -12 -12 -18 -13 -29 -4 -13 11 -44 9 -91 -6 -17
-5 -24 -3 -30 11 -3 11 -11 22 -17 26 -7 5 -4 13 9 22 11 9 14 16 8 16 -7 0
-13 7 -13 15 0 8 -5 15 -11 15 -5 0 -7 5 -4 10 4 6 10 8 15 5 15 -10 74 25 62
37 -13 13 -3 48 14 48 10 0 14 13 14 40 l0 41 -102 -3 c-76 -2 -102 -6 -100
-15 1 -7 -2 -13 -8 -13 -5 0 -10 7 -10 15 0 23 -377 21 -402 -2 -15 -14 -19
-14 -33 1 -15 15 -60 16 -473 12 -540 -6 -532 -5 -532 -26 0 -8 -9 -21 -21
-28 -18 -12 -23 -11 -38 5 -9 10 -20 25 -23 34 -6 15 -67 16 -628 18 l-622 2
-24 -26 c-13 -14 -21 -32 -18 -40 5 -11 -2 -15 -25 -15 -35 0 -35 1 -21 -34 6
-17 6 -26 0 -26 -6 0 -10 5 -10 10 0 6 -7 10 -15 10 -18 0 -19 12 -3 28 8 8 8
12 1 12 -6 0 -16 -6 -23 -14 -6 -8 -17 -13 -25 -10 -7 3 -28 -2 -47 -12 -29
-15 -31 -15 -20 -1 20 23 6 37 -35 37 -35 0 -36 0 -18 -20 10 -11 14 -20 9
-20 -16 0 -34 23 -34 42 0 11 -11 23 -26 28 -19 8 -24 15 -19 30 6 20 2 20
-967 20 l-973 -1 -22 -35 c-13 -20 -23 -40 -23 -45 0 -5 -7 -9 -16 -9 -8 0
-12 4 -9 10 3 5 0 7 -8 4 -17 -6 -31 35 -21 60 5 14 -12 16 -155 16 -110 0
-168 -4 -181 -12 -15 -10 -22 -10 -32 0 -9 9 -64 12 -198 12 l-185 0 -1 -25
c-1 -14 -7 -32 -14 -40 -14 -17 -46 -20 -55 -5 -11 18 -23 11 -18 -10 3 -11 9
-20 14 -20 5 0 9 -4 9 -10 0 -5 -9 -10 -19 -10 -14 0 -28 16 -45 50 -14 27
-21 50 -16 50 6 0 10 5 10 10 0 11 -69 14 -94 4 -9 -3 -16 -14 -17 -23 0 -12
-3 -11 -16 6 -12 18 -25 23 -62 23 -26 0 -56 -7 -69 -16 -20 -14 -22 -14 -22
0 0 13 -15 16 -85 16 -47 0 -85 -4 -85 -8 0 -19 25 -30 58 -25 32 6 35 4 30
-15 -6 -22 7 -32 14 -10 3 8 9 8 22 1 17 -10 17 -11 -5 -26 -17 -13 -25 -14
-30 -5 -11 18 -20 5 -24 -34 -1 -18 -6 -41 -10 -51 -8 -19 -44 -43 -59 -39 -5
2 -6 -9 -4 -23 6 -31 -14 -55 -47 -55 -32 0 -48 30 -35 65 5 14 9 47 9 74 -2
52 6 75 22 66 5 -4 9 10 9 30 0 30 4 38 23 43 13 4 -13 9 -64 12 -72 4 -97 11
-152 39 -83 42 -149 111 -190 199 l-32 67 -3 400 c-2 337 -5 401 -17 408 -22
12 -19 40 3 33 13 -4 17 0 17 19 0 27 -5 31 -22 14 -18 -18 -33 -1 -33 37 0
19 2 34 4 34 2 0 11 3 20 6 13 5 16 -1 16 -27 0 -21 3 -28 8 -19 10 21 3 622
-7 615 -5 -2 -16 6 -25 20 -9 14 -12 26 -6 30 5 3 6 13 3 22 -5 13 -2 15 15
11 20 -6 22 -3 22 44 0 42 -3 49 -16 44 -9 -3 -20 -6 -25 -6 -6 0 -8 -9 -4
-19 4 -14 1 -20 -12 -23 -18 -3 -44 37 -57 87 -7 29 -46 35 -66 10 -16 -20
-30 -19 -47 3 -13 16 -13 15 -7 -7 5 -19 3 -23 -9 -18 -9 3 -18 1 -20 -6 -2
-7 -7 3 -11 20 -6 24 -13 33 -28 33 -13 0 -18 5 -15 14 3 7 1 18 -5 24 -25 25
23 43 60 23 25 -14 82 -21 82 -10 0 5 7 9 15 9 8 0 15 4 15 10 0 5 8 7 17 3
16 -5 16 -4 3 8 -9 8 -23 23 -30 33 -14 18 -13 19 5 12 11 -5 42 -14 70 -21
43 -10 51 -16 59 -43 5 -18 13 -32 17 -32 5 0 9 207 9 460 0 401 -2 460 -15
460 -8 0 -15 5 -15 11 0 6 7 9 15 5 13 -5 15 105 15 954 0 737 -3 959 -12 958
-6 -2 -14 5 -16 15 -3 15 1 18 15 13 14 -5 18 0 18 19 0 27 -5 31 -22 14 -17
-17 -33 -1 -33 32 0 30 22 64 34 52 3 -4 6 -20 6 -37 1 -20 3 -26 8 -16 4 8 6
151 4 318 -2 258 -5 302 -17 302 -8 0 -15 7 -15 15 0 8 -5 15 -11 15 -6 0 -7
5 -2 13 4 6 6 20 4 30 -2 16 1 17 18 7 20 -10 21 -8 21 40 0 33 -4 50 -12 50
-23 0 -39 -16 -33 -32 4 -11 0 -17 -12 -20 -18 -3 -44 36 -57 86 -8 31 -40 39
-62 15 -21 -24 -33 -24 -50 -1 -12 15 -12 15 -7 -7 5 -20 3 -23 -10 -18 -9 3
-18 1 -20 -6 -2 -7 -7 3 -11 21 -6 23 -13 32 -28 32 -15 0 -18 4 -14 17 4 9 1
20 -5 24 -6 4 -8 12 -5 18 8 13 62 15 70 2 10 -15 76 -19 76 -4 0 7 7 10 15 7
8 -4 15 -1 15 5 0 6 8 8 17 4 12 -4 9 3 -10 22 -15 15 -26 29 -24 31 1 2 21
-3 42 -11 22 -8 50 -14 63 -15 16 0 26 -9 33 -30 11 -30 29 -41 29 -17 5 250
3 367 -5 367 -6 0 -6 3 1 8 6 4 17 29 24 56 17 62 79 156 130 196 64 50 142
81 225 87 41 3 74 9 73 12 -3 27 7 42 38 57 27 13 38 14 43 5 4 -6 15 -9 24
-5 23 8 47 -13 47 -42 l0 -24 248 0 c173 1 242 4 230 11 -10 5 -18 16 -18 23
0 8 -7 19 -15 26 -8 7 -15 19 -15 26 0 8 -10 31 -22 52 -13 20 -23 47 -23 58
1 26 22 54 41 54 8 0 14 4 14 10 0 5 7 7 15 4 17 -7 21 11 4 22 -8 4 -7 9 2
15 15 9 46 3 66 -13z m2273 12 c0 -5 -7 -10 -16 -10 -8 0 -12 5 -9 10 3 6 10
10 16 10 5 0 9 -4 9 -10z m7430 0 c0 -5 -4 -10 -10 -10 -5 0 -10 5 -10 10 0 6
5 10 10 10 6 0 10 -4 10 -10z m-7110 -51 c41 -43 67 -117 46 -131 -7 -5 -7
-11 2 -20 17 -17 15 -35 -7 -57 -34 -34 -85 -8 -106 53 -6 16 -18 34 -29 40
-31 19 -76 63 -76 76 0 7 -7 10 -15 7 -8 -4 -17 -2 -20 3 -4 6 2 10 12 10 10
1 43 14 73 30 30 17 61 30 68 30 7 0 30 -19 52 -41z m7431 0 c38 -41 65 -114
48 -133 -5 -6 -2 -18 7 -27 15 -16 14 -20 -9 -43 -37 -37 -74 -22 -108 46 -11
22 -27 42 -35 45 -22 8 -74 59 -74 73 0 7 -7 10 -15 7 -8 -4 -17 -2 -20 3 -4
6 2 10 12 10 10 1 43 14 73 30 30 16 61 29 69 30 7 0 31 -18 52 -41z m-10646
11 c4 -6 -6 -10 -22 -10 -22 0 -25 2 -13 10 19 12 27 12 35 0z m7435 0 c0 -5
-12 -10 -27 -10 -22 0 -25 2 -13 10 20 13 40 13 40 0z m-1918 -52 c-13 -13
-24 5 -16 27 7 16 8 16 17 0 6 -11 6 -20 -1 -27z m-3692 16 c0 -3 -5 -15 -11
-26 -14 -27 7 -53 22 -26 6 10 17 15 27 12 14 -5 14 -3 -2 10 -19 15 -18 16
15 16 22 0 44 -9 63 -25 16 -14 32 -25 35 -25 13 0 7 -59 -5 -64 -9 -4 -14 2
-14 15 0 12 -5 19 -12 16 -7 -2 -12 -10 -10 -17 6 -27 -29 -49 -79 -48 -50 0
-79 16 -79 44 0 8 -4 14 -10 14 -5 0 -10 7 -10 15 0 8 4 15 10 15 5 0 14 18
20 40 6 24 17 40 25 40 8 0 15 -3 15 -6z m7430 0 c0 -3 -4 -13 -9 -23 -6 -10
-6 -23 0 -32 8 -12 11 -12 22 2 6 9 18 14 25 12 6 -3 12 0 12 5 0 6 -6 13 -12
15 -7 3 1 6 17 6 18 1 41 -9 59 -24 16 -14 32 -25 35 -25 13 0 7 -59 -5 -64
-9 -4 -14 2 -14 15 0 12 -5 19 -12 16 -7 -2 -12 -10 -10 -17 2 -7 -4 -21 -13
-30 -33 -37 -145 -17 -145 26 0 7 -5 14 -12 16 -8 3 -7 11 5 28 9 14 17 32 17
40 0 9 5 21 12 28 13 13 28 16 28 6z m-5440 -43 c0 -9 -5 -22 -12 -29 -9 -9
-9 -12 3 -13 7 0 1 -5 -16 -10 -16 -5 -38 -6 -47 -3 -19 6 -25 44 -8 44 6 0
19 9 30 20 22 22 50 17 50 -9z m7425 -14 c1 -31 -3 -36 -27 -41 -32 -6 -58 1
-58 17 0 15 62 68 74 64 6 -2 11 -20 11 -40z m-11701 18 c-4 -8 -8 -15 -10
-15 -2 0 -4 7 -4 15 0 8 4 15 10 15 5 0 7 -7 4 -15z m329 1 c29 -22 22 -63
-15 -86 -18 -11 -40 -17 -48 -14 -8 4 -23 7 -32 8 -10 0 -18 5 -18 11 0 5 -4
4 -9 -4 -8 -12 -12 -12 -25 -2 -9 8 -16 20 -16 28 0 22 30 27 44 7 12 -16 15
-15 31 20 12 24 21 33 25 25 4 -6 13 -8 19 -5 6 4 9 12 6 17 -9 14 17 10 38
-5z m7100 -1 c-3 -9 -8 -14 -10 -11 -3 3 -2 9 2 15 9 16 15 13 8 -4z m330 1
c38 -29 6 -99 -45 -97 -51 2 -68 6 -68 16 0 5 -5 3 -10 -5 -9 -13 -12 -13 -25
3 -14 20 -10 47 7 47 6 0 16 -8 23 -17 11 -15 14 -13 29 16 12 21 22 31 32 27
8 -3 17 1 20 9 7 18 14 18 37 1z m2987 -41 c0 -3 -9 -5 -20 -5 -11 0 -20 7
-20 15 0 13 4 14 20 5 11 -6 20 -13 20 -15z m-4290 -5 c0 -5 -2 -10 -4 -10 -3
0 -8 5 -11 10 -3 6 -1 10 4 10 6 0 11 -4 11 -10z m-2607 -75 c9 -20 17 -40 17
-45 0 -19 -32 -10 -37 10 -3 11 -12 20 -19 20 -17 0 -17 5 -2 30 17 27 22 26
41 -15z m7432 -5 c21 -46 12 -66 -15 -32 -10 12 -23 22 -29 22 -6 0 -11 5 -11
10 0 6 5 10 10 10 6 0 10 7 10 15 0 27 17 15 35 -25z m-8805 21 c0 -5 -7 -14
-15 -21 -13 -10 -15 -9 -15 9 0 12 6 21 15 21 8 0 15 -4 15 -9z m1433 -5 c6
-15 -1 -26 -15 -26 -4 0 -8 9 -8 20 0 23 15 27 23 6z m5997 5 c0 -5 -7 -14
-15 -21 -13 -10 -15 -9 -15 9 0 12 6 21 15 21 8 0 15 -4 15 -9z m1433 -5 c6
-16 -2 -28 -14 -20 -12 7 -11 34 0 34 5 0 11 -6 14 -14z m799 -33 c19 -17 25
-39 7 -28 -7 5 -9 -8 -6 -39 4 -51 0 -54 -34 -27 -13 10 -30 16 -36 14 -16 -6
-16 -6 3 50 17 50 35 59 66 30z m125 -205 c-3 -7 -5 -2 -5 12 0 14 2 19 5 13
2 -7 2 -19 0 -25z m-12415 -74 c-12 -8 -22 -24 -22 -35 0 -14 -5 -18 -22 -15
-13 3 -26 5 -30 5 -5 1 -8 8 -8 16 0 17 38 40 62 37 9 -2 19 2 23 8 4 6 10 9
13 5 3 -3 -4 -12 -16 -21z m12178 -59 c0 -3 -8 -5 -17 -4 -30 3 -32 0 -23 -31
9 -32 3 -70 -11 -70 -5 0 -9 8 -9 19 0 25 -26 47 -34 29 -3 -7 -3 -2 0 12 4
14 11 28 16 31 5 3 8 10 6 15 -1 5 6 19 16 31 l19 22 19 -24 c10 -13 18 -26
18 -30z m-12255 -15 c9 -10 27 -18 38 -17 11 1 22 -4 25 -12 3 -10 -1 -12 -17
-8 -30 7 -37 -11 -8 -22 33 -13 40 -45 15 -67 -16 -15 -23 -16 -38 -6 -11 7
-27 12 -35 12 -12 0 -15 14 -15 70 0 39 4 70 8 70 5 0 17 -9 27 -20z m12465
-4 c9 -2 16 -17 18 -39 3 -35 -3 -42 -30 -38 -13 2 -9 -16 7 -29 17 -14 20
-50 4 -50 -5 0 -8 -4 -4 -9 3 -6 -4 -15 -15 -21 -25 -13 -50 2 -50 29 0 9 -9
24 -20 34 -11 9 -20 25 -20 35 0 11 9 27 20 37 11 10 20 26 20 35 0 24 11 32
35 25 11 -3 27 -7 35 -9z m-12510 -537 c0 -6 -4 -7 -10 -4 -5 3 -10 11 -10 16
0 6 5 7 10 4 6 -3 10 -11 10 -16z m12382 -126 c9 -10 24 -24 33 -31 13 -11 13
-17 4 -28 -9 -11 -8 -23 5 -52 13 -29 15 -44 7 -64 -5 -14 -7 -29 -3 -33 4 -3
-7 -1 -23 5 -25 10 -31 8 -52 -14 -13 -15 -29 -23 -38 -20 -19 8 -19 20 4 68
21 44 18 62 -9 71 -9 3 -22 20 -27 38 -8 28 -6 35 16 54 31 27 61 29 83 6z
m138 -90 c0 -5 -10 -19 -21 -33 -15 -18 -19 -20 -15 -7 3 10 6 25 6 33 0 8 7
14 15 14 8 0 15 -3 15 -7z m-58 -108 c-2 -14 -6 -25 -8 -25 -2 0 -4 11 -4 25
0 14 4 25 9 25 4 0 6 -11 3 -25z m-41 -65 c10 -6 19 -16 19 -23 0 -11 -34 -47
-44 -47 -2 0 -6 18 -8 40 -4 42 1 47 33 30z m-12250 -110 c23 -13 24 -33 4
-64 -12 -18 -13 -29 -4 -57 7 -19 16 -40 22 -47 7 -9 4 -17 -9 -27 -12 -9 -20
-10 -23 -3 -2 6 3 14 10 19 8 5 10 9 4 9 -14 0 -36 50 -28 63 4 6 1 7 -7 2
-10 -6 -12 1 -8 33 3 23 2 42 -4 44 -11 4 1 38 14 38 5 0 18 -5 29 -10z
m12426 -614 c-9 -7 -17 -22 -17 -33 0 -10 -5 -24 -12 -31 -9 -9 -6 -12 15 -12
30 0 36 -14 10 -24 -10 -4 -28 2 -45 14 -22 16 -32 18 -47 10 -32 -17 -61 -12
-61 10 0 24 29 41 57 34 15 -4 23 0 28 16 5 16 10 19 20 10 10 -8 15 -8 22 3
9 15 35 27 43 20 3 -3 -3 -10 -13 -17z m-181 -211 c8 -31 3 -37 -36 -41 -35
-4 -34 -6 -14 34 19 39 41 41 50 7z m104 -36 c0 -4 -6 -12 -13 -18 -18 -15
-53 10 -44 32 5 13 10 14 31 4 14 -7 26 -15 26 -18z m-226 -65 c9 -23 8 -24
-14 -24 -11 0 -20 2 -20 4 0 12 13 36 20 36 4 0 11 -7 14 -16z m356 -96 c0
-22 -4 -29 -15 -25 -21 9 -28 -10 -8 -22 25 -14 9 -25 -40 -26 -54 -2 -77 10
-77 39 0 20 6 25 46 31 28 4 44 11 41 18 -2 7 3 17 12 24 22 16 41 -2 41 -39z
m-95 14 c-3 -3 -11 0 -18 7 -9 10 -8 11 6 5 10 -3 15 -9 12 -12z m-80 -403
c-8 -34 -41 -74 -50 -59 -3 5 0 12 6 15 5 4 8 13 5 20 -4 12 27 55 40 55 3 0
3 -14 -1 -31z m-12545 -63 c0 -3 -4 -8 -10 -11 -5 -3 -10 -1 -10 4 0 6 5 11
10 11 6 0 10 -2 10 -4z m12496 -153 c9 -27 38 -83 44 -84 3 -1 15 -3 26 -4 33
-3 44 -14 44 -41 0 -14 5 -34 11 -45 12 -24 -11 -69 -36 -69 -18 0 -19 -9 -1
-33 8 -10 20 -15 30 -11 9 3 16 1 16 -5 0 -6 -6 -11 -14 -11 -8 0 -22 -3 -32
-7 -12 -5 -15 -3 -9 6 6 10 3 11 -14 2 -18 -10 -22 -9 -28 5 -4 10 0 22 10 29
26 19 34 53 23 100 -10 43 -44 73 -67 60 -5 -4 -9 -1 -9 4 0 6 -7 11 -16 11
-11 0 -14 -6 -9 -20 9 -28 -3 -58 -26 -65 -14 -5 -18 -12 -14 -26 8 -23 -2
-42 -17 -33 -7 4 -6 9 2 14 9 6 7 13 -8 28 -20 20 -20 23 -5 52 18 37 13 46
-16 28 -16 -10 -23 -10 -33 0 -18 18 -3 25 51 25 39 0 48 3 43 15 -4 11 -1 14
11 9 19 -7 20 -6 11 17 -3 8 -12 12 -19 10 -24 -10 -27 16 -3 36 29 24 47 25
54 3z m-12213 -58 c-7 -21 -13 -19 -13 6 0 11 4 18 10 14 5 -3 7 -12 3 -20z
m12407 -75 c-6 -12 -14 -20 -16 -17 -3 3 -2 17 2 32 4 17 10 23 16 17 6 -6 6
-18 -2 -32z m-328 -102 c2 -17 10 -23 28 -23 20 0 26 -6 28 -28 3 -25 2 -26
-22 -18 -17 7 -26 7 -30 -2 -2 -7 -5 -4 -5 6 -1 9 -5 17 -9 17 -16 0 -31 47
-19 59 17 17 25 13 29 -11z m-12172 -82 c0 -3 -4 -8 -10 -11 -5 -3 -10 -1 -10
4 0 6 5 11 10 11 6 0 10 -2 10 -4z m20 -221 c11 -13 10 -14 -4 -9 -9 3 -16 10
-16 15 0 13 6 11 20 -6z m-7 -42 c10 -9 -13 -33 -31 -33 -8 0 -12 3 -9 7 4 3
2 12 -4 20 -9 10 -6 13 13 13 14 0 28 -3 31 -7z m32 -33 c-3 -5 -12 -10 -18
-10 -7 0 -6 4 3 10 19 12 23 12 15 0z m12247 -197 c19 -17 25 -39 7 -28 -7 5
-9 -8 -6 -39 4 -50 1 -54 -29 -31 -10 8 -27 15 -37 15 -20 0 -17 20 10 73 16
31 29 34 55 10z m125 -205 c-3 -8 -6 -5 -6 6 -1 11 2 17 5 13 3 -3 4 -12 1
-19z m-12417 -75 c-11 -8 -20 -23 -20 -34 0 -14 -5 -18 -22 -15 -13 3 -26 5
-30 5 -17 2 -7 30 12 36 11 3 20 9 20 13 0 4 14 7 30 8 29 1 29 0 10 -13z
m12180 -57 c0 -3 -12 -6 -26 -6 -22 0 -24 -3 -18 -22 7 -24 8 -32 6 -60 -3
-24 -22 -23 -22 1 0 10 -7 24 -15 31 -17 14 -20 40 -5 40 6 0 10 6 8 13 -1 6
6 22 16 34 l19 22 19 -24 c10 -13 18 -26 18 -29z m-12255 -16 c10 -11 23 -20
29 -19 23 3 36 -1 36 -11 0 -5 -12 -10 -27 -10 -22 0 -24 -2 -14 -12 6 -7 17
-13 24 -13 18 0 20 -50 2 -65 -13 -11 -20 -11 -39 0 -13 7 -29 9 -35 6 -8 -5
-11 16 -11 68 0 42 4 76 8 76 5 0 17 -9 27 -20z m12486 -22 c11 -17 -3 -56
-23 -65 -19 -8 -19 -10 -4 -25 18 -19 22 -48 5 -48 -5 0 -8 -4 -5 -9 9 -13
-21 -34 -39 -27 -8 3 -20 17 -25 31 -6 15 -17 33 -25 41 -20 21 -19 36 5 67
11 14 20 29 20 34 0 23 22 31 54 20 17 -5 34 -14 37 -19z m-12557 -130 c-17
-19 -17 -21 -1 -15 11 4 17 1 17 -8 0 -19 -34 -19 -50 0 -9 11 -9 15 -1 15 7
0 9 5 6 10 -3 6 4 14 17 19 31 12 35 5 12 -21z m26 -389 c0 -5 -4 -9 -10 -9
-5 0 -10 7 -10 16 0 8 5 12 10 9 6 -3 10 -10 10 -16z m12387 -134 c8 -8 19
-15 25 -15 6 0 8 -13 5 -32 -2 -19 2 -45 10 -61 11 -21 12 -36 5 -57 -6 -16
-8 -31 -5 -34 4 -3 0 -6 -8 -6 -8 0 -20 5 -27 12 -10 10 -18 7 -37 -14 -15
-16 -31 -25 -40 -22 -20 8 -19 22 5 66 21 41 18 64 -10 73 -10 3 -22 20 -25
36 -6 24 -2 36 16 55 25 27 58 26 86 -1z m133 -84 c0 -5 -9 -19 -21 -32 -16
-19 -19 -20 -15 -6 3 10 6 25 6 33 0 8 7 14 15 14 8 0 15 -4 15 -9z m-58 -106
c-2 -14 -6 -25 -8 -25 -2 0 -4 11 -4 25 0 14 4 25 9 25 4 0 6 -11 3 -25z m-41
-65 c25 -14 24 -31 -2 -53 -25 -22 -26 -21 -29 18 -3 51 -2 52 31 35z m-12257
-110 c30 -11 33 -30 11 -64 -14 -22 -14 -28 4 -75 19 -50 19 -51 0 -61 -20
-11 -28 3 -8 16 6 3 7 9 3 13 -17 12 -35 52 -28 63 5 7 2 8 -6 3 -10 -6 -12 1
-8 33 3 23 2 42 -4 44 -5 2 -6 11 -3 21 8 20 7 20 39 7z m-121 -529 c13 -11
16 -23 11 -47 -3 -18 -1 -34 5 -38 6 -4 11 -19 11 -32 0 -15 5 -24 11 -22 17
6 79 -58 79 -81 0 -10 6 -24 14 -30 19 -16 6 -55 -32 -97 -34 -39 -61 -50 -68
-26 -10 31 -29 67 -39 74 -19 14 -26 8 -15 -12 8 -16 8 -20 -4 -20 -30 0 -35
56 -6 65 11 4 18 10 15 14 -2 5 8 6 23 4 26 -4 26 -4 8 11 -25 20 -35 20 -42
1 -4 -8 -10 -15 -15 -15 -5 0 -2 14 6 31 9 17 14 36 12 42 -2 7 3 17 12 24 14
10 14 13 -3 32 -11 12 -25 21 -32 21 -10 0 -11 6 -5 22 5 15 2 32 -12 55 -15
26 -17 36 -7 48 12 15 32 8 73 -24z m12553 -93 c-9 -5 -16 -18 -16 -28 0 -10
-4 -22 -10 -25 -20 -13 -10 -27 15 -21 15 4 25 2 25 -4 0 -21 -32 -22 -58 -3
-19 14 -33 18 -47 12 -36 -14 -65 -10 -65 9 0 25 36 45 59 32 16 -8 20 -5 25
16 6 21 10 23 21 14 10 -8 15 -8 22 3 10 18 37 27 42 14 2 -5 -4 -14 -13 -19z
m-12666 -38 c0 -5 -4 -10 -10 -10 -5 0 -10 5 -10 10 0 6 5 10 10 10 6 0 10 -4
10 -10z m12484 -166 c9 -33 -4 -47 -36 -42 -24 3 -24 4 -11 36 16 39 38 42 47
6z m90 -28 c18 -6 18 -8 3 -24 -16 -15 -18 -15 -33 0 -10 10 -14 23 -10 34 4
11 10 14 14 8 4 -6 16 -14 26 -18z m-210 -96 c-14 -14 -36 4 -28 24 6 16 8 16
22 2 11 -10 13 -19 6 -26z m356 -71 c0 -23 -4 -29 -22 -29 -22 -1 -22 -1 -4
-15 26 -20 15 -28 -42 -31 -53 -2 -72 8 -72 41 0 19 7 24 46 30 28 4 44 11 41
18 -2 7 3 17 12 24 22 16 41 -2 41 -38z m-13 -364 c0 -8 -4 -12 -9 -9 -4 3 -8
9 -8 15 0 5 4 9 8 9 5 0 9 -7 9 -15z m-162 -26 c-8 -34 -41 -74 -50 -59 -3 5
0 12 6 15 5 4 8 13 5 21 -3 8 -1 14 4 14 6 0 10 6 10 14 0 12 10 21 28 25 2 1
1 -13 -3 -30z m-7655 -140 c0 -5 -9 -18 -20 -29 l-21 -21 -28 23 -27 23 40 11
c43 11 56 9 56 -7z m-1698 -49 c5 -47 4 -56 -14 -72 -11 -10 -25 -15 -30 -12
-5 3 -16 0 -24 -7 -13 -10 -17 -10 -25 2 -11 18 -11 26 1 34 6 4 8 11 4 16 -4
6 -10 7 -17 0 -16 -13 -51 13 -44 32 4 10 17 13 46 10 33 -3 43 0 48 14 21 60
46 53 55 -17z m2368 56 c0 -2 -11 -6 -25 -8 -13 -3 -22 -1 -19 3 5 9 44 13 44
5z m5062 -55 c7 -57 -11 -95 -39 -84 -7 3 -19 0 -27 -6 -10 -9 -17 -7 -27 5
-10 13 -10 17 2 24 11 7 11 12 1 22 -9 9 -12 9 -12 0 0 -16 -11 -15 -34 3 -27
21 -8 39 39 37 26 -1 38 3 42 16 21 59 46 51 55 -17z m1698 45 c0 -8 -10 -22
-22 -31 -21 -15 -24 -14 -40 5 -9 11 -22 21 -30 21 -17 2 40 16 70 18 13 1 22
-5 22 -13z m-6823 -2 c-3 -3 -12 -4 -19 -1 -8 3 -5 6 6 6 11 1 17 -2 13 -5z
m-3869 -96 c-3 -44 -1 -48 20 -48 12 0 22 -4 22 -9 0 -13 -34 -24 -38 -12 -2
6 -12 11 -22 11 -22 0 -64 64 -57 84 3 8 -1 17 -9 20 -8 3 -14 10 -14 17 0 6
6 9 14 6 8 -3 20 1 27 9 10 13 15 12 36 -8 21 -19 24 -31 21 -70z m3752 88 c0
-3 -4 -8 -10 -11 -5 -3 -10 -1 -10 4 0 6 5 11 10 11 6 0 10 -2 10 -4z m2270
-6 c0 -5 -2 -10 -4 -10 -3 0 -8 5 -11 10 -3 6 -1 10 4 10 6 0 11 -4 11 -10z
m-5145 -10 c3 -5 2 -10 -4 -10 -5 0 -13 5 -16 10 -3 6 -2 10 4 10 5 0 13 -4
16 -10z m1072 -47 c-15 -21 -47 -15 -56 10 -7 18 -5 24 17 33 23 10 28 9 38
-10 7 -13 7 -25 1 -33z m5470 35 c18 -20 20 -30 14 -65 -8 -41 -7 -43 15 -43
13 0 24 -4 24 -9 0 -13 -34 -24 -38 -12 -2 6 -11 11 -20 11 -22 0 -64 62 -57
82 4 9 0 18 -9 21 -9 4 -16 11 -16 18 0 6 7 9 15 6 8 -4 17 -2 20 3 10 16 30
11 52 -12z m888 12 c3 -5 2 -10 -4 -10 -5 0 -13 5 -16 10 -3 6 -2 10 4 10 5 0
13 -4 16 -10z m1076 -17 c7 -20 6 -28 -3 -35 -24 -14 -49 -8 -57 15 -7 18 -4
24 18 34 14 6 27 12 29 12 1 1 7 -11 13 -26z m-5317 1 c3 -8 2 -12 -4 -9 -6 3
-10 10 -10 16 0 14 7 11 14 -7z m-3119 -16 c27 -12 32 -24 13 -31 -9 -3 -7 -7
5 -12 11 -5 25 -1 37 10 21 19 19 21 35 -30 5 -16 -34 -62 -49 -57 -5 2 -6 -3
-3 -11 3 -8 1 -20 -4 -28 -8 -12 -10 -12 -19 1 -16 24 -12 40 14 50 26 9 44
30 27 30 -5 0 -13 -4 -16 -10 -13 -20 -36 -9 -61 31 -14 22 -23 47 -20 55 7
17 8 17 41 2z m7452 -26 c-9 -2 -15 -8 -12 -13 10 -15 42 -10 49 7 8 21 23 10
29 -22 5 -26 -27 -73 -46 -66 -5 1 -6 -2 -3 -7 3 -5 3 -16 0 -25 -5 -13 -9
-14 -20 -5 -24 19 -16 38 23 54 20 8 33 18 30 22 -4 3 -18 0 -32 -7 -22 -12
-26 -11 -44 11 -11 13 -26 34 -32 47 -19 34 5 46 45 24 24 -13 27 -17 13 -20z
m-3967 18 c0 -5 -2 -10 -4 -10 -3 0 -8 5 -11 10 -3 6 -1 10 4 10 6 0 11 -4 11
-10z m191 -43 c-6 -6 -11 -21 -11 -34 0 -16 -11 -28 -41 -44 -35 -17 -45 -19
-70 -9 -16 7 -29 16 -29 21 0 5 -10 9 -22 9 -17 0 -19 3 -9 9 10 6 11 13 2 29
-10 19 -8 20 17 17 15 -1 26 -7 25 -12 -2 -12 37 -14 59 -2 10 5 18 16 18 24
0 18 5 18 33 4 12 -7 19 -8 15 -4 -4 4 -2 17 5 29 12 21 12 21 15 -3 2 -13 -1
-28 -7 -34z m1109 43 c0 -5 -5 -10 -11 -10 -5 0 -7 5 -4 10 3 6 8 10 11 10 2
0 4 -4 4 -10z m595 -8 c-3 -3 -11 0 -18 7 -9 10 -8 11 6 5 10 -3 15 -9 12 -12z
m-2301 -11 c3 -5 -1 -12 -10 -15 -20 -8 -29 -1 -19 13 8 13 22 14 29 2z m1566
-26 c0 -2 -10 -10 -22 -16 -21 -11 -22 -11 -9 4 13 16 31 23 31 12z m-90 -29
c0 -3 -4 -8 -10 -11 -5 -3 -10 -1 -10 4 0 6 5 11 10 11 6 0 10 -2 10 -4z
m-4380 -31 c0 -17 25 -20 35 -5 12 20 26 9 23 -17 -4 -39 -57 -49 -104 -21
-28 17 -32 23 -22 35 6 8 20 12 30 10 10 -3 18 -1 18 4 0 5 5 9 10 9 6 0 10
-7 10 -15z m2207 -10 c-8 -19 -47 -20 -47 -1 0 8 10 16 23 18 28 5 31 3 24
-17z m5254 3 c21 19 31 14 27 -15 -4 -39 -48 -48 -100 -22 -33 17 -38 23 -27
35 7 9 21 13 31 11 10 -3 21 -1 24 5 3 5 12 1 19 -9 11 -14 16 -16 26 -5z
m-8477 -4 c8 -20 8 -88 0 -108 -5 -12 -10 -13 -25 -5 -10 5 -19 16 -19 24 0 7
-11 22 -25 33 -31 24 -31 36 -3 56 29 20 64 20 72 0z m3533 0 c2 -5 -3 -19
-11 -29 -14 -19 -15 -18 -13 12 2 30 16 40 24 17z m3903 -45 c6 -63 -6 -84
-33 -64 -9 7 -17 17 -17 23 0 6 -12 23 -27 37 l-28 26 24 20 c14 11 35 19 50
17 24 -3 26 -8 31 -59z m-3129 18 c-8 -8 -11 -7 -11 4 0 20 13 34 18 19 3 -7
-1 -17 -7 -23z m-5681 13 c0 -5 -2 -10 -4 -10 -3 0 -8 5 -11 10 -3 6 -1 10 4
10 6 0 11 -4 11 -10z m1525 -18 c-3 -3 -11 0 -18 7 -9 10 -8 11 6 5 10 -3 15
-9 12 -12z m5935 14 c0 -3 -4 -8 -10 -11 -5 -3 -10 -1 -10 4 0 6 5 11 10 11 6
0 10 -2 10 -4z m-5756 -32 c3 -8 0 -14 -7 -15 -7 0 -22 -2 -34 -5 -27 -5 -29
3 -7 27 17 19 39 16 48 -7z m3506 16 c0 -5 -2 -10 -4 -10 -3 0 -8 5 -11 10 -3
6 -1 10 4 10 6 0 11 -4 11 -10z m203 -4 c4 -10 1 -13 -9 -9 -10 4 -14 -2 -14
-22 0 -15 -5 -25 -11 -23 -6 2 -10 7 -10 11 1 4 1 18 1 32 0 18 5 25 19 25 10
0 21 -7 24 -14z m327 5 c0 -6 -4 -13 -10 -16 -5 -3 -10 1 -10 9 0 9 5 16 10
16 6 0 10 -4 10 -9z m3389 -10 l21 -19 -22 -5 c-13 -4 -26 -1 -30 6 -5 8 -8 5
-8 -8 0 -14 -3 -16 -12 -7 -9 9 -7 16 7 32 22 24 17 24 44 1z m-8945 -20 c14
-12 14 -16 -5 -42 -16 -23 -17 -29 -5 -29 26 0 26 -16 -2 -49 l-27 -33 -13 36
c-8 20 -17 34 -21 32 -10 -7 -2 54 11 81 12 24 36 25 62 4z m6513 -3 c-3 -8
-6 -5 -6 6 -1 11 2 17 5 13 3 -3 4 -12 1 -19z m920 0 c15 -17 15 -19 0 -36
-21 -23 -21 -32 -1 -32 9 0 14 -3 12 -7 -24 -49 -33 -63 -44 -67 -8 -3 -13 -2
-12 2 1 4 -4 18 -11 31 -45 80 1 169 56 109z m-2733 4 c3 -5 -1 -9 -9 -9 -8 0
-15 4 -15 9 0 10 17 10 24 0z m-4819 -12 c3 -6 -1 -7 -9 -4 -18 7 -21 14 -7
14 6 0 13 -4 16 -10z m1715 -12 c0 -6 7 -8 15 -4 20 7 19 -8 -1 -39 -17 -25
-48 -33 -59 -15 -4 6 -10 8 -14 6 -11 -7 0 58 11 65 14 9 48 -1 48 -13z m2637
-5 c10 -16 24 -33 32 -39 12 -10 11 -13 -8 -24 -25 -13 -40 -2 -41 30 -1 11
-7 8 -21 -9 -19 -23 -20 -23 -34 -5 -20 27 -18 40 7 58 32 22 45 20 65 -11z
m4798 8 c6 -3 13 -6 17 -6 17 0 15 -13 -6 -39 -18 -24 -27 -28 -49 -22 -21 5
-27 12 -27 34 0 46 23 57 65 33z m-3238 -20 c-3 -13 1 -21 12 -24 15 -4 15 -5
0 -6 -9 0 -27 8 -40 19 -15 12 -17 18 -8 14 10 -3 20 -1 24 5 10 18 18 13 12
-8z m-6117 -16 c-7 -9 -15 -13 -19 -10 -3 3 1 10 9 15 21 14 24 12 10 -5z
m6255 5 c-3 -5 -12 -10 -18 -10 -7 0 -6 4 3 10 19 12 23 12 15 0z m662 -9 c0
-11 -5 -18 -9 -15 -4 3 -5 11 -1 19 7 21 12 19 10 -4z m-1632 -1 c3 -5 2 -10
-4 -10 -5 0 -13 5 -16 10 -3 6 -2 10 4 10 5 0 13 -4 16 -10z m367 -46 c-5 -27
-27 -32 -36 -9 -3 8 0 14 7 12 8 -1 11 9 9 28 -3 28 -2 29 11 11 7 -10 12 -29
9 -42z m1778 52 c0 -3 -4 -8 -10 -11 -5 -3 -10 -1 -10 4 0 6 5 11 10 11 6 0
10 -2 10 -4z m-1547 -41 c-7 -21 -13 -19 -13 6 0 11 4 18 10 14 5 -3 7 -12 3
-20z m291 17 c2 -4 1 -14 -3 -21 -6 -9 -10 -7 -14 8 -5 20 7 29 17 13z m529
-43 c7 -24 -7 -33 -32 -20 -25 14 -17 51 9 44 10 -3 20 -13 23 -24z m-5187 -6
c-10 -10 -19 5 -10 18 6 11 8 11 12 0 2 -7 1 -15 -2 -18z m5995 10 c13 -17 13
-17 -6 -3 -11 8 -22 16 -24 17 -2 2 0 3 6 3 6 0 17 -8 24 -17z m1439 1 c0 -8
-5 -12 -10 -9 -6 4 -8 11 -5 16 9 14 15 11 15 -7z m-7076 -9 c-4 -8 -10 -12
-15 -9 -11 6 -2 24 11 24 5 0 7 -7 4 -15z m7430 0 c-4 -8 -10 -12 -15 -9 -11
6 -2 24 11 24 5 0 7 -7 4 -15z"/>
<path d="M1747 7170 c-45 -28 -43 -30 25 -30 60 0 65 2 63 21 -2 28 -49 33
-88 9z"/>
<path d="M9177 7171 c-45 -29 -43 -31 25 -31 60 0 65 2 64 21 -1 29 -51 34
-89 10z"/>
<path d="M6970 6438 c-55 -84 -100 -159 -100 -165 0 -10 31 -13 124 -13 l124
0 186 151 c102 83 186 157 186 165 0 12 -36 14 -210 14 l-211 0 -99 -152z"/>
<path d="M4830 6454 c-247 -43 -374 -136 -441 -325 -23 -63 -24 -72 -27 -562
-4 -572 1 -637 52 -742 87 -177 257 -266 506 -266 283 0 467 119 537 346 16
55 18 104 18 595 0 583 -1 594 -58 702 -59 114 -170 196 -312 233 -60 16 -228
27 -275 19z m132 -356 c10 -18 13 -147 13 -594 0 -548 -1 -573 -19 -593 -11
-12 -29 -21 -41 -21 -50 0 -50 -4 -53 564 -3 552 -1 626 24 651 23 22 61 19
76 -7z"/>
<path d="M3226 6412 c-3 -5 69 -264 160 -576 l164 -568 0 -326 c0 -180 4 -333
8 -340 7 -9 60 -12 233 -10 l224 3 6 345 6 345 171 560 c94 307 168 563 166
567 -3 4 -106 8 -230 8 -224 0 -225 0 -233 -22 -4 -13 -29 -133 -55 -268 -26
-135 -49 -256 -53 -270 -4 -17 -10 3 -19 65 -19 127 -84 477 -90 487 -7 10
-451 11 -458 0z"/>
<path d="M5574 6405 c-3 -8 -4 -340 -1 -737 5 -774 4 -764 56 -867 51 -100
172 -184 318 -222 91 -23 268 -27 360 -9 149 30 274 126 335 255 27 59 31 81
39 203 10 176 11 1363 1 1380 -7 9 -64 12 -253 10 l-244 -3 -5 -746 c-5 -785
-5 -779 -49 -779 -48 1 -46 -32 -51 772 l-5 753 -248 3 c-212 2 -248 0 -253
-13z"/>
<path d="M7515 6409 c-3 -8 -4 -419 -3 -914 l3 -900 248 -3 247 -2 0 405 0
405 25 0 c36 0 72 -20 80 -44 4 -11 10 -187 14 -391 l6 -370 230 0 230 0 0
370 c-1 353 -2 372 -21 416 -29 61 -75 112 -124 134 -41 19 -52 35 -23 35 25
0 98 46 116 73 37 56 51 138 51 287 0 299 -84 439 -290 486 -98 22 -781 33
-789 13z m589 -359 c19 -19 21 -33 21 -155 0 -152 -8 -171 -75 -177 l-35 -3
-3 184 -2 184 37 -6 c20 -4 46 -16 57 -27z"/>
<path d="M8705 6408 c-3 -7 -4 -418 -3 -913 l3 -900 420 0 420 0 3 193 2 192
-170 0 -170 0 0 185 0 185 145 0 145 0 -2 183 -3 182 -142 3 -143 3 0 154 0
155 155 0 155 0 -2 193 -3 192 -403 3 c-317 2 -404 0 -407 -10z"/>
<path d="M12400 5580 c0 -5 5 -10 10 -10 6 0 10 5 10 10 0 6 -4 10 -10 10 -5
0 -10 -4 -10 -10z"/>
<path d="M2122 4302 c-10 -7 -12 -323 -10 -1548 l3 -1539 415 0 415 0 3 643 2
643 103 -3 102 -3 3 -642 2 -643 414 0 c267 0 416 4 418 10 2 5 1 702 -2 1547
l-5 1538 -390 3 c-214 1 -400 0 -412 -3 l-23 -5 0 -545 0 -545 -105 0 -105 0
0 538 c0 405 -3 541 -12 550 -14 14 -794 17 -816 4z"/>
<path d="M4223 4303 c-10 -4 -13 -323 -13 -1549 l0 -1544 414 0 c368 0 415 2
420 16 3 9 6 701 6 1538 0 1170 -3 1525 -12 1534 -9 9 -112 12 -407 11 -218 0
-402 -3 -408 -6z"/>
<path d="M5272 4303 c-10 -7 -12 -324 -10 -1549 l3 -1539 415 0 415 0 3 689 2
689 55 -6 c31 -3 70 -14 88 -24 60 -35 60 -41 66 -728 l6 -620 385 0 385 0 3
540 c4 727 -1 769 -108 904 -48 61 -83 86 -178 127 -43 19 -70 35 -62 38 8 3
35 10 60 17 102 26 194 97 228 177 72 167 83 570 21 809 -29 117 -75 199 -155
280 -116 119 -225 160 -484 183 -159 14 -1121 25 -1138 13z m965 -579 c60 -29
68 -63 68 -299 0 -280 -11 -303 -148 -320 l-57 -7 0 327 0 328 52 -7 c29 -4
67 -14 85 -22z"/>
<path d="M7301 4296 c-8 -10 -10 -422 -9 -1547 l3 -1534 713 -3 712 -2 -2 322
-3 323 -292 3 -293 2 0 320 0 320 250 0 250 0 0 305 0 305 -250 0 -250 0 0
275 0 275 268 2 267 3 3 314 c2 245 -1 316 -10 323 -7 4 -313 8 -679 8 -549 0
-669 -2 -678 -14z"/>
<path d="M8851 4296 c-8 -10 -10 -422 -9 -1547 l3 -1534 575 -3 c612 -3 797 4
922 39 152 42 258 119 316 227 79 149 85 241 79 1337 -5 1002 -4 984 -78 1133
-57 117 -130 187 -251 246 -103 49 -178 70 -312 86 -137 17 -517 29 -892 30
-276 0 -344 -3 -353 -14z m979 -571 c16 -9 38 -27 47 -42 17 -25 18 -84 21
-848 3 -830 -1 -953 -33 -1002 -25 -37 -60 -54 -125 -60 l-60 -6 0 993 0 993
60 -6 c33 -4 74 -14 90 -22z"/>
<path d="M12440 1765 c-10 -11 -9 -18 4 -30 9 -9 21 -13 27 -10 7 5 7 11 1 17
-6 6 -8 17 -5 24 7 19 -11 18 -27 -1z"/>
<path d="M12400 1750 c0 -5 5 -10 11 -10 5 0 7 5 4 10 -3 6 -8 10 -11 10 -2 0
-4 -4 -4 -10z"/>
<path d="M4294 459 c-3 -6 2 -20 13 -31 27 -26 168 -36 158 -11 -3 9 2 24 11
34 17 18 14 19 -79 19 -59 0 -98 -4 -103 -11z"/>
<path d="M7615 460 c3 -5 10 -10 16 -10 5 0 9 5 9 10 0 6 -7 10 -16 10 -8 0
-12 -4 -9 -10z"/>
<path d="M11725 459 c-21 -34 99 -73 155 -50 14 5 21 10 16 10 -4 1 -1 12 8
26 l16 25 -94 0 c-56 0 -97 -4 -101 -11z"/>
<path d="M7586 384 c-4 -10 -1 -14 6 -12 15 5 23 28 10 28 -5 0 -13 -7 -16
-16z"/>
<path d="M774 315 c-5 -13 16 -45 29 -45 12 0 16 34 6 46 -15 18 -28 18 -35
-1z"/>
<path d="M8205 320 c-6 -10 15 -50 26 -50 14 0 19 33 8 46 -13 16 -25 18 -34
4z"/>
<path d="M7587 260 c-3 -11 1 -24 9 -31 20 -17 30 16 11 35 -13 14 -15 13 -20
-4z"/>
<path d="M4053 7375 c0 -14 3 -25 8 -25 5 0 9 11 9 25 0 14 -4 25 -9 25 -5 0
-8 -11 -8 -25z"/>
<path d="M4096 7265 c4 -8 10 -15 15 -15 5 0 9 7 9 15 0 8 -7 15 -15 15 -9 0
-12 -6 -9 -15z"/>
<path d="M11489 7400 c0 -3 -2 -13 -4 -22 -2 -10 0 -20 5 -23 12 -8 22 27 10
39 -5 5 -10 8 -11 6z"/>
<path d="M11530 7265 c0 -8 5 -15 10 -15 6 0 10 7 10 15 0 8 -4 15 -10 15 -5
0 -10 -7 -10 -15z"/>
<path d="M2723 7260 c0 -19 4 -27 11 -22 6 4 16 7 21 7 19 0 10 28 -11 35 -18
7 -21 4 -21 -20z"/>
<path d="M10255 7290 c-3 -5 -1 -10 4 -10 6 0 11 5 11 10 0 6 -2 10 -4 10 -3
0 -8 -4 -11 -10z"/>
<path d="M10150 7280 c0 -5 5 -10 12 -10 9 0 9 -3 0 -12 -17 -17 -15 -33 3
-18 8 7 15 9 15 4 0 -4 6 -2 13 5 10 10 8 15 -7 27 -23 16 -36 18 -36 4z"/>
<path d="M690 7289 c0 -5 5 -7 10 -4 6 3 10 8 10 11 0 2 -4 4 -10 4 -5 0 -10
-5 -10 -11z"/>
<path d="M8127 7293 c-4 -3 -7 -11 -7 -17 0 -6 5 -5 12 2 6 6 9 14 7 17 -3 3
-9 2 -12 -2z"/>
<path d="M12585 6700 c3 -5 8 -10 11 -10 2 0 4 5 4 10 0 6 -5 10 -11 10 -5 0
-7 -4 -4 -10z"/>
<path d="M94 4459 c-11 -18 11 -32 25 -16 9 12 8 16 -3 20 -9 4 -18 1 -22 -4z"/>
<path d="M173 4341 l-22 -18 24 -23 c14 -13 28 -20 32 -17 3 4 -2 14 -13 23
-18 15 -18 15 7 10 34 -7 43 3 22 26 -20 22 -22 22 -50 -1z"/>
<path d="M155 4219 c-4 -6 -5 -13 -2 -16 7 -7 27 6 27 18 0 12 -17 12 -25 -2z"/>
<path d="M95 621 c-10 -17 12 -21 25 -6 10 12 10 15 -3 15 -9 0 -18 -4 -22 -9z"/>
<path d="M0 494 c0 -56 3 -122 6 -147 6 -42 9 -45 33 -43 14 1 25 7 24 13 -1
6 6 9 18 6 19 -5 21 -3 14 26 -6 28 -4 33 14 38 12 3 20 10 19 17 -1 6 2 29 6
51 4 22 10 50 12 62 5 26 -23 63 -47 63 -9 0 -24 -9 -34 -20 -22 -24 -40 -26
-31 -4 3 8 2 12 -3 9 -6 -3 -14 3 -20 12 -8 13 -10 -9 -11 -83z m74 -9 c-4 -8
-11 -15 -16 -15 -6 0 -5 6 2 15 7 8 14 15 16 15 2 0 1 -7 -2 -15z"/>
<path d="M172 510 l-23 -19 23 -20 c28 -27 47 -27 23 -1 -19 21 -11 27 15 10
22 -14 32 11 13 32 -20 22 -22 22 -51 -2z"/>
<path d="M155 389 c-4 -6 -5 -13 -2 -16 7 -7 27 6 27 18 0 12 -17 12 -25 -2z"/>
<path d="M20 278 c0 -17 18 -44 24 -37 8 7 -5 49 -15 49 -5 0 -9 -6 -9 -12z"/>
<path d="M154 255 c1 -8 7 -20 14 -27 9 -9 13 -7 18 6 4 11 1 22 -7 27 -20 13
-28 11 -25 -6z"/>
<path d="M5105 220 c9 -28 -3 -58 -26 -65 -14 -5 -18 -12 -14 -26 4 -10 2 -26
-3 -35 -13 -23 -3 -56 14 -50 8 3 14 1 14 -4 0 -6 -4 -10 -10 -10 -5 0 -10 -7
-10 -15 0 -12 13 -15 55 -15 53 0 55 1 45 20 -12 23 0 54 25 64 17 6 21 61 5
71 -6 4 -8 15 -5 25 6 19 -38 56 -55 45 -5 -3 -11 -1 -15 5 -11 18 -27 11 -20
-10z"/>
<path d="M12537 205 c5 -30 2 -36 -21 -46 -27 -13 -33 -24 -16 -34 7 -4 7 -12
0 -25 -16 -29 -13 -63 5 -57 8 4 17 2 20 -3 4 -6 -2 -10 -11 -10 -10 0 -15 -3
-11 -6 10 -10 75 16 107 44 22 19 30 35 30 59 0 17 -4 34 -10 38 -5 3 -7 12
-4 20 6 15 -40 50 -55 41 -5 -4 -12 -2 -16 4 -13 22 -23 8 -18 -25z"/>
<path d="M5228 93 c-22 -5 -23 -17 -4 -32 12 -10 17 -8 25 8 18 32 16 34 -21
24z"/>
<path d="M2635 60 c-3 -5 -1 -10 4 -10 6 0 11 5 11 10 0 6 -2 10 -4 10 -3 0
-8 -4 -11 -10z"/>
<path d="M5302 60 c-12 -5 -25 -16 -28 -25 -3 -8 -10 -12 -15 -9 -5 2 -21 -2
-36 -10 -27 -14 -24 -15 63 -16 l91 0 -11 35 c-11 36 -23 41 -64 25z"/>
<path d="M10067 63 c-4 -3 -7 -11 -7 -17 0 -6 5 -5 12 2 6 6 9 14 7 17 -3 3
-9 2 -12 -2z"/>
</g>
</svg>
