<svg xmlns="http://www.w3.org/2000/svg" viewBox="0 0 298.75 48.89"><defs><style>.cls-1{fill:#008fd5;}</style></defs><title>sun-herald</title><g id="Layer_2" data-name="Layer 2"><g id="blx"><path class="cls-1" d="M33.88,13.63l-2.4.82C28.39,9.4,22.08,2.9,15.71,2.9c-4.36,0-7.89,2.34-7.89,6.88,0,5.17,5.43,6.56,9.46,7.82L21,18.8c7.76,2.52,15.33,6.12,15.33,15.45,0,8.65-7.2,14.64-15.46,14.64a26.36,26.36,0,0,1-7.95-1.39,9.43,9.43,0,0,0-3.22-.69c-1.07,0-1.64.12-5.61,2L0,34.25l2.46-.82c3.72,6,9.84,13,17.47,13,4.55,0,9.21-3.22,9.21-8.08,0-5.17-5-6.75-9.08-8C11.67,27.63,1.14,24.48,1.14,13.75,1.14,5.74,7.51.44,15.27.44A19.83,19.83,0,0,1,22.2,1.7a7.72,7.72,0,0,0,2.65.63A8.57,8.57,0,0,0,29.71,0Z"/><path class="cls-1" d="M159.53,3.66V1.58H137V3.66c4.54,0,6.11,1.39,6.11,5.8V22.58h-16.9V9.46c0-4.41,1.58-5.8,6.12-5.8V1.58H109.69V3.66c4.55,0,6.12,1.39,6.12,5.8V39.87c0,4.41-1.57,5.93-6.12,5.93-1.89,0-4-.38-4-4.1v-16c0-4-3.47-9.15-9.15-9.15-4.1,0-7.69,2.9-10.85,5.17V16L72.1,19.81v2c3.66.44,4.48,2.72,4.48,6.06v12.8c0,4.8-1.8,5.16-4,5.18-3.71-.32-4.53-2.59-4.53-5.93V16L54.49,19.81v2c3.66.44,4.48,2.72,4.48,6.06v12c-1.77,1.52-4.17,3.35-6.63,3.35-2.65,0-4.41-1.64-4.41-4.1V16L34.36,19.81v2c3.66.44,4.48,2.72,4.48,6.06V39.17c0,5.24,2.59,9.34,8.65,9.34,4.47,0,8.13-2.4,11.48-5.11v4.35H89.7v-2c-1.89,0-4-.38-4-4.1V25.3C87.11,23.53,89.19,22,91.53,22c3.53,0,5,1.83,5,8.08V40.62c0,4.93-1.89,5.18-4.16,5.18v2h39.87V45.67c-4.54,0-6.12-1.39-6.12-5.8V25.55h16.9V39.87c0,4.41-1.57,5.8-6.11,5.8v2.08h22.58V45.67c-4.54,0-6.12-1.39-6.12-5.8V9.46C153.41,5.05,155,3.66,159.53,3.66Z"/><path class="cls-1" d="M165.66,32.42c0,5.87,4.1,12.31,10.72,12.31,3.6,0,6.88-2.09,9.27-4.61l1.52,1.32c-3.91,4.61-8.14,7.07-14.32,7.07-8.71,0-16.28-5.87-16.28-15.08A18.06,18.06,0,0,1,160.67,22a14.62,14.62,0,0,1,11.67-5.43c8.77,0,14.76,6.94,14.57,15.83Zm13.18-2.71c0-6.18-1.2-10.41-6.18-10.41-5.43,0-7.07,6.31-7.13,10.41Z"/><path class="cls-1" d="M199.74,41.7c.19,3.47,1.77,4.1,4.48,4.1v2h-18v-2c2.84,0,4.42-.38,4.42-5.18V28c0-3.34-.82-5.62-4.48-6.06V20l13.56-3.85V23.4C202,20.63,205.61,16,209.46,16c2.52,0,4.29,2.52,4.29,4.92a4.08,4.08,0,0,1-4,4.16c-2,0-4-1.57-5.42-1.57s-3.85,3-4.61,4.16Z"/><path class="cls-1" d="M259.42,41.7V.44L245.86,4.29v2c3.66.44,4.41,2.71,4.48,6.05V40.62c0,4.93-2.22,5-5.5,5s-4.05-2-4.05-5.21V27c0-2.9-.06-5.74-2.9-8.08-2.27-1.82-6.49-2.33-9.27-2.33-10.72,0-14.45,4.54-14.45,7.63a3.86,3.86,0,0,0,4,3.66c2.46,0,3.91-2.33,4.67-4.48.88-2.39,1.64-4.73,4.73-4.73,4.41,0,4.16,4.86,4.16,7.89v1.7c-6.69,1.07-19.93,3.47-19.93,12.3,0,5.55,4.1,7.95,9.27,7.95a16.36,16.36,0,0,0,10.66-3.78c2.35,3.52,4,3,14.4,3h17.35v-2C261.56,45.8,259.42,45.42,259.42,41.7Zm-27.71-.44c-1.45,1.7-3.72,3.47-6.06,3.47-3,0-4.41-2.21-4.41-5,0-6,5.42-8.08,10.47-8.64Z"/><path class="cls-1" d="M285,12c0-3.6-.94-5.87-4.85-6.12v-2L294.09.44V39.87c0,3.4.82,5.55,4.66,5.93v2c-5.86.26-9.9.38-13.75,1.14v-4.1a11.9,11.9,0,0,1-8.83,3.72c-9,0-14.19-6.75-14.19-15.39,0-11.86,8.32-16.53,14.19-16.53A14.81,14.81,0,0,1,285,20.06Zm0,11.41c-1.57-1.45-4.54-3-6.68-3s-6.88,2.33-6.88,11.73c0,4.41,1.83,12.62,7.57,12.62,2.78,0,4.35-1.58,6-3.54Z"/></g></g></svg>