<?xml version="1.0" standalone="no"?>
<!DOCTYPE svg PUBLIC "-//W3C//DTD SVG 20010904//EN"
 "http://www.w3.org/TR/2001/REC-SVG-20010904/DTD/svg10.dtd">
<svg version="1.0" xmlns="http://www.w3.org/2000/svg"
 width="986.000000pt" height="1280.000000pt" viewBox="0 0 986.000000 1280.000000"
 preserveAspectRatio="xMidYMid meet">
<metadata>
Created by potrace 1.15, written by Peter Selinger 2001-2017
</metadata>
<g transform="translate(0.000000,1280.000000) scale(0.100000,-0.100000)"
fill="#000000" stroke="none">
<path d="M6538 12785 c-69 -17 -119 -42 -172 -84 -72 -57 -82 -80 -89 -189 -6
-103 -26 -178 -59 -224 -17 -25 -26 -28 -71 -28 -76 1 -122 26 -217 122 -89
89 -156 131 -260 162 -258 79 -632 56 -910 -55 -106 -43 -172 -83 -241 -147
-128 -118 -161 -258 -124 -522 l15 -104 -27 -22 c-28 -22 -28 -24 -25 -118 1
-53 0 -101 -3 -107 -4 -5 -22 3 -42 21 -54 48 -105 77 -169 97 -52 16 -91 18
-316 15 -258 -3 -333 3 -431 35 -48 15 -49 15 -76 -11 -39 -38 -79 -35 -121 9
-19 19 -40 35 -47 35 -7 0 -22 -18 -33 -40 -12 -23 -28 -44 -37 -47 -10 -4
-50 11 -99 37 l-83 43 -38 -30 c-96 -76 -216 -115 -533 -174 -229 -42 -328
-63 -336 -72 -14 -14 10 -45 48 -63 74 -34 76 -71 7 -106 -23 -12 -57 -18
-106 -18 l-72 0 6 -50 c5 -44 3 -54 -17 -75 -22 -23 -30 -25 -127 -25 -58 0
-113 -5 -124 -10 -30 -17 -23 -53 21 -106 22 -27 40 -54 40 -60 0 -40 -87 -99
-162 -110 -70 -10 -71 -10 -53 -43 26 -51 19 -90 -30 -165 -25 -38 -45 -73
-45 -78 0 -18 45 -96 105 -183 87 -125 108 -170 109 -232 0 -29 4 -53 8 -53 4
0 31 -9 60 -20 41 -15 58 -28 73 -56 22 -42 65 -77 155 -129 36 -21 78 -49 93
-64 21 -19 50 -30 118 -43 113 -21 173 -50 204 -96 37 -55 33 -62 -32 -63
-109 -1 -191 -52 -129 -80 14 -7 26 -18 26 -25 0 -7 -30 -27 -67 -46 -47 -23
-77 -46 -98 -75 -25 -35 -36 -42 -66 -42 -76 -2 -92 -15 -138 -111 -49 -107
-70 -123 -161 -130 l-65 -5 -24 -68 c-23 -65 -26 -69 -76 -93 -39 -18 -80 -54
-159 -138 -85 -92 -116 -118 -161 -137 -52 -22 -56 -26 -51 -51 8 -41 -11
-125 -35 -160 -25 -34 -90 -67 -131 -68 l-28 0 0 -100 c0 -55 -4 -100 -8 -100
-16 0 -73 -89 -96 -152 -47 -124 -73 -174 -125 -236 -63 -75 -76 -106 -86
-192 -9 -80 -27 -126 -65 -165 -16 -17 -56 -78 -88 -135 -39 -70 -68 -112 -90
-125 -24 -16 -31 -27 -32 -53 0 -69 -22 -125 -65 -167 -34 -35 -40 -46 -34
-68 17 -62 -22 -143 -97 -200 -44 -34 -53 -46 -48 -62 18 -51 8 -100 -34 -170
-27 -43 -41 -78 -38 -90 2 -11 9 -38 15 -60 6 -22 11 -92 12 -155 0 -139 13
-236 36 -285 l17 -36 -32 -30 c-30 -28 -33 -35 -30 -82 3 -49 5 -53 40 -72 21
-11 40 -26 43 -33 3 -7 -2 -52 -10 -99 -8 -47 -15 -146 -15 -220 0 -120 -2
-137 -21 -162 -29 -39 -38 -91 -39 -211 l0 -106 46 -44 c25 -25 54 -61 65 -82
22 -43 12 -57 -47 -62 -31 -3 -38 -8 -36 -22 7 -34 33 -61 85 -89 64 -34 117
-73 117 -86 0 -5 -21 -9 -47 -9 -70 0 -93 -9 -93 -34 0 -23 51 -61 157 -116
116 -61 169 -124 174 -212 4 -48 -51 -167 -195 -422 -69 -122 -139 -258 -157
-301 -40 -101 -47 -196 -25 -360 9 -65 16 -154 16 -196 l0 -77 56 -69 c30 -37
135 -152 232 -255 l176 -188 17 -92 c9 -51 28 -151 43 -223 23 -109 27 -146
23 -230 -4 -88 -2 -103 14 -120 10 -11 29 -58 42 -103 26 -90 48 -122 83 -122
21 0 22 3 18 48 -3 26 -14 100 -25 165 -11 65 -19 123 -16 130 5 17 567 56
807 56 109 0 226 -6 265 -13 65 -11 70 -13 68 -36 -1 -14 -3 -86 -4 -161 -2
-147 13 -223 52 -272 l20 -27 -26 0 c-16 0 -28 -7 -31 -18 -3 -9 -10 -26 -16
-36 -6 -11 -14 -72 -19 -135 -5 -64 -13 -159 -19 -211 -13 -116 -15 -314 -5
-392 6 -51 10 -57 34 -62 14 -3 54 -10 87 -17 34 -6 79 -21 100 -33 38 -21 39
-23 36 -72 -3 -48 -2 -53 33 -81 115 -95 417 -76 471 30 18 33 15 38 -41 77
-24 16 -46 39 -50 49 -3 11 9 54 29 103 62 152 116 352 147 550 11 70 14 78
40 89 50 20 102 83 163 195 60 111 115 193 129 194 4 0 49 -40 100 -89 99 -96
153 -130 218 -138 l42 -6 -6 56 c-7 73 -40 132 -131 235 -70 79 -106 136 -93
149 4 3 28 -2 54 -12 38 -14 74 -44 173 -146 134 -137 170 -161 268 -172 49
-6 52 -5 52 16 0 36 -38 87 -77 103 -20 9 -65 25 -100 35 -57 18 -74 30 -151
108 -64 64 -104 96 -152 119 -86 41 -128 49 -136 27 -12 -30 16 -123 52 -172
83 -116 104 -150 110 -182 7 -34 5 -33 -116 70 -67 57 -159 143 -204 190 -76
80 -84 87 -131 93 -212 30 -347 104 -401 221 -35 74 -32 87 34 141 80 66 131
86 201 82 52 -3 61 0 106 33 85 62 173 116 200 123 20 5 34 0 56 -18 66 -56
303 -95 496 -83 l92 6 154 -152 c151 -149 186 -196 175 -241 -6 -27 -106 35
-208 129 l-99 91 -114 -4 c-108 -4 -160 4 -235 35 -11 4 -10 -2 2 -25 39 -75
110 -130 210 -162 46 -15 59 -27 134 -121 151 -189 193 -238 238 -275 25 -20
47 -34 50 -31 8 8 -35 113 -65 158 -51 74 -124 155 -184 200 -85 64 -127 113
-127 149 0 18 5 30 13 30 25 0 113 -63 192 -139 82 -78 146 -118 208 -128 64
-10 84 56 49 169 -16 53 -21 59 -71 85 -40 21 -79 56 -146 133 -122 140 -168
165 -302 165 l-93 0 0 50 c-1 28 -7 79 -15 115 -28 129 -16 201 41 245 41 32
42 50 4 95 -36 41 -36 47 -8 78 30 31 37 148 14 255 -11 55 -13 84 -5 109 5
18 23 128 39 245 32 233 50 313 86 388 46 96 45 95 155 80 138 -20 397 -42
689 -60 140 -8 288 -23 329 -31 59 -13 81 -14 112 -5 32 10 59 34 59 54 0 2
-52 7 -115 10 -63 4 -175 16 -249 27 -134 20 -311 35 -726 65 -366 26 -445 41
-915 175 -437 125 -645 164 -746 140 -27 -7 -51 -15 -53 -19 -2 -3 109 -33
247 -65 227 -53 388 -100 472 -137 l30 -13 -35 -3 c-175 -16 -289 -39 -387
-79 -72 -30 -77 -40 -88 -168 -6 -82 -27 -140 -48 -133 -7 2 -18 16 -25 31
-21 43 -38 42 -93 -8 -28 -25 -103 -83 -166 -128 -196 -139 -262 -209 -288
-308 l-13 -50 86 88 c137 138 254 221 376 267 52 20 68 22 72 12 6 -18 -8 -54
-40 -102 -34 -49 -33 -58 6 -76 27 -11 33 -20 35 -49 2 -19 -3 -54 -11 -78
-14 -40 -14 -45 9 -90 36 -73 61 -166 105 -387 43 -215 67 -299 106 -378 30
-58 48 -67 78 -38 32 30 43 26 49 -17 2 -22 19 -59 37 -83 l31 -44 -28 -23
c-60 -49 -167 -115 -216 -135 -30 -11 -80 -20 -118 -22 -59 -1 -73 -6 -125
-40 -70 -47 -248 -127 -266 -120 -8 3 -19 15 -27 27 -17 27 -51 150 -45 160 8
12 126 45 263 74 184 38 266 74 309 135 l15 22 -59 -7 c-133 -16 -397 -77
-647 -150 -81 -23 -120 -30 -122 -22 -2 6 -8 41 -14 77 -22 132 -10 221 39
289 l21 29 -37 16 c-20 8 -40 15 -45 15 -22 0 -28 40 -18 131 11 97 14 783 4
799 -8 13 -6 752 3 834 l7 69 40 14 c434 152 1194 269 1690 261 139 -3 141 -2
212 30 115 52 176 44 367 -49 70 -34 104 -44 154 -47 35 -3 68 0 73 5 18 18
-29 51 -88 63 -32 7 -99 34 -149 61 -131 71 -193 90 -292 90 -88 1 -85 -1 -66
44 2 6 -33 18 -78 29 -94 21 -241 74 -370 134 -49 22 -88 39 -88 36 0 -15 33
-63 62 -91 47 -46 125 -78 273 -114 72 -17 137 -33 145 -36 20 -7 -60 -29
-200 -53 -384 -68 -804 -38 -1169 82 l-93 30 -25 -26 c-29 -32 -17 -35 -228
56 -162 70 -268 127 -324 173 -28 24 -30 30 -24 74 5 41 1 56 -22 95 -19 32
-25 54 -21 71 6 25 9 23 125 -64 295 -223 427 -285 633 -297 85 -5 96 -3 128
17 l35 23 -30 7 c-16 4 -77 17 -135 29 -182 38 -345 107 -572 242 -91 54 -118
76 -118 92 -1 11 -11 41 -23 66 -19 39 -30 47 -81 67 -67 26 -87 46 -83 88 2
25 7 31 32 33 60 7 102 -16 206 -114 56 -52 121 -106 144 -119 23 -14 93 -38
156 -54 63 -17 140 -43 172 -57 56 -27 58 -27 92 -11 20 9 40 17 46 17 6 0 41
-31 77 -69 76 -77 150 -117 277 -150 87 -23 234 -41 333 -41 56 0 62 2 62 21
0 12 -11 34 -25 51 -14 16 -25 40 -25 54 0 13 -4 24 -8 24 -33 0 -377 53 -430
66 -37 9 -99 32 -139 52 -71 35 -73 35 -126 22 -52 -12 -55 -11 -93 13 -21 14
-95 45 -164 68 -131 43 -192 73 -224 108 -31 35 -10 37 72 8 87 -31 108 -33
115 -13 11 29 -75 77 -229 126 -116 38 -207 84 -235 118 -35 45 -17 112 31
112 39 0 159 -44 245 -90 115 -61 184 -84 230 -76 19 4 35 10 35 15 0 4 -21
17 -47 29 -27 12 -118 62 -203 112 -130 76 -286 150 -317 150 -7 0 -85 163
-96 200 -5 18 34 98 108 219 l55 91 -44 43 c-140 140 -137 515 4 615 35 25 38
31 44 92 3 36 11 82 17 104 16 57 74 114 139 136 l54 18 24 112 c28 135 70
255 113 322 32 49 33 50 72 44 59 -10 87 12 87 68 0 60 44 143 90 168 27 15
48 18 93 15 50 -5 57 -3 57 13 0 10 -11 32 -25 48 -38 45 -32 66 38 142 80 87
262 376 248 394 -5 6 -15 42 -21 80 -10 65 -10 70 16 114 15 25 64 85 110 134
77 83 85 95 110 175 25 76 33 89 77 126 118 99 135 117 145 160 13 49 41 78
160 166 57 42 93 61 113 61 17 0 36 9 47 21 82 96 130 121 292 147 67 10 119
27 175 53 58 28 139 52 295 89 165 38 234 59 299 91 l84 41 58 -15 c59 -15 59
-15 77 9 23 33 83 53 157 54 33 0 85 6 115 14 l55 15 37 -37 c20 -20 40 -49
43 -64 6 -24 3 -28 -41 -47 -102 -46 -539 -166 -678 -186 -46 -7 -86 -33 -86
-55 0 -29 222 9 400 70 63 22 176 64 250 94 145 58 154 58 166 3 10 -49 23
-61 45 -41 20 18 35 78 44 174 8 89 21 134 45 155 16 14 22 15 35 5 31 -26 29
-76 -9 -195 -20 -62 -38 -137 -39 -166 -2 -34 -8 -54 -17 -57 -8 -3 -47 -27
-88 -53 -41 -27 -89 -53 -107 -58 -20 -5 -60 -37 -106 -83 -58 -59 -93 -84
-164 -119 -55 -27 -103 -59 -126 -84 -20 -22 -77 -62 -126 -89 -117 -65 -152
-92 -169 -132 -24 -56 -16 -57 54 -8 104 74 746 504 852 571 108 69 276 163
289 163 18 0 21 -55 6 -110 -17 -62 -19 -108 -6 -129 7 -11 13 -11 32 -1 36
19 39 28 37 115 -2 98 19 150 127 330 39 66 80 135 89 153 16 32 16 32 -7 32
-35 0 -74 -35 -102 -91 -45 -87 -91 -98 -160 -38 -35 31 -35 32 -35 113 0 69
-5 94 -35 171 -57 143 -73 212 -85 344 -11 130 -29 190 -69 226 l-22 19 7 -29
c3 -17 22 -90 40 -163 42 -164 45 -272 8 -272 -25 0 -71 77 -84 142 -10 46
-25 78 -55 118 -116 152 -215 340 -260 495 -29 102 -55 255 -55 330 0 38 -5
55 -20 68 -25 21 -26 58 -2 88 l19 22 38 -42 c46 -50 78 -68 145 -81 65 -12
149 3 220 41 30 16 109 74 175 129 150 125 234 170 316 170 66 0 71 -8 43 -61
-14 -28 -98 -79 -131 -79 -7 0 -25 -18 -39 -40 -15 -22 -55 -63 -90 -90 -98
-77 -99 -79 -99 -255 1 -120 5 -166 22 -230 35 -129 51 -219 73 -405 11 -96
27 -211 35 -255 8 -44 17 -114 20 -155 4 -41 11 -88 17 -103 9 -24 35 -47 52
-47 11 0 5 156 -9 259 -8 58 -28 175 -45 260 -43 228 -60 351 -60 442 l0 81
53 -9 c28 -4 86 -8 127 -7 139 1 210 54 322 239 78 128 134 189 203 221 57 27
65 22 65 -44 0 -63 -21 -95 -135 -212 -67 -67 -114 -125 -131 -160 -27 -53
-27 -56 -25 -236 1 -100 -3 -260 -8 -356 -6 -95 -12 -246 -13 -334 -3 -147 -1
-164 16 -183 11 -11 27 -21 36 -21 14 0 18 34 34 298 21 351 43 622 50 630 4
3 6 1 6 -5 0 -22 91 -53 187 -64 119 -12 214 -27 220 -33 3 -2 -11 -49 -30
-103 -67 -187 -217 -690 -217 -726 0 -18 8 -28 30 -37 21 -9 30 -19 30 -36 0
-12 -4 -25 -9 -29 -5 -3 -19 -36 -32 -73 -36 -111 -37 -111 -69 -72 -24 30
-30 32 -44 21 -11 -10 -16 -30 -16 -72 0 -67 -17 -151 -60 -299 -17 -58 -33
-129 -36 -157 -7 -52 -6 -53 19 -53 31 0 55 22 63 58 3 15 11 45 17 67 l12 40
125 3 c165 3 166 3 139 -101 -24 -89 -19 -141 12 -158 12 -6 23 -9 25 -7 2 3
11 43 19 91 8 47 24 123 34 169 35 151 46 252 32 313 -14 64 -27 64 -37 -1 -7
-50 -28 -77 -53 -70 -9 3 -38 8 -66 11 -62 8 -102 23 -109 40 -3 8 19 65 49
127 103 217 251 622 325 890 32 119 63 179 105 210 23 18 23 18 137 -105 192
-207 253 -248 384 -255 68 -4 74 -2 158 42 84 44 127 55 154 37 10 -6 -24 -65
-129 -227 -254 -391 -365 -531 -524 -663 -111 -91 -215 -155 -229 -141 -7 7
-6 31 3 71 9 47 9 64 0 75 -23 28 -36 15 -42 -43 -3 -32 -24 -121 -46 -198
-44 -149 -53 -234 -31 -301 17 -50 29 -32 41 57 15 111 18 114 130 114 83 0
94 2 97 19 6 29 -11 38 -88 46 -40 4 -79 14 -87 23 -13 12 -10 17 19 35 18 12
55 37 82 57 35 26 58 35 87 35 l39 0 0 -64 c0 -41 -9 -94 -25 -143 -51 -161
-124 -551 -150 -796 -20 -198 -19 -381 5 -562 33 -253 30 -289 -51 -498 -55
-143 -68 -214 -49 -271 14 -45 53 -92 91 -111 l28 -15 70 125 c79 138 112 214
132 295 19 79 16 258 -9 460 -27 226 -37 506 -20 539 15 27 44 49 53 39 9 -9
38 -204 66 -438 19 -162 23 -247 23 -495 1 -304 -9 -419 -49 -592 -12 -52 -12
-59 6 -81 10 -13 35 -57 54 -97 55 -116 98 -137 185 -92 36 17 48 30 59 63 13
37 13 49 -3 107 -10 37 -32 88 -48 114 l-30 47 16 73 c8 39 27 148 41 240 14
92 35 200 46 240 l21 71 -45 139 c-109 327 -262 912 -244 929 7 7 45 -48 62
-90 8 -19 31 -95 51 -168 19 -73 47 -152 60 -175 30 -52 81 -92 127 -100 34
-5 36 -3 107 88 86 111 110 160 111 228 2 59 -18 96 -114 218 -36 46 -81 109
-101 141 -47 78 -119 229 -115 241 8 21 112 -45 172 -109 48 -51 81 -102 142
-220 95 -183 138 -251 194 -304 l41 -40 34 16 c34 17 106 95 106 116 0 7 -21
52 -47 101 -37 71 -45 94 -37 111 9 20 12 19 87 -25 161 -95 261 -218 290
-361 9 -45 22 -71 51 -105 21 -24 65 -100 97 -169 99 -211 111 -231 151 -245
61 -20 127 -76 208 -175 96 -117 155 -174 169 -166 32 20 30 43 -10 97 -98
133 -127 164 -251 272 -180 155 -179 154 -185 225 -4 38 -2 62 6 66 6 4 43
-20 83 -54 86 -72 162 -124 221 -150 33 -15 48 -30 70 -73 27 -51 70 -98 275
-293 122 -116 143 -157 163 -319 9 -78 22 -115 90 -270 113 -260 158 -406 183
-590 l5 -40 -132 -24 c-184 -33 -252 -37 -318 -18 -58 18 -109 57 -109 86 0
21 27 111 38 129 6 9 25 1 75 -32 100 -67 159 -77 195 -33 11 12 5 15 -42 19
-65 5 -116 40 -145 96 -10 21 -33 102 -51 182 -28 127 -52 200 -64 200 -3 0
-4 -21 -3 -46 1 -26 -2 -48 -8 -50 -19 -6 -118 186 -123 238 -7 70 26 60 68
-22 21 -41 73 -90 96 -90 21 0 17 43 -6 72 -34 44 -42 76 -25 108 8 16 15 31
15 33 0 3 -19 13 -42 23 -37 15 -83 19 -308 24 -250 5 -267 6 -307 27 -23 13
-49 33 -58 45 -14 21 -14 24 2 35 23 18 139 16 243 -2 134 -24 230 -29 280
-15 48 13 96 45 81 54 -17 11 -145 24 -286 31 -195 8 -353 24 -414 40 l-51 13
0 -37 c0 -99 68 -194 165 -230 66 -25 230 -43 354 -39 l95 3 38 -125 c78 -258
105 -480 79 -657 -11 -74 -10 -83 10 -129 17 -36 24 -75 27 -150 5 -116 -5
-173 -75 -399 -25 -82 -53 -182 -63 -220 -15 -67 -15 -72 2 -110 23 -53 22
-106 -5 -184 -31 -90 -49 -101 -179 -111 -99 -7 -144 -19 -160 -44 -21 -31 -7
-35 107 -38 l115 -3 -18 -35 c-27 -54 -70 -76 -169 -89 -242 -32 -283 -41
-283 -63 0 -21 72 -38 160 -38 144 0 171 -29 70 -74 -34 -15 -113 -39 -178
-53 -168 -36 -268 -63 -288 -77 -15 -11 -13 -14 19 -29 52 -25 130 -21 250 13
102 29 197 39 197 22 0 -4 -13 -28 -29 -53 -80 -128 -260 -203 -532 -224 -121
-9 -134 -12 -118 -31 47 -57 161 -57 334 -1 128 42 195 55 195 38 0 -25 -86
-103 -144 -130 -104 -50 -198 -65 -405 -65 l-183 0 26 -22 c43 -38 123 -48
266 -35 151 13 297 14 305 2 8 -13 -41 -45 -107 -69 -77 -29 -198 -49 -363
-62 -77 -6 -151 -13 -165 -16 l-25 -6 25 -18 c41 -31 113 -43 219 -36 53 3
148 9 211 12 l115 5 -25 -22 c-143 -126 -621 -169 -887 -79 -74 24 -83 26 -83
10 0 -28 45 -60 106 -77 72 -18 114 -39 114 -57 0 -28 -142 -41 -447 -41 -281
0 -292 0 -260 -17 82 -42 155 -53 342 -52 160 1 191 4 278 27 54 14 128 42
165 62 60 32 74 35 149 35 45 0 135 7 200 15 65 8 141 17 168 20 l50 6 -27
-28 c-15 -15 -35 -50 -45 -78 -29 -80 -47 -85 -295 -85 -154 0 -210 -3 -218
-12 -5 -7 -19 -24 -29 -38 l-19 -25 -289 0 c-281 0 -290 1 -355 25 -56 20 -69
22 -82 11 -26 -22 -19 -31 41 -58 44 -20 78 -27 160 -32 l103 -6 110 -99 c61
-54 108 -101 106 -104 -3 -2 -61 -13 -128 -23 -161 -24 -290 -24 -398 1 -113
26 -195 26 -238 0 -38 -23 -35 -33 16 -59 59 -30 107 -40 281 -56 181 -16 229
-23 236 -35 13 -21 -213 -136 -335 -169 -124 -35 -120 -37 -120 72 0 99 -14
137 -50 137 -18 0 -19 -11 -22 -162 -2 -90 1 -383 5 -653 6 -354 5 -516 -3
-585 -24 -195 -24 -212 0 -242 46 -60 63 -21 70 158 4 119 8 145 23 162 21 23
66 37 78 25 5 -5 14 -45 20 -89 9 -65 8 -112 -5 -246 -9 -92 -16 -202 -16
-245 l0 -79 -52 -51 c-50 -48 -110 -94 -373 -287 -132 -97 -223 -181 -287
-266 -52 -68 -111 -182 -123 -238 -8 -40 9 -49 70 -35 l43 10 -5 -33 c-7 -45
16 -78 77 -109 27 -14 51 -25 54 -25 2 0 11 21 19 48 8 26 27 80 41 119 30 84
33 131 10 179 -14 29 -21 34 -50 34 -31 0 -36 -5 -63 -59 -27 -53 -55 -80 -69
-66 -9 9 59 130 113 202 42 56 140 141 151 131 1 -2 -3 -121 -11 -265 -14
-257 -14 -264 -54 -403 -43 -148 -50 -222 -28 -274 l13 -29 27 33 c44 52 71
114 118 265 116 383 231 616 409 834 118 145 209 203 292 187 58 -11 64 -20
40 -58 -31 -49 -153 -180 -272 -292 -104 -96 -105 -99 -102 -138 4 -33 -2 -49
-32 -92 -20 -29 -36 -60 -36 -69 0 -20 134 -65 219 -73 l56 -6 19 38 c10 22
21 65 24 97 3 42 10 60 21 64 69 21 125 57 201 129 l85 81 135 42 c74 23 149
47 165 52 17 5 39 24 50 42 24 38 75 74 124 86 20 6 104 13 186 16 173 8 228
22 275 70 45 47 37 75 -30 104 -27 12 -54 29 -59 39 -18 33 21 93 113 178 128
116 146 156 111 241 -9 20 -12 40 -7 45 4 4 34 18 67 32 79 31 88 55 53 126
l-26 51 64 32 c36 18 64 38 64 46 0 9 -7 34 -16 58 -25 66 -21 70 94 90 49 8
53 42 11 94 -40 51 -32 77 22 70 19 -3 63 -5 98 -5 l65 -1 17 58 c27 92 43
101 126 72 52 -18 66 -13 81 28 31 81 94 122 294 187 168 55 224 85 264 144
20 29 28 35 39 26 10 -8 29 -8 74 1 60 13 62 14 131 100 38 47 88 98 109 113
35 25 43 26 78 17 21 -6 57 -11 81 -11 42 0 42 0 42 36 0 19 -13 67 -30 106
-35 82 -35 84 -14 149 24 73 16 180 -16 214 -13 14 -28 25 -35 25 -11 0 -35
-128 -35 -186 0 -23 -12 -42 -52 -83 -127 -126 -272 -181 -678 -256 -325 -60
-374 -74 -545 -153 -97 -46 -132 -57 -184 -60 l-65 -5 37 43 c62 72 87 183 68
294 -6 36 -14 72 -17 80 -4 10 1 12 18 9 13 -2 47 8 78 24 51 26 55 31 71 86
22 76 30 84 90 89 79 8 113 42 189 194 45 88 73 133 90 142 35 18 101 9 190
-26 126 -50 136 -50 186 3 65 67 78 124 71 300 -3 77 -15 196 -26 265 -35 226
-36 212 21 288 28 37 90 110 138 162 l87 95 5 86 c4 64 15 111 43 190 69 192
85 256 85 338 0 73 -2 79 -42 141 -52 79 -141 169 -213 215 -83 53 -151 76
-240 82 l-80 5 42 -25 c23 -14 96 -53 162 -87 139 -72 228 -147 269 -224 23
-43 27 -64 27 -136 0 -77 -4 -94 -39 -175 -92 -214 -109 -266 -108 -340 l0
-70 -125 -125 -126 -124 6 -256 c6 -231 10 -289 32 -456 7 -48 5 -52 -28 -87
-41 -44 -66 -47 -91 -8 -29 43 -104 89 -176 107 -77 20 -152 8 -199 -32 -29
-24 -30 -25 -14 -62 21 -51 12 -130 -23 -189 l-26 -46 -57 7 c-31 3 -105 12
-166 21 -60 8 -128 15 -149 15 l-39 0 6 -69 c6 -75 26 -125 53 -135 24 -9 33
10 23 53 -5 20 -9 47 -9 60 0 18 3 22 18 15 9 -4 63 -9 120 -9 64 -1 107 -6
114 -13 9 -9 7 -12 -10 -12 -45 0 -81 -29 -123 -101 -22 -39 -50 -80 -60 -90
-20 -20 -20 -20 -46 1 -33 25 -55 25 -84 -1 -26 -22 -23 -22 39 -3 28 8 29 -9
2 -53 -13 -21 -31 -35 -57 -42 -49 -14 -63 -1 -40 38 19 33 7 52 -19 30 -33
-28 -37 -49 -12 -76 12 -14 35 -31 50 -39 53 -28 60 -50 44 -144 -26 -146 -92
-240 -168 -240 -41 0 -64 14 -140 87 -105 101 -166 119 -481 148 -205 18 -270
29 -344 56 -52 20 -112 75 -96 89 4 4 104 28 221 54 117 26 250 58 295 72 233
73 380 211 418 392 9 44 22 69 58 112 97 113 155 219 187 338 9 37 27 78 39
92 12 14 41 54 65 90 23 36 57 81 75 100 25 27 34 47 39 90 9 71 37 134 70
155 42 28 88 4 158 -79 88 -104 89 -105 140 -54 50 51 106 70 185 67 46 -2 57
1 66 17 5 10 31 44 57 74 60 70 70 90 70 137 0 79 -12 79 -235 6 -170 -56
-270 -66 -350 -36 -27 10 -51 25 -53 33 -1 8 50 85 114 170 65 85 130 183 146
217 41 90 55 184 41 274 l-12 73 29 33 c34 38 52 97 76 237 9 55 23 115 30
133 l14 33 93 0 c50 0 112 -5 137 -11 139 -31 292 -118 379 -215 44 -50 50
-54 56 -35 3 11 0 42 -8 69 -13 43 -13 53 0 80 24 49 14 61 -120 143 -51 31
-71 65 -61 104 l6 24 34 -25 c70 -54 159 -64 370 -42 63 6 117 9 120 5 3 -3
-3 -55 -14 -114 -47 -247 -76 -561 -92 -1018 -28 -799 -32 -887 -51 -1020 -25
-180 -25 -256 -1 -285 l18 -23 22 51 c60 139 77 294 68 622 -10 350 5 567 84
1215 34 275 46 398 56 542 l6 102 -36 5 c-20 3 -51 8 -68 11 -58 9 -59 12 -63
151 -4 118 -6 131 -26 147 -17 14 -32 16 -64 11 -28 -4 -51 -1 -66 7 l-24 13
29 6 c37 6 55 33 40 58 -12 19 -76 22 -170 7 -47 -7 -53 -6 -64 15 -19 35 -37
104 -74 280 -45 211 -68 284 -104 329 -49 60 -63 99 -93 244 -34 171 -50 198
-145 250 -96 53 -108 65 -143 140 -25 57 -34 67 -55 67 -28 0 -56 32 -102 119
-36 67 -66 90 -178 135 -111 44 -136 63 -227 175 -41 49 -91 100 -111 113 -24
15 -42 36 -49 58 -62 187 -207 325 -478 457 -105 50 -120 61 -116 79 3 13 -6
35 -25 60 -16 21 -30 51 -30 67 l0 27 133 0 c135 0 264 11 350 31 l47 11 0 61
c0 84 -33 152 -107 223 l-58 56 -100 -6 c-55 -3 -174 -17 -265 -31 -91 -13
-226 -33 -300 -45 -74 -11 -160 -20 -190 -20 l-55 0 45 26 c25 15 176 99 335
187 338 186 409 230 567 349 196 149 349 311 400 423 34 77 31 172 -7 255 -28
61 -52 95 -205 295 -37 48 -94 145 -143 245 -123 247 -160 278 -402 336 -55
13 -130 33 -168 44 -64 20 -67 22 -61 48 8 35 73 210 89 241 10 20 10 31 -2
60 -19 47 -89 131 -150 182 -59 50 -226 132 -313 154 -92 23 -251 28 -322 10z
m217 -109 c136 -20 301 -93 364 -160 l25 -26 -29 -30 c-34 -35 -99 -58 -258
-89 -200 -40 -269 -83 -283 -176 -9 -62 14 -105 83 -156 l58 -44 250 -1 c269
0 366 -12 501 -58 96 -32 159 -66 229 -123 59 -48 59 -49 60 -103 2 -71 19
-103 146 -270 122 -162 154 -223 153 -300 -2 -125 -100 -231 -217 -232 -74 -1
-95 8 -116 50 -31 62 -41 136 -41 305 0 133 -4 176 -21 237 -35 128 -102 228
-191 287 -28 19 -50 25 -100 25 -154 3 -308 -132 -308 -269 0 -46 41 -115 90
-150 118 -87 171 -149 157 -185 -9 -25 -199 -63 -317 -63 -123 0 -156 11 -219
69 -59 56 -194 224 -210 264 -18 44 -8 87 39 163 72 114 83 143 76 183 -10 54
-67 110 -152 153 -63 31 -84 36 -146 37 -121 1 -178 -41 -200 -146 -11 -52
-10 -54 36 -149 47 -94 47 -96 35 -143 -40 -159 -249 -195 -390 -68 -30 27
-49 52 -49 65 0 38 35 81 94 117 105 64 137 91 152 125 21 50 18 138 -6 184
-21 43 -116 131 -140 131 -29 -1 -98 -38 -140 -76 -23 -21 -79 -90 -125 -153
-132 -184 -187 -224 -310 -225 -106 -1 -121 5 -129 58 -10 63 10 129 53 176
20 22 92 78 160 123 81 53 134 96 153 123 l30 41 -22 51 c-43 99 -107 132
-209 106 -70 -19 -123 -48 -317 -179 -283 -191 -390 -218 -458 -115 -25 38
-64 59 -85 45 -7 -3 -11 3 -11 15 0 31 102 134 196 196 123 82 249 135 409
171 110 25 321 24 430 -1 145 -33 210 -71 344 -199 69 -65 139 -123 165 -136
58 -27 136 -27 193 -2 74 34 98 90 143 325 29 153 38 170 92 185 43 12 131 27
173 30 11 0 61 -5 110 -13z m455 -368 c0 -6 -19 -53 -42 -104 l-43 -93 -214
-1 -213 0 7 28 c22 87 85 127 233 148 275 37 272 37 272 22z m-752 -384 c29
-14 61 -39 73 -56 l21 -29 -51 -132 c-28 -73 -107 -301 -175 -507 -68 -206
-142 -420 -164 -475 -54 -135 -111 -253 -111 -235 -2 48 89 363 194 675 107
317 114 380 60 538 -28 83 -33 109 -26 138 15 64 58 108 107 109 11 0 43 -12
72 -26z m1002 -266 c35 -57 59 -154 75 -306 40 -367 57 -435 135 -513 l47 -47
104 -8 c96 -8 104 -11 101 -29 -6 -37 -38 -69 -144 -145 -339 -243 -418 -301
-496 -367 -47 -40 -91 -73 -97 -73 -21 0 -118 -51 -232 -122 -65 -41 -129 -80
-142 -87 -23 -13 -23 -12 -18 20 2 19 0 77 -5 130 l-10 97 129 128 c132 131
213 232 344 429 168 252 222 414 169 500 -11 18 -55 64 -97 101 -103 93 -133
135 -133 190 0 81 75 133 193 134 54 0 58 -2 77 -32z m-4572 -300 c6 -7 13
-30 17 -50 7 -34 5 -39 -19 -48 -33 -12 -86 -2 -86 17 0 8 11 24 25 35 18 14
24 26 20 39 -5 14 -1 19 13 19 11 0 24 -6 30 -12z m226 -9 c19 -15 26 -30 26
-55 0 -34 -1 -35 -32 -32 -41 4 -64 42 -48 82 12 31 19 32 54 5z m410 -15 c9
-8 16 -24 16 -35 0 -14 -7 -19 -30 -19 -28 0 -30 3 -30 35 0 39 17 46 44 19z
m-1076 -6 c7 -7 12 -29 12 -50 l0 -38 -42 0 c-24 1 -54 7 -68 14 l-24 14 36
36 c37 37 65 45 86 24z m448 -170 c10 -33 7 -77 -7 -94 -6 -8 -24 -14 -40 -14
-34 0 -43 22 -33 85 6 43 8 45 39 45 26 0 35 -5 41 -22z m420 14 c18 -11 34
-48 34 -76 0 -28 -25 -35 -60 -16 -20 11 -37 71 -25 89 7 13 35 14 51 3z
m-663 -40 c9 -8 17 -26 17 -39 0 -19 -5 -23 -28 -23 -60 0 -98 61 -49 79 23 9
32 7 60 -17z m1099 3 c17 -38 0 -80 -32 -80 -19 0 -26 6 -28 26 -4 35 14 79
33 79 8 0 21 -11 27 -25z m236 2 c4 -20 -25 -34 -40 -19 -15 15 -1 44 19 40
10 -2 19 -11 21 -21z m-448 -2 c0 -19 -38 -29 -55 -15 -24 20 -18 28 20 28 22
0 35 -5 35 -13z m-1244 -16 c9 -7 14 -25 12 -43 -3 -27 -7 -31 -36 -34 -18 -2
-39 2 -47 8 -17 14 -29 65 -19 81 8 14 69 5 90 -12z m1667 -181 c9 -7 19 -32
23 -55 5 -35 3 -42 -12 -45 -53 -12 -90 42 -60 87 19 28 25 30 49 13z m617
-41 c0 -13 -6 -32 -14 -42 -12 -16 -16 -17 -30 -6 -30 25 -13 71 26 71 12 0
18 -8 18 -23z m-1680 -17 c23 -23 27 -84 8 -97 -36 -21 -98 16 -98 59 0 55 51
77 90 38z m234 -11 c12 -35 0 -76 -26 -90 -18 -10 -24 -8 -39 9 -14 18 -15 28
-6 67 10 41 13 46 36 43 17 -2 29 -12 35 -29z m199 14 c11 -4 17 -15 17 -33 0
-31 -13 -45 -52 -55 -36 -9 -43 9 -28 65 9 33 15 40 28 35 9 -4 25 -10 35 -12z
m227 -38 c0 -46 -3 -55 -18 -55 -29 0 -62 29 -62 55 0 43 10 55 46 55 l34 0 0
-55z m-1441 -12 c29 -59 19 -69 -48 -52 -38 9 -50 17 -47 28 15 55 20 67 28
72 21 14 46 -4 67 -48z m181 28 c12 -24 13 -91 1 -91 -23 0 -73 24 -81 40 -15
29 -12 58 8 63 38 10 62 6 72 -12z m-392 -43 l-3 -43 -39 2 c-43 3 -66 17 -66
42 0 17 44 37 88 40 21 1 23 -3 20 -41z m2060 -120 c16 -16 15 -53 -1 -67 -19
-15 -27 -4 -27 41 0 39 8 46 28 26z m-1065 -26 c9 -10 17 -38 19 -62 l3 -45
-52 -3 -53 -3 0 46 c0 26 5 55 10 66 13 24 52 25 73 1z m437 -1 c5 -11 10 -40
10 -65 l0 -46 -44 0 c-55 0 -63 16 -39 82 13 38 22 48 40 48 12 0 27 -9 33
-19z m1692 -23 c7 -69 -6 -116 -43 -154 -18 -19 -37 -34 -41 -34 -11 0 -10
174 2 204 8 21 16 26 44 26 33 0 34 -2 38 -42z m-2758 6 c9 -8 16 -29 16 -45
0 -26 -3 -29 -30 -29 -26 0 -30 4 -30 26 0 23 16 64 25 64 2 0 11 -7 19 -16z
m866 -40 l0 -55 -32 3 c-41 4 -64 42 -48 82 8 21 16 26 45 26 l35 0 0 -56z
m421 46 c19 -11 27 -54 11 -64 -5 -3 -28 -8 -50 -12 l-42 -7 0 36 c0 49 36 70
81 47z m-1663 -12 c7 -7 12 -25 12 -41 0 -29 -1 -29 -40 -24 -47 6 -70 22 -70
47 0 28 75 41 98 18z m1872 -213 c0 -38 -3 -45 -19 -45 -11 0 -27 7 -35 16
-31 31 -13 74 31 74 21 0 23 -5 23 -45z m810 -10 c0 -46 -3 -55 -18 -55 -29 0
-42 21 -42 67 0 41 1 43 30 43 30 0 30 -1 30 -55z m230 22 c0 -15 -30 -19 -45
-7 -23 19 0 43 26 27 10 -6 19 -15 19 -20z m-1687 -20 c11 -35 3 -57 -21 -57
-40 0 -59 59 -24 79 24 14 34 9 45 -22z m-1244 17 c29 -6 31 -9 31 -50 0 -37
-4 -46 -24 -55 -51 -24 -106 11 -106 66 0 42 29 53 99 39z m541 -36 c21 -27
17 -38 -14 -38 -31 0 -36 8 -24 36 14 29 15 30 38 2z m-280 -29 c0 -16 -47
-32 -74 -25 -26 6 -36 31 -15 38 19 6 89 -4 89 -13z m2999 -85 c33 -23 58 -52
70 -86 l10 -28 -47 0 c-56 0 -117 27 -153 66 -40 45 -43 63 -11 70 15 3 32 7
37 8 16 4 65 -12 94 -30z m-1569 -44 c6 -10 10 -30 10 -44 0 -24 -3 -26 -50
-26 l-50 0 0 36 c0 19 5 44 10 54 9 16 15 17 40 8 17 -5 35 -18 40 -28z m-450
-20 c12 -12 20 -33 20 -55 l0 -35 -56 0 -57 0 6 40 c9 69 46 91 87 50z m202
-7 c40 -36 11 -100 -40 -86 -25 6 -27 25 -11 72 12 35 24 38 51 14z m-1438
-28 c46 -42 28 -103 -23 -76 -31 17 -43 45 -31 75 12 32 20 32 54 1z m1030 -7
c8 -23 6 -32 -14 -53 -26 -28 -68 -33 -77 -9 -3 8 0 33 7 55 12 36 16 40 44
37 23 -2 33 -10 40 -30z m-268 1 c8 -13 -15 -89 -28 -89 -4 0 -8 23 -8 50 0
37 4 50 14 50 8 0 18 -5 22 -11z m2384 -54 c0 -32 -33 -65 -65 -65 -21 0 -25
5 -25 29 0 38 23 61 61 61 24 0 29 -4 29 -25z m1694 -11 c18 -18 22 -107 6
-148 -10 -28 -38 -34 -58 -14 -19 19 -15 109 8 146 23 37 23 37 44 16z m-674
-119 c36 -8 82 -14 103 -15 32 0 37 -3 37 -24 0 -35 -36 -74 -76 -82 -40 -7
-252 15 -260 28 -9 14 16 87 34 97 24 14 86 13 162 -4z m-3757 -12 c13 -4 17
-16 17 -53 0 -54 -24 -84 -62 -78 -19 3 -23 10 -26 47 -4 56 15 105 37 95 9
-3 24 -9 34 -11z m365 5 c7 -7 12 -36 12 -65 0 -49 -2 -53 -24 -53 -48 0 -68
46 -46 104 10 28 38 34 58 14z m241 3 c7 -5 17 -27 21 -50 7 -37 5 -44 -18
-61 -39 -31 -113 -23 -92 10 6 8 10 28 10 43 0 57 37 84 79 58z m-1029 -41
c11 -7 12 -12 3 -21 -13 -13 -33 -4 -33 17 0 16 9 18 30 4z m5853 -26 c43 -4
77 -11 77 -16 0 -5 -11 -20 -25 -33 -22 -23 -32 -25 -113 -25 -50 0 -197 -16
-333 -36 -161 -23 -263 -34 -299 -30 -58 6 -150 33 -150 45 0 8 314 68 430 81
165 19 296 23 413 14z m-953 -81 c-1 -42 -33 -105 -71 -137 -31 -26 -34 -27
-46 -10 -43 59 16 174 89 174 24 0 28 -4 28 -27z m1045 -72 c26 -6 20 -9 -47
-24 -124 -27 -255 -39 -333 -30 -65 8 -68 10 -47 22 59 32 331 53 427 32z
m-650 -71 c82 -22 152 -45 154 -52 2 -7 40 -83 84 -168 43 -85 94 -191 112
-235 34 -82 63 -201 51 -212 -8 -8 -84 71 -123 128 -17 24 -61 100 -98 169
-37 69 -87 153 -111 186 -37 52 -49 62 -81 67 -21 4 -73 27 -117 53 -72 42
-80 45 -95 30 -25 -26 -19 -101 14 -166 15 -30 70 -117 122 -193 152 -221 176
-291 134 -384 -23 -49 -93 -121 -128 -129 -35 -9 -62 20 -69 76 -4 31 -28 87
-65 157 -146 267 -187 375 -174 462 l7 46 24 -30 c37 -46 86 -145 153 -308 66
-159 109 -250 136 -282 15 -19 16 -15 12 60 -4 91 0 82 -174 412 -56 106 -116
211 -133 233 l-33 41 24 26 c62 67 159 70 374 13z m-527 -187 c2 -16 -8 -63
-22 -104 -23 -67 -26 -100 -36 -354 -6 -154 -15 -300 -19 -325 l-8 -45 -17 38
c-38 85 -38 240 -1 542 8 66 15 137 15 158 0 31 7 45 36 72 21 20 33 39 28 46
-4 7 -2 10 7 7 8 -2 15 -18 17 -35z m-4285 -97 c21 -16 21 -29 0 -88 -18 -51
-36 -60 -53 -29 -22 42 -6 131 23 131 7 0 20 -7 30 -14z m-343 -326 c0 -45
-18 -52 -58 -24 -39 27 -19 63 36 64 19 0 22 -5 22 -40z m4758 -19 c9 -5 15
-37 18 -92 5 -107 29 -198 104 -398 121 -326 128 -403 62 -676 -75 -306 -78
-391 -22 -489 25 -45 31 -64 28 -103 -2 -37 -7 -49 -21 -51 -23 -5 -75 50
-107 114 -38 74 -35 228 9 479 31 175 33 202 28 335 -4 103 -13 180 -32 265
-73 332 -86 408 -92 513 -6 110 -3 121 25 103z m-4960 -143 c7 -7 12 -29 12
-50 0 -73 -88 -122 -110 -62 -16 42 -11 73 15 99 26 27 64 32 83 13z m207 -1
c13 -10 16 -21 11 -41 -8 -31 -34 -43 -82 -38 -33 4 -34 5 -34 48 l0 44 43 0
c24 0 51 -6 62 -13z m-215 -305 c0 -46 -14 -62 -56 -62 -40 0 -49 20 -26 65
14 29 23 35 50 35 31 0 32 -2 32 -38z m221 12 c12 -24 12 -28 -10 -45 -35 -29
-68 -34 -96 -15 -50 33 -19 86 50 86 35 0 44 -4 56 -26z m-407 0 c37 -14 10
-78 -38 -90 -32 -8 -95 21 -105 48 -8 21 -5 24 33 35 48 13 88 16 110 7z
m4942 -72 c19 -15 23 -37 38 -177 28 -277 18 -454 -33 -552 -24 -47 -98 -143
-110 -143 -16 0 -33 70 -27 105 4 19 27 76 51 127 70 148 72 188 29 520 -8 59
3 138 19 138 7 0 22 -8 33 -18z m-4783 -153 c-4 -14 0 -26 11 -34 24 -18 -4
-41 -33 -26 -41 22 -34 81 9 81 14 0 17 -5 13 -21z m-386 -25 c30 -41 13 -53
-92 -61 -53 -4 -75 -1 -90 10 -17 13 -18 17 -5 32 38 46 158 58 187 19z m222
-226 c12 -32 -4 -48 -49 -48 -60 0 -78 39 -26 60 39 16 66 11 75 -12z m-469
-18 c9 -38 0 -79 -20 -90 -12 -7 -30 -4 -59 8 -33 14 -41 22 -41 43 0 61 107
96 120 39z m230 13 c14 -9 27 -18 29 -20 12 -9 -36 -43 -62 -43 -56 0 -89 52
-44 70 33 13 50 12 77 -7z m-192 -261 c16 -32 16 -35 -3 -48 -31 -23 -93 -36
-123 -26 -43 14 -40 45 10 95 42 42 43 43 72 28 15 -9 36 -31 44 -49z m206 32
c9 -8 16 -26 16 -40 0 -23 -2 -24 -75 -24 -84 0 -95 11 -50 55 28 29 85 34
109 9z m-479 -135 c0 -52 -4 -115 -8 -141 -8 -48 -8 -48 -47 -48 -44 0 -60 19
-60 67 1 62 79 228 103 220 8 -2 12 -35 12 -98z m459 -95 c28 -11 18 -56 -20
-97 l-36 -39 -43 16 c-23 9 -50 25 -60 36 -15 17 -16 22 -4 36 36 44 114 67
163 48z m-216 -47 c4 -46 -13 -55 -66 -34 -20 8 -44 12 -52 9 -24 -8 8 27 45
50 46 28 69 20 73 -25z m-237 -197 c12 -7 19 -21 19 -40 0 -39 -31 -99 -51
-100 -19 0 -89 76 -89 98 0 43 71 68 121 42z m-213 -73 c3 -23 0 -27 -22 -27
-28 0 -37 17 -24 43 14 27 42 17 46 -16z m-8 -137 c24 -13 41 -71 31 -107 -8
-31 -48 -47 -98 -38 -70 12 -83 67 -29 121 35 35 63 42 96 24z m195 -52 c29
-13 31 -21 10 -38 -24 -20 -65 -4 -65 25 0 28 15 31 55 13z m-196 -240 c17
-49 14 -68 -12 -68 -54 0 -87 59 -52 93 21 22 52 10 64 -25z m-201 -23 c3 -29
-1 -43 -14 -52 -21 -16 -68 -17 -94 -3 -18 10 -19 12 -3 44 18 38 46 56 83 53
21 -2 25 -8 28 -42z m9098 -61 c18 -5 23 -18 34 -92 6 -48 10 -105 8 -127 -3
-39 -4 -40 -42 -43 -22 -2 -78 2 -124 8 -149 20 -238 66 -293 152 -17 27 -30
50 -28 51 2 2 63 15 134 29 123 25 264 35 311 22z m-720 -58 c30 -23 5 -40
-44 -31 -54 9 -45 37 14 44 5 0 19 -5 30 -13z m-8176 -75 c5 -11 10 -34 10
-52 0 -29 -2 -31 -27 -25 -16 4 -40 10 -55 13 -23 4 -28 11 -28 34 0 32 21 48
62 49 17 0 31 -7 38 -19z m-200 -25 c0 -46 -18 -76 -45 -76 -32 0 -49 38 -35
75 8 20 16 25 45 25 30 0 35 -3 35 -24z m8548 -6 c34 -12 62 -25 62 -29 0 -9
-123 -21 -212 -21 -60 0 -128 21 -128 39 0 6 12 17 28 26 37 21 167 14 250
-15z m81 -116 c89 -36 -8 -44 -124 -11 -48 14 -49 15 -25 26 31 13 94 7 149
-15z m-8363 -65 c3 -6 -8 -25 -25 -43 -17 -18 -31 -40 -31 -49 0 -9 -4 -17
-10 -17 -13 0 -13 15 0 62 13 46 50 73 66 47z m8090 -10 c6 -10 -11 -29 -26
-29 -3 0 -11 4 -19 9 -17 11 -5 31 19 31 10 0 22 -5 26 -11z m439 -83 c24 -16
65 -71 65 -88 0 -4 -16 4 -36 17 -20 14 -42 25 -48 25 -6 0 -39 13 -72 29 -54
26 -94 61 -94 83 0 10 151 -44 185 -66z m-8795 14 c11 -11 20 -27 20 -35 0
-20 -44 -65 -64 -65 -38 0 -46 12 -46 66 l0 54 35 0 c22 0 43 -8 55 -20z
m-232 -27 c5 -32 -31 -63 -73 -63 -35 0 -35 0 -35 46 l0 45 53 -3 c45 -3 52
-6 55 -25z m222 -219 c13 -32 13 -74 1 -74 -18 0 -71 52 -71 69 0 24 9 31 37
31 16 0 27 -8 33 -26z m-242 -6 c17 -17 15 -55 -4 -62 -27 -10 -99 -7 -112 6
-16 16 -15 55 1 61 24 10 103 7 115 -5z m-7 -208 c27 -15 24 -56 -6 -76 -23
-15 -27 -15 -50 0 -19 12 -25 25 -25 51 0 32 2 35 31 35 17 0 39 -5 50 -10z
m8665 -722 c-13 -66 -84 -138 -135 -138 -27 0 -27 21 -1 76 21 43 53 71 99 84
42 13 44 12 37 -22z m-327 -79 c55 -1 56 -1 26 -14 -18 -8 -83 -14 -167 -16
-128 -4 -136 -3 -121 13 21 23 45 27 132 22 41 -2 99 -4 130 -5z m-29 -92 c0
-17 -45 -38 -65 -31 -16 6 -20 26 -8 37 12 13 73 8 73 -6z m-5973 -19 c76 -12
84 -21 31 -32 -39 -8 -230 32 -221 47 6 9 63 5 190 -15z m-722 -348 c260 -8
276 -10 433 -56 32 -9 27 -23 -14 -40 -49 -20 -383 -94 -461 -101 -124 -12
-207 37 -238 139 -20 68 -20 82 3 73 9 -4 134 -11 277 -15z m-296 -223 l41
-23 -34 -37 c-19 -20 -42 -37 -52 -37 -19 0 -64 66 -64 94 0 32 55 34 109 3z
m-674 -77 c8 -7 15 -25 15 -41 0 -24 -4 -29 -26 -29 -28 0 -65 16 -76 34 -4 6
-8 22 -8 35 0 22 3 23 40 18 23 -3 47 -11 55 -17z m449 -11 c7 -39 1 -49 -30
-49 -19 0 -24 5 -24 24 0 14 -5 28 -11 32 -15 9 8 24 37 24 16 0 23 -8 28 -31z
m7339 -116 c21 -12 1 -23 -43 -23 -51 0 -60 6 -38 28 11 11 58 8 81 -5z
m-7326 -289 c9 -23 -27 -96 -45 -89 -7 3 -18 5 -23 5 -9 0 -39 52 -39 69 0 11
46 29 78 30 12 1 25 -6 29 -15z m6134 -72 c-18 -32 -66 -71 -121 -96 -167 -76
-431 -46 -534 62 l-28 30 43 6 c75 10 136 12 397 14 234 1 252 0 243 -16z
m-4431 -41 c30 -7 126 -28 213 -48 l159 -37 -6 -36 c-4 -19 -13 -74 -21 -122
-8 -47 -20 -99 -26 -114 l-10 -29 -49 53 -48 52 -109 -6 c-212 -13 -426 47
-614 172 -60 40 -68 48 -57 62 17 20 86 51 141 62 55 12 357 5 427 -9z m-1700
-141 c13 -8 13 -13 0 -37 -19 -34 -60 -50 -97 -37 -36 13 -39 29 -9 59 26 26
77 34 106 15z m5645 -310 c170 -64 340 -99 484 -100 l74 0 66 -53 c101 -81
129 -99 194 -122 l59 -22 -38 -22 c-65 -39 -204 -79 -371 -106 -87 -15 -189
-33 -226 -42 -38 -8 -71 -12 -74 -9 -11 11 22 68 74 131 78 94 104 155 64 155
-33 0 -68 -38 -91 -101 -18 -48 -39 -77 -104 -143 -71 -71 -146 -134 -224
-186 -22 -15 -22 -16 -6 -57 41 -104 -46 -149 -123 -63 -21 25 -34 31 -56 27
-22 -3 -27 -1 -21 12 35 84 37 107 39 426 1 176 5 334 9 352 l8 31 82 -35 c44
-19 126 -52 181 -73z m-5665 70 c27 -27 27 -70 0 -70 -44 0 -90 41 -90 80 0
19 69 11 90 -10z m1168 -2 c7 -7 12 -25 12 -40 0 -22 -5 -28 -21 -28 -34 0
-59 19 -59 45 0 31 45 46 68 23z m6842 -33 c0 -32 -2 -35 -30 -35 -28 0 -30 3
-30 35 0 32 2 35 30 35 28 0 30 -3 30 -35z m-360 -65 c0 -15 -36 -30 -74 -30
-34 0 -47 15 -29 33 10 11 103 8 103 -3z m-2499 -62 c3 -166 -3 -242 -19 -254
-45 -33 -301 -158 -309 -151 -4 5 -9 84 -11 175 l-3 167 83 22 c46 12 119 33
163 47 44 14 83 25 88 25 4 1 7 -14 8 -31z m-3593 -33 c8 -7 17 -29 22 -49 l8
-36 -36 0 c-48 0 -72 24 -72 72 0 39 0 40 33 33 17 -4 38 -13 45 -20z m-208
-28 c0 -37 -15 -57 -42 -57 -27 0 -24 55 4 74 32 23 38 20 38 -17z m5914 -10
c6 -17 6 -37 0 -54 -8 -24 -16 -28 -52 -31 -47 -4 -72 10 -72 39 0 15 7 19 33
19 37 0 57 15 57 43 0 27 23 16 34 -16z m-207 -8 c32 -12 43 -26 43 -56 0 -30
-52 -57 -93 -49 -42 8 -57 24 -57 58 0 23 6 32 33 43 39 17 39 17 74 4z m-155
-90 c-42 -38 -76 -36 -80 4 -3 27 -3 27 55 27 l58 -1 -33 -30z m-1584 -128 c1
-50 -1 -91 -6 -91 -16 0 -71 65 -87 103 -13 31 -14 46 -5 72 l11 33 42 -13 42
-12 3 -92z m-5308 71 c0 -37 -27 -62 -67 -62 -32 0 -33 2 -33 38 0 21 2 41 5
44 3 3 26 5 50 5 41 0 45 -2 45 -25z m-730 -22 c0 -22 -33 -60 -53 -60 -25 0
-57 31 -57 56 0 23 3 24 55 24 48 0 55 -2 55 -20z m7588 -36 c25 -17 30 -62 7
-70 -8 -3 -37 2 -65 11 -50 17 -51 17 -33 37 15 18 46 35 63 37 3 1 16 -6 28
-15z m-213 -6 c25 -11 42 -48 31 -66 -9 -15 -67 -20 -104 -10 -35 10 -59 45
-49 72 8 19 83 22 122 4z m-1544 -167 c27 -42 48 -63 85 -81 27 -14 51 -26 52
-27 2 -1 -9 -25 -24 -53 -28 -51 -87 -110 -110 -110 -6 0 -29 30 -50 67 -22
36 -69 98 -105 137 -53 57 -65 75 -59 91 12 33 34 45 96 53 47 7 61 6 69 -6 6
-8 26 -40 46 -71z m-5111 47 c0 -44 -89 -67 -110 -28 -6 11 -8 25 -5 30 9 15
115 13 115 -2z m5958 -64 c40 -25 21 -64 -31 -64 -29 0 -117 47 -117 62 0 12
63 26 95 20 17 -2 40 -11 53 -18z m-198 -26 c0 -14 -9 -18 -40 -18 l-41 0 22
29 c18 25 24 28 40 18 11 -7 19 -20 19 -29z m434 29 c17 -13 17 -14 1 -30 -9
-9 -27 -17 -39 -17 -24 0 -76 35 -76 51 0 14 94 11 114 -4z m-6188 -108 c8 -7
8 -20 0 -50 -10 -39 -11 -40 -45 -34 -56 11 -104 29 -108 42 -6 16 31 47 65
53 31 7 72 1 88 -11z m1715 -46 c16 -10 29 -22 29 -28 0 -19 -23 -35 -50 -35
-57 0 -73 74 -17 79 5 1 22 -7 38 -16z m4017 -5 c-2 -17 -11 -24 -32 -26 -16
-2 -33 1 -39 7 -16 16 11 41 45 41 25 0 29 -4 26 -22z m232 8 c0 -8 -10 -22
-22 -30 -26 -18 -58 -5 -58 24 0 17 7 20 40 20 28 0 40 -4 40 -14z m457 -13
c19 -40 2 -53 -73 -53 -35 0 -64 3 -64 8 0 16 33 54 54 62 42 17 70 11 83 -17z
m-254 -18 c-4 -15 -36 -12 -41 3 -3 9 3 13 19 10 13 -1 23 -7 22 -13z m-6172
-116 c14 -7 15 -14 5 -49 -10 -39 -13 -41 -41 -37 -124 21 -115 17 -115 53 0
29 4 35 28 40 15 3 32 7 37 9 14 4 66 -6 86 -16z m5965 0 c10 -16 8 -109 -3
-120 -13 -13 -153 22 -153 39 0 28 23 54 63 73 47 21 83 24 93 8z m-4248 -21
c7 -7 12 -25 12 -40 0 -24 -4 -28 -28 -28 -31 0 -52 16 -52 40 0 21 19 40 40
40 9 0 21 -5 28 -12z m170 0 c24 -24 8 -131 -20 -136 -31 -6 -48 26 -48 89 0
58 0 59 28 59 15 0 33 -5 40 -12z m3842 -7 c15 -28 13 -107 -2 -108 -7 -1 -28
-7 -45 -14 -30 -12 -34 -11 -61 14 -36 34 -32 66 10 102 36 30 83 33 98 6z
m460 -21 c0 -41 -9 -48 -45 -34 -14 6 -45 53 -45 69 0 3 20 5 45 5 l45 0 0
-40z m217 18 c40 -33 -13 -77 -78 -64 -53 10 -63 19 -49 45 21 40 90 50 127
19z m-6917 -13 c0 -8 -5 -26 -12 -40 -22 -48 -78 -24 -78 34 0 18 6 21 45 21
33 0 45 -4 45 -15z m5830 -18 c48 -17 63 -18 117 -8 34 6 69 14 76 17 18 7 31
-37 22 -76 l-6 -27 -51 14 c-36 9 -72 10 -118 5 -82 -10 -150 -4 -150 13 0 6
7 26 16 43 8 18 12 37 8 44 -5 8 -2 9 12 3 10 -4 44 -17 74 -28z m-4126 -40
c10 -28 -5 -57 -30 -57 -36 0 -59 71 -32 98 16 16 50 -6 62 -41z m-1234 -117
c36 -36 26 -56 -30 -63 -28 -3 -57 -4 -65 0 -31 11 -9 60 35 76 27 10 40 7 60
-13z m1960 -72 c0 -89 -7 -103 -44 -88 -15 5 -49 10 -74 10 -50 0 -92 21 -92
46 0 9 11 14 34 14 29 0 41 8 72 45 30 37 42 45 70 45 l34 0 0 -72z m-2432 -6
c2 -13 -3 -25 -13 -28 -17 -7 -95 12 -95 22 0 3 10 18 23 34 22 28 22 28 52
11 17 -9 31 -27 33 -39z m6680 42 c22 -15 29 -39 14 -48 -5 -3 -31 -8 -59 -12
-48 -6 -52 -5 -69 21 -17 26 -17 28 1 41 25 19 85 18 113 -2z m-226 -22 c19
-19 -11 -42 -51 -42 -74 0 -105 24 -63 50 20 13 99 7 114 -8z m-232 -7 c6 -8
10 -22 8 -32 -3 -14 -12 -17 -38 -15 -44 3 -55 14 -41 41 13 24 53 28 71 6z
m-180 -15 c0 -23 -41 -53 -66 -48 -14 2 -11 9 14 36 34 37 52 41 52 12z m878
-91 c14 -10 32 -19 40 -19 8 0 0 -10 -19 -23 -18 -12 -42 -41 -54 -65 -23 -49
-36 -51 -77 -17 -16 14 -34 23 -39 19 -23 -14 -6 35 21 61 17 16 30 37 30 46
0 34 54 33 98 -2z m-6440 -71 c3 -33 1 -37 -29 -43 -37 -8 -82 19 -87 53 -4
23 18 31 78 28 33 -1 35 -3 38 -38z m5962 -17 c0 -39 -24 -61 -66 -61 -32 0
-34 2 -34 35 0 39 19 53 73 54 23 1 27 -3 27 -28z m-6435 5 c18 -13 18 -14 -8
-40 -21 -21 -35 -26 -77 -26 -43 0 -50 3 -50 20 0 50 88 80 135 46z m6213 2
c21 -21 14 -39 -11 -33 -12 4 -35 1 -50 -4 -35 -13 -38 10 -5 33 27 19 50 20
66 4z m-189 -44 c7 -19 11 -36 9 -38 -1 -1 -25 -7 -52 -14 -55 -14 -76 -5 -76
34 0 29 35 54 75 54 26 0 33 -5 44 -36z m-233 4 c-3 -7 -7 -25 -10 -40 -11
-47 -46 -32 -60 25 -6 26 -5 27 33 27 28 0 39 -4 37 -12z m-158 -35 c3 -22
-22 -48 -38 -38 -14 8 -13 33 3 50 16 19 31 13 35 -12z m-4759 -28 c34 -17 53
-63 42 -102 -7 -24 -13 -28 -40 -27 -47 3 -79 28 -93 75 -11 37 -10 43 7 55
24 18 49 18 84 -1z m5799 -112 c2 -12 -6 -31 -18 -43 -18 -18 -29 -21 -58 -15
-49 9 -55 16 -36 44 32 45 106 54 112 14z m-238 -13 c0 -22 -6 -33 -23 -41
-27 -12 -88 0 -95 19 -5 16 57 52 91 52 23 0 27 -4 27 -30z m-5110 -50 c0 -32
-5 -43 -26 -57 -25 -16 -27 -16 -40 2 -8 10 -14 29 -14 41 0 42 11 54 46 54
33 0 34 -1 34 -40z m4850 -145 c12 -15 8 -48 -9 -74 -8 -12 -16 -13 -50 -2
-56 16 -85 71 -38 71 12 0 29 5 37 10 22 14 46 12 60 -5z m228 3 c7 -7 12 -25
12 -40 0 -27 -2 -28 -45 -28 -50 0 -50 0 -33 47 13 35 43 44 66 21z m-594 -24
c31 -31 11 -64 -38 -64 -42 0 -65 15 -48 32 6 6 12 20 12 30 0 23 52 25 74 2z
m190 0 c33 -32 11 -64 -43 -64 -35 0 -71 23 -71 46 0 33 86 46 114 18z m-575
-148 c7 -8 15 -31 18 -51 6 -36 5 -37 -23 -33 -31 3 -41 28 -30 74 7 27 18 30
35 10z m-3473 -91 c12 -18 14 -31 7 -52 -13 -38 -47 -42 -69 -9 -14 22 -14 31
-4 56 15 37 44 39 66 5z m4019 -20 c0 -34 -3 -40 -23 -43 -32 -5 -62 25 -62
60 0 28 2 29 43 26 42 -3 42 -3 42 -43z m-4244 15 c5 -34 3 -73 -3 -76 -11 -7
-38 38 -38 63 0 16 6 23 20 23 11 0 21 -4 21 -10z m3409 -296 c11 -27 14 -124
4 -124 -11 0 -50 23 -71 43 -16 14 -23 32 -23 57 0 45 5 50 47 50 27 0 35 -5
43 -26z m-3612 -246 c52 -110 121 -197 172 -218 16 -7 30 -13 30 -15 0 -1 -7
-16 -15 -33 -9 -17 -22 -66 -30 -109 -18 -104 -22 -113 -54 -113 -62 0 -111
58 -111 130 0 34 -3 37 -65 68 -80 39 -147 99 -175 156 -26 55 -27 145 -2 174
30 36 93 62 149 62 l51 0 50 -102z m3312 17 c19 -23 6 -99 -24 -146 -51 -76
-72 -27 -32 72 15 34 26 68 26 76 0 17 15 17 30 -2z m-3712 -176 c38 -13 46
-32 28 -68 -23 -44 -39 -53 -64 -35 -22 15 -30 62 -16 98 7 19 11 19 52 5z"/>
<path d="M7046 3224 c-35 -73 -78 -140 -200 -309 -83 -115 -87 -124 -31 -84
71 51 185 177 230 254 39 67 95 188 95 206 0 5 -13 9 -29 9 -26 0 -32 -7 -65
-76z"/>
<path d="M5496 10398 c-146 -234 -216 -419 -216 -574 0 -36 3 -44 19 -44 28 0
38 19 46 85 9 78 13 92 30 99 20 7 108 -17 189 -53 l69 -31 -7 -79 c-6 -67 -5
-81 10 -96 23 -23 26 -16 58 130 69 317 80 364 98 414 10 30 16 57 13 59 -13
13 -59 -38 -76 -84 -11 -28 -28 -59 -38 -68 -18 -17 -23 -17 -78 -1 -133 39
-155 56 -129 104 55 101 75 144 70 152 -10 17 -44 9 -58 -13z m24 -289 c117
-22 140 -37 140 -95 0 -26 -1 -27 -43 -21 -63 9 -203 55 -217 72 -17 21 17 67
45 60 11 -3 45 -10 75 -16z"/>
<path d="M4214 9368 c-107 -111 -301 -325 -454 -503 -52 -60 -159 -183 -238
-273 -79 -90 -142 -165 -140 -168 3 -2 28 8 56 22 68 34 139 113 191 213 30
58 51 86 73 97 58 30 130 108 259 280 105 138 145 184 215 240 84 68 144 141
144 176 0 10 -1 18 -3 18 -2 0 -48 -46 -103 -102z"/>
<path d="M5137 8960 c-18 -128 -46 -217 -76 -244 -15 -13 -43 -19 -117 -22
-347 -13 -634 -209 -742 -506 -25 -67 -27 -86 -27 -219 l0 -145 37 -75 c25
-50 57 -94 100 -137 60 -59 103 -92 310 -236 l85 -59 -13 -51 c-8 -28 -41
-168 -74 -311 -107 -461 -128 -527 -190 -613 -34 -48 -53 -51 -115 -23 -60 27
-99 64 -179 170 -82 107 -117 146 -160 172 l-29 18 -49 -112 c-85 -196 -100
-245 -102 -327 -2 -146 69 -227 292 -336 75 -37 154 -78 176 -91 36 -23 38
-28 33 -62 -2 -20 -21 -73 -41 -116 l-36 -79 27 -22 c54 -44 134 -78 193 -82
65 -5 65 -5 96 121 27 108 28 109 159 97 61 -6 127 -15 149 -21 38 -10 38 -11
33 -52 -3 -23 -17 -68 -31 -100 -15 -32 -26 -66 -26 -76 0 -26 37 -56 114 -92
l69 -32 19 24 c18 24 51 89 126 250 l40 87 53 7 c95 13 201 53 343 130 l139
75 63 -30 c147 -69 337 -96 399 -56 25 17 26 19 11 28 -10 6 -81 14 -158 19
-197 12 -244 23 -278 64 -11 13 -6 24 38 73 205 236 293 491 270 784 -15 196
-86 324 -308 552 -118 121 -119 123 -111 157 5 19 21 85 35 147 31 133 91 333
112 373 25 49 48 41 210 -68 26 -18 63 -36 82 -39 29 -6 38 -3 53 17 29 38 57
139 76 269 22 151 21 153 -106 237 -51 34 -111 79 -133 100 -38 37 -39 40 -33
88 3 27 22 91 41 143 20 52 34 95 32 96 -2 1 -41 20 -88 41 -67 31 -100 40
-157 43 -40 2 -73 3 -74 1 0 -2 -4 -56 -8 -119 -4 -65 -14 -129 -22 -145 -13
-27 -19 -30 -54 -28 -87 6 -148 25 -177 55 -15 17 -28 39 -28 51 0 11 14 62
30 114 39 121 39 151 3 159 -16 3 -73 20 -128 39 -55 18 -114 35 -131 38 l-31
6 -16 -119z m-181 -714 c-4 -25 -27 -109 -52 -188 -24 -78 -44 -153 -44 -165
0 -32 -16 -29 -55 10 -74 74 -69 221 12 317 36 43 81 70 117 70 28 0 28 -1 22
-44z m501 -47 l75 -33 -6 -41 c-4 -22 -26 -123 -50 -225 -24 -102 -49 -218
-56 -257 l-12 -73 -32 0 c-18 0 -72 14 -121 30 -49 17 -97 30 -107 30 -20 0
-20 24 3 165 20 121 117 421 142 438 20 14 85 0 164 -34z m-315 -1096 l96 -64
-52 -202 c-29 -111 -82 -307 -117 -435 l-64 -233 -40 -10 c-32 -9 -60 -8 -137
6 -53 10 -103 22 -110 26 -16 10 43 248 157 628 47 157 90 304 96 327 11 42
11 42 42 32 18 -6 75 -39 129 -75z m365 -301 c7 -4 25 -25 40 -47 l29 -39 -23
-133 c-37 -218 -72 -292 -157 -332 -25 -11 -48 -21 -51 -21 -8 0 -5 81 6 150
18 115 115 430 132 430 7 0 17 -4 24 -8z"/>
<path d="M2420 7325 c0 -62 120 -145 347 -239 72 -30 149 -67 172 -82 40 -26
43 -26 59 -10 16 16 16 18 -3 33 -11 8 -114 61 -230 118 -120 59 -239 125
-277 154 -66 50 -68 51 -68 26z"/>
<path d="M2310 7236 c0 -32 43 -107 79 -137 44 -37 253 -140 340 -168 82 -27
211 -27 211 -1 0 4 -30 15 -67 25 -209 55 -407 154 -520 258 -31 28 -43 35
-43 23z"/>
<path d="M3239 6702 c18 -35 131 -100 226 -132 94 -31 253 -65 262 -56 14 13
-66 68 -140 97 -131 51 -275 98 -319 105 -38 7 -40 6 -29 -14z"/>
<path d="M2530 6657 c0 -21 54 -92 92 -120 80 -60 197 -98 373 -121 61 -7 111
-12 113 -11 2 2 -1 12 -7 23 -17 32 -89 60 -186 72 -136 17 -185 34 -269 95
-100 71 -116 80 -116 62z"/>
<path d="M1400 6586 c0 -4 9 -24 20 -45 29 -58 81 -95 189 -136 161 -60 181
-69 208 -91 l27 -22 -59 10 c-42 6 -87 24 -146 57 -100 57 -150 74 -185 61
-13 -5 -24 -13 -24 -17 0 -11 194 -118 250 -138 53 -19 182 -31 234 -21 l36 7
0 54 0 54 -42 11 c-196 50 -336 110 -485 208 -13 8 -23 11 -23 8z"/>
<path d="M2502 6488 c48 -87 247 -175 418 -185 72 -5 88 -3 99 11 8 10 10 20
5 24 -10 9 -82 33 -270 91 -72 23 -164 54 -203 71 l-72 29 23 -41z"/>
<path d="M1386 6185 c-6 -16 102 -72 259 -134 151 -60 328 -78 292 -30 -23 30
-63 48 -147 64 -47 9 -126 34 -176 55 -94 40 -110 45 -180 54 -32 5 -43 2 -48
-9z"/>
<path d="M2910 5842 c0 -21 64 -62 127 -82 113 -35 356 -53 381 -28 20 20 14
35 -15 41 -16 4 -59 13 -98 21 -38 8 -126 22 -195 31 -69 8 -142 18 -162 21
-23 3 -38 2 -38 -4z"/>
<path d="M2390 5716 c-16 -42 -12 -60 18 -88 52 -49 90 -62 313 -108 130 -26
228 -63 236 -87 12 -35 -363 -50 -717 -30 -76 4 -130 4 -125 -1 17 -16 204
-71 314 -94 179 -36 517 -27 552 16 5 6 21 26 35 44 43 54 111 82 196 82 l74
0 33 71 c18 38 32 71 30 73 -2 1 -60 8 -129 15 -69 7 -258 37 -420 66 -162 30
-319 57 -347 61 -50 6 -53 5 -63 -20z m505 -116 c88 -17 199 -33 248 -37 48
-3 87 -9 87 -13 0 -14 -89 -30 -165 -30 -93 0 -179 17 -377 76 l-153 44 100
-4 c55 -3 172 -19 260 -36z"/>
<path d="M8700 5583 c-8 -3 -26 -10 -40 -15 -30 -11 -16 -22 45 -33 22 -3 48
-14 59 -23 17 -16 15 -17 -45 -22 -48 -4 -65 -9 -67 -21 -2 -13 9 -18 50 -23
29 -4 99 -16 156 -26 99 -19 203 -26 214 -14 3 3 2 22 -3 42 -11 52 -73 105
-147 126 -56 15 -190 21 -222 9z"/>
<path d="M5570 5490 c13 -24 82 -72 135 -94 124 -52 353 -68 470 -32 56 17 58
19 40 32 -15 11 -52 14 -160 13 -152 -2 -237 12 -412 72 -76 25 -82 26 -73 9z"/>
<path d="M3217 5302 c63 -59 124 -73 328 -78 94 -2 200 -6 238 -7 37 -1 67 1
67 5 0 10 -66 43 -115 57 -22 7 -128 16 -235 21 -175 8 -244 16 -306 35 -11 4
-1 -10 23 -33z"/>
<path d="M6790 5302 c25 -25 40 -49 40 -64 0 -22 -7 -27 -72 -43 -144 -37
-513 -31 -723 12 l-30 6 23 -26 c54 -58 206 -97 382 -97 125 0 173 8 325 57
144 46 193 50 330 28 l112 -18 46 22 c26 13 47 26 47 31 0 4 -21 10 -48 14
-26 3 -128 28 -227 55 -99 27 -194 52 -212 56 l-32 6 39 -39z"/>
<path d="M3082 5135 c6 -34 52 -56 147 -70 100 -15 116 -23 134 -68 11 -25 22
-32 82 -49 140 -38 266 -58 361 -58 84 0 95 2 90 16 -3 9 -6 17 -6 20 0 2 -15
11 -32 20 -24 13 -70 19 -168 23 -131 6 -160 12 -160 32 0 14 93 11 228 -8
121 -17 124 -17 160 2 46 25 53 51 18 67 -21 9 -43 8 -104 -3 -102 -20 -204
-11 -469 40 -307 59 -286 57 -281 36z"/>
<path d="M7480 5024 c-79 -19 -246 -34 -465 -42 l-190 -7 90 -17 c267 -52 460
-44 578 26 50 29 78 57 56 55 -8 -1 -39 -7 -69 -15z"/>
<path d="M2330 4972 c0 -5 6 -25 14 -44 14 -32 21 -36 158 -81 79 -26 172 -51
208 -56 90 -13 166 3 198 42 10 12 -5 15 -101 20 -157 9 -255 35 -464 124 -7
3 -13 1 -13 -5z"/>
<path d="M8405 4886 c-33 -14 -55 -52 -55 -91 0 -30 -3 -30 57 -4 52 22 113
65 113 79 0 8 -54 30 -74 30 -6 -1 -25 -7 -41 -14z"/>
<path d="M7289 4866 c-13 -13 -417 -39 -628 -40 l-243 -1 73 -23 c94 -29 242
-52 342 -52 178 0 378 39 485 95 l47 24 -36 1 c-20 0 -38 -2 -40 -4z"/>
<path d="M4238 4839 c-88 -4 -154 -11 -162 -18 -8 -6 -19 -25 -26 -41 -7 -17
-18 -30 -24 -30 -7 0 -50 13 -96 30 -101 35 -150 38 -175 10 -10 -11 -16 -21
-14 -23 40 -27 338 -158 377 -166 119 -24 138 25 31 80 -21 10 -39 26 -39 34
0 13 26 15 168 15 300 0 493 -27 621 -86 84 -38 96 -54 121 -155 22 -88 49
-139 75 -139 32 0 21 155 -16 235 -66 140 -272 238 -529 251 -58 2 -118 6
-135 7 -16 2 -96 0 -177 -4z"/>
<path d="M5670 4781 c0 -9 61 -48 117 -75 86 -42 169 -59 283 -59 114 0 169
14 227 59 44 33 42 45 -4 31 -23 -7 -102 -11 -203 -11 -144 2 -181 5 -292 31
-71 16 -128 27 -128 24z"/>
<path d="M5225 4631 c41 -44 118 -78 218 -95 104 -18 507 -34 507 -19 0 19
-46 52 -86 61 -23 5 -105 7 -183 4 -175 -6 -322 17 -466 73 -16 6 -13 1 10
-24z"/>
<path d="M6430 4609 c0 -5 15 -20 34 -34 132 -101 457 -112 572 -20 l29 23
-245 -1 c-217 -1 -253 1 -317 19 -40 11 -73 17 -73 13z"/>
<path d="M5182 4448 c21 -154 60 -251 128 -317 l45 -44 3 36 c4 45 -30 171
-62 236 -27 52 -102 151 -115 151 -4 0 -4 -28 1 -62z"/>
<path d="M5342 4489 c3 -23 6 -24 88 -24 76 0 89 -3 125 -27 34 -23 58 -29
154 -39 133 -14 261 -8 314 14 61 26 45 37 -50 37 -211 0 -452 23 -606 56 -26
6 -28 4 -25 -17z"/>
<path d="M8349 4441 c-168 -106 -315 -232 -425 -362 -122 -144 -113 -149 27
-13 102 99 159 146 238 194 110 67 204 147 234 199 10 17 15 31 10 30 -4 0
-42 -22 -84 -48z"/>
<path d="M5526 4301 c-9 -14 62 -88 130 -137 79 -57 174 -97 276 -118 82 -17
208 -22 208 -8 0 28 -68 62 -193 97 -89 25 -177 72 -177 93 0 4 31 6 69 4 38
-2 121 3 184 12 106 16 121 16 200 1 99 -18 156 -10 182 28 15 21 14 22 -22
28 -43 8 -187 -3 -343 -26 -154 -22 -248 -19 -359 10 -99 26 -146 31 -155 16z"/>
<path d="M1635 4214 c4 -10 10 -29 12 -40 6 -26 52 -52 168 -94 112 -41 152
-61 240 -120 73 -50 134 -73 155 -60 18 11 0 39 -65 98 -64 59 -112 83 -325
164 -202 78 -195 76 -185 52z"/>
<path d="M1610 4028 c0 -7 6 -30 14 -52 13 -37 18 -40 132 -88 241 -100 370
-145 380 -135 2 2 -9 22 -26 45 -39 54 -109 93 -245 138 -89 30 -180 67 -247
102 -5 2 -8 -2 -8 -10z"/>
<path d="M5777 3981 c11 -41 81 -107 143 -135 34 -15 139 -45 233 -66 95 -21
179 -41 188 -45 22 -8 86 21 99 46 7 11 10 22 8 24 -2 1 -41 8 -87 14 -103 15
-174 37 -366 111 -82 32 -167 61 -187 65 -34 6 -36 5 -31 -14z"/>
<path d="M5427 3838 c-16 -62 -29 -348 -24 -488 8 -188 24 -285 83 -489 86
-298 86 -295 94 -551 4 -129 13 -256 20 -282 7 -26 27 -64 46 -85 l33 -38 1
40 c0 22 -7 92 -15 155 -9 63 -13 126 -10 140 l7 25 22 -26 c12 -14 42 -72 65
-127 30 -71 53 -111 77 -132 30 -26 64 -40 64 -25 0 2 -48 118 -106 257 -174
416 -255 687 -283 940 -6 54 -11 235 -11 403 l0 305 -29 0 c-22 0 -30 -6 -34
-22z"/>
<path d="M3670 3782 c0 -22 40 -133 70 -191 88 -174 269 -327 542 -456 149
-70 339 -110 412 -85 32 10 65 45 53 56 -2 3 -44 9 -93 14 -327 37 -554 137
-740 326 -66 67 -91 101 -133 186 -48 95 -111 180 -111 150z"/>
<path d="M3881 3771 c-52 -14 -31 -29 76 -54 166 -39 297 -56 588 -77 160 -12
247 -5 304 24 33 17 47 34 37 44 -4 3 -143 9 -309 13 -266 6 -317 10 -432 33
-127 25 -215 31 -264 17z"/>
<path d="M5442 2563 c-18 -35 -62 -210 -77 -303 -8 -52 -24 -187 -35 -300 -28
-283 -36 -336 -76 -486 -38 -149 -40 -164 -19 -204 14 -27 50 -48 62 -36 17
17 45 194 93 604 43 361 68 526 101 654 10 42 19 79 19 82 0 15 -60 5 -68 -11z"/>
<path d="M3263 1762 c-12 -8 56 -81 107 -115 27 -19 60 -22 60 -7 0 22 -47 80
-84 104 -41 27 -62 31 -83 18z"/>
<path d="M4280 1258 c0 -7 -36 -86 -81 -174 -74 -146 -82 -168 -87 -233 -3
-45 -1 -71 5 -71 23 0 97 86 124 144 32 69 82 272 77 314 -3 27 -38 46 -38 20z"/>
<path d="M3225 1038 c10 -47 9 -45 86 -68 39 -12 165 -59 280 -106 215 -87
341 -127 442 -142 41 -7 57 -6 57 3 0 24 -43 55 -98 70 -120 33 -581 198 -696
249 -75 33 -79 33 -71 -6z"/>
</g>
</svg>
